<?xml version="1.0" standalone="no"?>
<!DOCTYPE svg PUBLIC "-//W3C//DTD SVG 1.1//EN" "http://www.w3.org/Graphics/SVG/1.1/DTD/svg11.dtd" >
<svg>
<metadata>
Created by FontForge 20090914 at Sun Nov  1 22:03:36 2020
 By www-data
&#194;&#169; 2015-2017 Apple Inc. All rights reserved.
</metadata>
<defs>
<font id="SFProDisplay-Light" horiz-adv-x="1674" >
  <font-face 
    font-family="SF Pro Display"
    font-weight="300"
    font-stretch="normal"
    units-per-em="2048"
    panose-1="0 0 4 0 0 0 0 0 0 0"
    ascent="1638"
    descent="-410"
    x-height="1040"
    cap-height="1443"
    bbox="-516 -494 2508 2169"
    underline-thickness="95"
    underline-position="-463"
    unicode-range="U+0020-U+1F189"
  />
<missing-glyph horiz-adv-x="2048" 
d="M100 -494v308h1848v-308h-1848zM100 -67v308h1848v-308h-1848zM100 361v307h1848v-307h-1848zM100 788v307h1848v-307h-1848zM100 1215v308h1848v-308h-1848zM100 1642v308h1848v-308h-1848z" />
    <glyph glyph-name="uni2460" unicode="&#x31;&#x20dd;" 
d="M918 382h-102v589h-6l-170 -114v95l176 118h102v-688zM837 54c88.667 0 173.167 17.333 253.5 52s149.166 81.167 206.499 139.5s102.833 127.833 136.5 208.5s50.5 165.334 50.5 254.001s-16.833 173.167 -50.5 253.5s-79.167 149.666 -136.5 207.999
s-126.166 104.833 -206.499 139.5s-164.833 52 -253.5 52s-173.167 -17.333 -253.5 -52s-149.166 -81.167 -206.499 -139.5s-102.833 -127.666 -136.5 -207.999s-50.5 -164.833 -50.5 -253.5s16.833 -173.334 50.5 -254.001s79.167 -150.167 136.5 -208.5
s126.166 -104.833 206.499 -139.5s164.833 -52 253.5 -52zM837 -46c-102 0 -199.5 20 -292.5 60s-173.167 93.667 -240.5 161s-121 147.666 -161 240.999s-60 190.666 -60 291.999c0 102 20 199.5 60 292.5s93.667 173.333 161 241s147.5 121.5 240.5 161.5
s190.5 60 292.5 60s199.5 -20 292.5 -60s173.167 -93.833 240.5 -161.5s121 -148 161 -241s60 -190.5 60 -292.5c0 -101.333 -20 -198.666 -60 -291.999s-93.667 -173.666 -161 -240.999s-147.5 -121 -240.5 -161s-190.5 -60 -292.5 -60z" />
    <glyph glyph-name="uni2461" unicode="&#x32;&#x20dd;" 
d="M702 876l-99 -0.000976562v4c0 56 21.167 104 63.5 144s99.5 60 171.5 60c68.667 0 124 -17.833 166 -53.5s63 -81.167 63 -136.5c0 -37.333 -9.66699 -71.166 -29 -101.499s-50.333 -68.166 -93 -113.499l-193 -209v-5h331v-83h-473v63l272 290
c27.333 29.333 48 55.5 62 78.5s21 47.5 21 73.5c0 34 -12 61.833 -36 83.5s-55 32.5 -93 32.5c-40 0 -72.333 -11.833 -97 -35.5s-37 -52.834 -37 -87.501v-4zM837 53.999c88.667 0 173.167 17.333 253.5 52s149.166 81.167 206.499 139.5s102.833 127.833 136.5 208.5
s50.5 165.334 50.5 254.001s-16.833 173.167 -50.5 253.5s-79.167 149.666 -136.5 207.999s-126.166 104.833 -206.499 139.5s-164.833 52 -253.5 52s-173.167 -17.333 -253.5 -52s-149.166 -81.167 -206.499 -139.5s-102.833 -127.666 -136.5 -207.999
s-50.5 -164.833 -50.5 -253.5s16.833 -173.334 50.5 -254.001s79.167 -150.167 136.5 -208.5s126.166 -104.833 206.499 -139.5s164.833 -52 253.5 -52zM837 -46.001c-102 0 -199.5 20 -292.5 60s-173.167 93.667 -240.5 161s-121 147.666 -161 240.999
s-60 190.666 -60 291.999c0 102 20 199.5 60 292.5s93.667 173.333 161 241s147.5 121.5 240.5 161.5s190.5 60 292.5 60s199.5 -20 292.5 -60s173.167 -93.833 240.5 -161.5s121 -148 161 -241s60 -190.5 60 -292.5c0 -101.333 -20 -198.666 -60 -291.999
s-93.667 -173.666 -161 -240.999s-147.5 -121 -240.5 -161s-190.5 -60 -292.5 -60z" />
    <glyph glyph-name="uni2462" unicode="&#x33;&#x20dd;" 
d="M759 698l-0.00292969 79.001h78c37.333 0 68.5 11 93.5 33s37.5 49.667 37.5 83c-0.666992 32.667 -13.334 59.5 -38.001 80.5s-56.334 31.5 -95.001 31.5c-36.667 0 -67.5 -9.83301 -92.5 -29.5s-38.5 -43.167 -40.5 -70.5h-96c1.33301 50.667 23 93 65 127
s97.333 51.333 166 52c68.667 0 124.334 -16.667 167.001 -50s64.667 -75.666 66 -126.999c0.666992 -43.333 -13.166 -79.666 -41.499 -108.999s-59.833 -47 -94.5 -53v-6c41.333 -4 78 -20.833 110 -50.5s48.333 -68.834 49 -117.501
c0.666992 -60.667 -23.666 -109.667 -72.999 -147s-111 -56 -185 -56c-71.333 0 -129.166 17.333 -173.499 52s-68.166 78 -71.499 130h96c2.66699 -28.667 18.167 -52.834 46.5 -72.501s62.5 -29.5 102.5 -29.5c46 0 83.5 11.833 112.5 35.5s43.5 54.167 43.5 91.5
c-1.33301 35.333 -15.833 64.666 -43.5 87.999s-63.167 35 -106.5 35h-82zM836.997 54.001c88.667 0 173.167 17.333 253.5 52s149.166 81.167 206.499 139.5s102.833 127.833 136.5 208.5s50.5 165.334 50.5 254.001s-16.833 173.167 -50.5 253.5
s-79.167 149.666 -136.5 207.999s-126.166 104.833 -206.499 139.5s-164.833 52 -253.5 52s-173.167 -17.333 -253.5 -52s-149.166 -81.167 -206.499 -139.5s-102.833 -127.666 -136.5 -207.999s-50.5 -164.833 -50.5 -253.5s16.833 -173.334 50.5 -254.001
s79.167 -150.167 136.5 -208.5s126.166 -104.833 206.499 -139.5s164.833 -52 253.5 -52zM836.997 -45.999c-102 0 -199.5 20 -292.5 60s-173.167 93.667 -240.5 161s-121 147.666 -161 240.999s-60 190.666 -60 291.999c0 102 20 199.5 60 292.5s93.667 173.333 161 241
s147.5 121.5 240.5 161.5s190.5 60 292.5 60s199.5 -20 292.5 -60s173.167 -93.833 240.5 -161.5s121 -148 161 -241s60 -190.5 60 -292.5c0 -101.333 -20 -198.666 -60 -291.999s-93.667 -173.666 -161 -240.999s-147.5 -121 -240.5 -161s-190.5 -60 -292.5 -60z" />
    <glyph glyph-name="uni2463" unicode="&#x34;&#x20dd;" 
d="M835 1070h151v-465h97v-82h-97v-141h-97v141h-349v85l69 114.5l72 113.5l84.5 129zM638 605h251.001v387h-6c-110.667 -161.333 -192.334 -289 -245.001 -383v-4zM837.001 54c88.667 0 173.167 17.333 253.5 52s149.166 81.167 206.499 139.5
s102.833 127.833 136.5 208.5s50.5 165.334 50.5 254.001s-16.833 173.167 -50.5 253.5s-79.167 149.666 -136.5 207.999s-126.166 104.833 -206.499 139.5s-164.833 52 -253.5 52s-173.167 -17.333 -253.5 -52s-149.166 -81.167 -206.499 -139.5
s-102.833 -127.666 -136.5 -207.999s-50.5 -164.833 -50.5 -253.5s16.833 -173.334 50.5 -254.001s79.167 -150.167 136.5 -208.5s126.166 -104.833 206.499 -139.5s164.833 -52 253.5 -52zM837.001 -46c-102 0 -199.5 20 -292.5 60s-173.167 93.667 -240.5 161
s-121 147.666 -161 240.999s-60 190.666 -60 291.999c0 102 20 199.5 60 292.5s93.667 173.333 161 241s147.5 121.5 240.5 161.5s190.5 60 292.5 60s199.5 -20 292.5 -60s173.167 -93.833 240.5 -161.5s121 -148 161 -241s60 -190.5 60 -292.5
c0 -101.333 -20 -198.666 -60 -291.999s-93.667 -173.666 -161 -240.999s-147.5 -121 -240.5 -161s-190.5 -60 -292.5 -60z" />
    <glyph glyph-name="uni2464" unicode="&#x35;&#x20dd;" 
d="M596 549l96 -0.000976562c6 -30.667 23 -55 51 -73s60.333 -27 97 -27c42.667 0 79.167 14.333 109.5 43s45.5 66.334 45.5 113.001c0 43.333 -14.667 78.666 -44 105.999s-65.666 41 -108.999 41c-60.667 0 -107.667 -25.333 -141 -76h-91l32 395h416v-82h-332l-19 -225
h5c12.667 18 32.667 33.667 60 47s58.666 20 93.999 20c65.333 0 120 -20.333 164 -61s66 -94.667 66 -162c0 -71.333 -24.167 -129.166 -72.5 -173.499s-111.166 -66.5 -188.499 -66.5c-66.667 0 -122.334 17.167 -167.001 51.5s-68.667 77.5 -72 129.5zM837 53.999
c88.667 0 173.167 17.333 253.5 52s149.166 81.167 206.499 139.5s102.833 127.833 136.5 208.5s50.5 165.334 50.5 254.001s-16.833 173.167 -50.5 253.5s-79.167 149.666 -136.5 207.999s-126.166 104.833 -206.499 139.5s-164.833 52 -253.5 52
s-173.167 -17.333 -253.5 -52s-149.166 -81.167 -206.499 -139.5s-102.833 -127.666 -136.5 -207.999s-50.5 -164.833 -50.5 -253.5s16.833 -173.334 50.5 -254.001s79.167 -150.167 136.5 -208.5s126.166 -104.833 206.499 -139.5s164.833 -52 253.5 -52zM837 -46.001
c-102 0 -199.5 20 -292.5 60s-173.167 93.667 -240.5 161s-121 147.666 -161 240.999s-60 190.666 -60 291.999c0 102 20 199.5 60 292.5s93.667 173.333 161 241s147.5 121.5 240.5 161.5s190.5 60 292.5 60s199.5 -20 292.5 -60s173.167 -93.833 240.5 -161.5
s121 -148 161 -241s60 -190.5 60 -292.5c0 -101.333 -20 -198.666 -60 -291.999s-93.667 -173.666 -161 -240.999s-147.5 -121 -240.5 -161s-190.5 -60 -292.5 -60z" />
    <glyph glyph-name="uni2465" unicode="&#x36;&#x20dd;" 
d="M1075 923h-99c-6.66699 22 -21.5 40.667 -44.5 56s-51.5 23 -85.5 23c-54 0 -97 -25 -129 -75s-47.667 -118.667 -47 -206v-3h6c14 31.333 37.167 57.333 69.5 78s72.166 31 119.499 31c62 0 115.167 -20.167 159.5 -60.5s66.5 -93.833 66.5 -160.5
c0 -72.667 -23.5 -130.5 -70.5 -173.5s-108.167 -64.5 -183.5 -64.5c-98.667 0 -171 37.667 -217 113c-32.667 54 -49 128.667 -49 224c0 123.333 24.5 217 73.5 281s116.833 96 203.5 96c63.333 0 115.833 -16 157.5 -48s64.834 -69 69.501 -111zM685 601
c0 -45.333 14.501 -82 43.501 -110s65.5 -42 109.5 -42c45.333 0 82.166 13.333 110.499 40s42.5 63.667 42.5 111c0 46 -14.5 82.333 -43.5 109s-65.167 40 -108.5 40c-44.667 0 -81.5 -13.833 -110.5 -41.5s-43.5 -63.167 -43.5 -106.5zM837.001 54
c88.667 0 173.167 17.333 253.5 52s149.166 81.167 206.499 139.5s102.833 127.833 136.5 208.5s50.5 165.334 50.5 254.001s-16.833 173.167 -50.5 253.5s-79.167 149.666 -136.5 207.999s-126.166 104.833 -206.499 139.5s-164.833 52 -253.5 52
s-173.167 -17.333 -253.5 -52s-149.166 -81.167 -206.499 -139.5s-102.833 -127.666 -136.5 -207.999s-50.5 -164.833 -50.5 -253.5s16.833 -173.334 50.5 -254.001s79.167 -150.167 136.5 -208.5s126.166 -104.833 206.499 -139.5s164.833 -52 253.5 -52zM837.001 -46
c-102 0 -199.5 20 -292.5 60s-173.167 93.667 -240.5 161s-121 147.666 -161 240.999s-60 190.666 -60 291.999c0 102 20 199.5 60 292.5s93.667 173.333 161 241s147.5 121.5 240.5 161.5s190.5 60 292.5 60s199.5 -20 292.5 -60s173.167 -93.833 240.5 -161.5
s121 -148 161 -241s60 -190.5 60 -292.5c0 -101.333 -20 -198.666 -60 -291.999s-93.667 -173.666 -161 -240.999s-147.5 -121 -240.5 -161s-190.5 -60 -292.5 -60z" />
    <glyph glyph-name="uni2466" unicode="&#x37;&#x20dd;" 
d="M614 1064h473v-85l-296 -604h-109l300 600v6h-368v83zM837 54c88.667 0 173.167 17.333 253.5 52s149.166 81.167 206.499 139.5s102.833 127.833 136.5 208.5s50.5 165.334 50.5 254.001s-16.833 173.167 -50.5 253.5s-79.167 149.666 -136.5 207.999
s-126.166 104.833 -206.499 139.5s-164.833 52 -253.5 52s-173.167 -17.333 -253.5 -52s-149.166 -81.167 -206.499 -139.5s-102.833 -127.666 -136.5 -207.999s-50.5 -164.833 -50.5 -253.5s16.833 -173.334 50.5 -254.001s79.167 -150.167 136.5 -208.5
s126.166 -104.833 206.499 -139.5s164.833 -52 253.5 -52zM837 -46c-102 0 -199.5 20 -292.5 60s-173.167 93.667 -240.5 161s-121 147.666 -161 240.999s-60 190.666 -60 291.999c0 102 20 199.5 60 292.5s93.667 173.333 161 241s147.5 121.5 240.5 161.5
s190.5 60 292.5 60s199.5 -20 292.5 -60s173.167 -93.833 240.5 -161.5s121 -148 161 -241s60 -190.5 60 -292.5c0 -101.333 -20 -198.666 -60 -291.999s-93.667 -173.666 -161 -240.999s-147.5 -121 -240.5 -161s-190.5 -60 -292.5 -60z" />
    <glyph glyph-name="uni2467" unicode="&#x38;&#x20dd;" 
d="M838 444c47.333 0 86.166 12.333 116.499 37s45.5 56.334 45.5 95.001c0 38 -15.167 69.167 -45.5 93.5s-69.166 36.5 -116.499 36.5s-86.5 -12.333 -117.5 -37s-46.5 -55.667 -46.5 -93c0 -38.667 15.5 -70.334 46.5 -95.001s70.167 -37 117.5 -37zM838 778
c39.333 0 71.833 10.833 97.5 32.5s38.5 49.5 38.5 83.5c0 33.333 -12.667 60.666 -38 81.999s-58 32 -98 32s-72.833 -10.667 -98.5 -32s-38.5 -48.666 -38.5 -81.999c0 -34 12.833 -61.833 38.5 -83.5s58.5 -32.5 98.5 -32.5zM836 368c-78 0 -141.332 18.667 -189.999 56
s-73 86.333 -73 147c0 42 14 79 42 111s64 52.333 108 61v5c-37.333 11.333 -67 30.833 -89 58.5s-33 59.5 -33 95.5c0 52.667 22.167 96.167 66.5 130.5s101.166 51.5 170.499 51.5c68.667 0 125.167 -17.167 169.5 -51.5s66.5 -77.833 66.5 -130.5
c0 -36 -11.167 -68 -33.5 -96s-51.833 -47.333 -88.5 -58v-5c44 -8.66699 80 -29 108 -61s42 -69 42 -111c0 -60 -24.667 -108.833 -74 -146.5s-113.333 -56.5 -192 -56.5zM837.001 54c88.667 0 173.167 17.333 253.5 52s149.166 81.167 206.499 139.5
s102.833 127.833 136.5 208.5s50.5 165.334 50.5 254.001s-16.833 173.167 -50.5 253.5s-79.167 149.666 -136.5 207.999s-126.166 104.833 -206.499 139.5s-164.833 52 -253.5 52s-173.167 -17.333 -253.5 -52s-149.166 -81.167 -206.499 -139.5
s-102.833 -127.666 -136.5 -207.999s-50.5 -164.833 -50.5 -253.5s16.833 -173.334 50.5 -254.001s79.167 -150.167 136.5 -208.5s126.166 -104.833 206.499 -139.5s164.833 -52 253.5 -52zM837.001 -46c-102 0 -199.5 20 -292.5 60s-173.167 93.667 -240.5 161
s-121 147.666 -161 240.999s-60 190.666 -60 291.999c0 102 20 199.5 60 292.5s93.667 173.333 161 241s147.5 121.5 240.5 161.5s190.5 60 292.5 60s199.5 -20 292.5 -60s173.167 -93.833 240.5 -161.5s121 -148 161 -241s60 -190.5 60 -292.5
c0 -101.333 -20 -198.666 -60 -291.999s-93.667 -173.666 -161 -240.999s-147.5 -121 -240.5 -161s-190.5 -60 -292.5 -60z" />
    <glyph glyph-name="uni2468" unicode="&#x39;&#x20dd;" 
d="M583 850c0 70.667 24 127.167 72 169.5s109 63.5 183 63.5c78.667 0 142.5 -26.5 191.5 -79.5s73.5 -138.167 73.5 -255.5c0 -124.667 -23.5 -219 -70.5 -283s-116.167 -96 -207.5 -96c-62.667 0 -114.167 15.167 -154.5 45.5s-63.5 66.833 -69.5 109.5h99
c6 -20.667 20.667 -38.334 44 -53.001s51 -22 83 -22c60 0 105.167 25.833 135.5 77.5s44.5 120.167 42.5 205.5h-5c-14 -32.667 -37.167 -59.167 -69.5 -79.5s-71.833 -30.5 -118.5 -30.5c-64.667 0 -119 20.833 -163 62.5s-66 96.834 -66 165.501zM988 850
c0 46 -14.5 83.167 -43.5 111.5s-65.833 42.5 -110.5 42.5c-43.333 0 -79.333 -14 -108 -42s-43 -64.667 -43 -110c0 -46.667 14.333 -83.667 43 -111s65 -41 109 -41s80.5 13.5 109.5 40.5s43.5 63.5 43.5 109.5zM837 54c88.667 0 173.167 17.333 253.5 52
s149.166 81.167 206.499 139.5s102.833 127.833 136.5 208.5s50.5 165.334 50.5 254.001s-16.833 173.167 -50.5 253.5s-79.167 149.666 -136.5 207.999s-126.166 104.833 -206.499 139.5s-164.833 52 -253.5 52s-173.167 -17.333 -253.5 -52
s-149.166 -81.167 -206.499 -139.5s-102.833 -127.666 -136.5 -207.999s-50.5 -164.833 -50.5 -253.5s16.833 -173.334 50.5 -254.001s79.167 -150.167 136.5 -208.5s126.166 -104.833 206.499 -139.5s164.833 -52 253.5 -52zM837 -46c-102 0 -199.5 20 -292.5 60
s-173.167 93.667 -240.5 161s-121 147.666 -161 240.999s-60 190.666 -60 291.999c0 102 20 199.5 60 292.5s93.667 173.333 161 241s147.5 121.5 240.5 161.5s190.5 60 292.5 60s199.5 -20 292.5 -60s173.167 -93.833 240.5 -161.5s121 -148 161 -241s60 -190.5 60 -292.5
c0 -101.333 -20 -198.666 -60 -291.999s-93.667 -173.666 -161 -240.999s-147.5 -121 -240.5 -161s-190.5 -60 -292.5 -60z" />
    <glyph glyph-name="uni24B6" unicode="A&#x20dd;" 
d="M725 673h225l-109 312h-8zM631 398h-104l251 688h118l251 -688h-104l-69 199h-273zM837 54c88.667 0 173.167 17.333 253.5 52s149.166 81.167 206.499 139.5s102.833 127.833 136.5 208.5s50.5 165.334 50.5 254.001s-16.833 173.167 -50.5 253.5
s-79.167 149.666 -136.5 207.999s-126.166 104.833 -206.499 139.5s-164.833 52 -253.5 52s-173.167 -17.333 -253.5 -52s-149.166 -81.167 -206.499 -139.5s-102.833 -127.666 -136.5 -207.999s-50.5 -164.833 -50.5 -253.5s16.833 -173.334 50.5 -254.001
s79.167 -150.167 136.5 -208.5s126.166 -104.833 206.499 -139.5s164.833 -52 253.5 -52zM837 -46c-102 0 -199.5 20 -292.5 60s-173.167 93.667 -240.5 161s-121 147.666 -161 240.999s-60 190.666 -60 291.999c0 102 20 199.5 60 292.5s93.667 173.333 161 241
s147.5 121.5 240.5 161.5s190.5 60 292.5 60s199.5 -20 292.5 -60s173.167 -93.833 240.5 -161.5s121 -148 161 -241s60 -190.5 60 -292.5c0 -101.333 -20 -198.666 -60 -291.999s-93.667 -173.666 -161 -240.999s-147.5 -121 -240.5 -161s-190.5 -60 -292.5 -60z" />
    <glyph glyph-name="uni24B7" unicode="B&#x20dd;" 
d="M607 381l0.000976562 689.001h277c62.667 0 112.667 -15.667 150 -47s56 -72.333 56 -123c0 -40 -10.833 -73.333 -32.5 -100s-50.167 -44.334 -85.5 -53.001v-4c46.667 -6 84.5 -23.833 113.5 -53.5s43.5 -68.5 43.5 -116.5c0 -60 -22.333 -107 -67 -141
s-104.334 -51 -179.001 -51h-276zM708.001 991.001l-0.000976562 -219.001h125c50.667 0 89.334 9.83301 116.001 29.5s40 46.834 40 81.501c0 34 -11.167 60.5 -33.5 79.5s-53.5 28.5 -93.5 28.5h-154zM708 698l0.000976562 -237.999h134c62.667 0 108.667 9.66699 138 29
s44 48.666 44 87.999c0 38 -12.833 67.667 -38.5 89s-61.834 32 -108.501 32h-169zM837.001 54.001c88.667 0 173.167 17.333 253.5 52s149.166 81.167 206.499 139.5s102.833 127.833 136.5 208.5s50.5 165.334 50.5 254.001s-16.833 173.167 -50.5 253.5
s-79.167 149.666 -136.5 207.999s-126.166 104.833 -206.499 139.5s-164.833 52 -253.5 52s-173.167 -17.333 -253.5 -52s-149.166 -81.167 -206.499 -139.5s-102.833 -127.666 -136.5 -207.999s-50.5 -164.833 -50.5 -253.5s16.833 -173.334 50.5 -254.001
s79.167 -150.167 136.5 -208.5s126.166 -104.833 206.499 -139.5s164.833 -52 253.5 -52zM837.001 -45.999c-102 0 -199.5 20 -292.5 60s-173.167 93.667 -240.5 161s-121 147.666 -161 240.999s-60 190.666 -60 291.999c0 102 20 199.5 60 292.5s93.667 173.333 161 241
s147.5 121.5 240.5 161.5s190.5 60 292.5 60s199.5 -20 292.5 -60s173.167 -93.833 240.5 -161.5s121 -148 161 -241s60 -190.5 60 -292.5c0 -101.333 -20 -198.666 -60 -291.999s-93.667 -173.666 -161 -240.999s-147.5 -121 -240.5 -161s-190.5 -60 -292.5 -60z" />
    <glyph glyph-name="uni24B8" unicode="C&#x20dd;" 
d="M1025 588h104c-9.33301 -67.333 -40.5 -121.5 -93.5 -162.5s-118.833 -61.5 -197.5 -61.5c-94.667 0 -171 33 -229 99s-87 152.333 -87 259s29 193 87 259s134.333 99 229 99c80 0 146.833 -21.5 200.5 -64.5s84.167 -99.167 91.5 -168.5h-102
c-5.33301 43.333 -25.5 79 -60.5 107s-77.5 42 -127.5 42c-64 0 -115.833 -25.333 -155.5 -76s-59.5 -116.667 -59.5 -198c0 -82 19.833 -148.167 59.5 -198.5s91.5 -75.5 155.5 -75.5c49.333 0 91 13.167 125 39.5s54 59.833 60 100.5zM837 54
c88.667 0 173.167 17.333 253.5 52s149.166 81.167 206.499 139.5s102.833 127.833 136.5 208.5s50.5 165.334 50.5 254.001s-16.833 173.167 -50.5 253.5s-79.167 149.666 -136.5 207.999s-126.166 104.833 -206.499 139.5s-164.833 52 -253.5 52
s-173.167 -17.333 -253.5 -52s-149.166 -81.167 -206.499 -139.5s-102.833 -127.666 -136.5 -207.999s-50.5 -164.833 -50.5 -253.5s16.833 -173.334 50.5 -254.001s79.167 -150.167 136.5 -208.5s126.166 -104.833 206.499 -139.5s164.833 -52 253.5 -52zM837 -46
c-102 0 -199.5 20 -292.5 60s-173.167 93.667 -240.5 161s-121 147.666 -161 240.999s-60 190.666 -60 291.999c0 102 20 199.5 60 292.5s93.667 173.333 161 241s147.5 121.5 240.5 161.5s190.5 60 292.5 60s199.5 -20 292.5 -60s173.167 -93.833 240.5 -161.5
s121 -148 161 -241s60 -190.5 60 -292.5c0 -101.333 -20 -198.666 -60 -291.999s-93.667 -173.666 -161 -240.999s-147.5 -121 -240.5 -161s-190.5 -60 -292.5 -60z" />
    <glyph glyph-name="uni24B9" unicode="D&#x20dd;" 
d="M603 1062h238c103.333 0 182 -29.333 236 -88s81 -142 81 -250c0 -110 -27 -194.5 -81 -253.5s-132.667 -88.5 -236 -88.5h-238v680zM706 980l0.000976562 -515h123c148 0 222 85.667 222 257c0 84 -18.833 148 -56.5 192s-92.834 66 -165.501 66h-123zM837.001 54
c88.667 0 173.167 17.333 253.5 52s149.166 81.167 206.499 139.5s102.833 127.833 136.5 208.5s50.5 165.334 50.5 254.001s-16.833 173.167 -50.5 253.5s-79.167 149.666 -136.5 207.999s-126.166 104.833 -206.499 139.5s-164.833 52 -253.5 52
s-173.167 -17.333 -253.5 -52s-149.166 -81.167 -206.499 -139.5s-102.833 -127.666 -136.5 -207.999s-50.5 -164.833 -50.5 -253.5s16.833 -173.334 50.5 -254.001s79.167 -150.167 136.5 -208.5s126.166 -104.833 206.499 -139.5s164.833 -52 253.5 -52zM837.001 -46
c-102 0 -199.5 20 -292.5 60s-173.167 93.667 -240.5 161s-121 147.666 -161 240.999s-60 190.666 -60 291.999c0 102 20 199.5 60 292.5s93.667 173.333 161 241s147.5 121.5 240.5 161.5s190.5 60 292.5 60s199.5 -20 292.5 -60s173.167 -93.833 240.5 -161.5
s121 -148 161 -241s60 -190.5 60 -292.5c0 -101.333 -20 -198.666 -60 -291.999s-93.667 -173.666 -161 -240.999s-147.5 -121 -240.5 -161s-190.5 -60 -292.5 -60z" />
    <glyph glyph-name="uni24BA" unicode="E&#x20dd;" 
d="M1064 461v-83h-445v688h445v-82h-343v-216h324v-80h-324v-227h343zM837 54c88.667 0 173.167 17.333 253.5 52s149.166 81.167 206.499 139.5s102.833 127.833 136.5 208.5s50.5 165.334 50.5 254.001s-16.833 173.167 -50.5 253.5s-79.167 149.666 -136.5 207.999
s-126.166 104.833 -206.499 139.5s-164.833 52 -253.5 52s-173.167 -17.333 -253.5 -52s-149.166 -81.167 -206.499 -139.5s-102.833 -127.666 -136.5 -207.999s-50.5 -164.833 -50.5 -253.5s16.833 -173.334 50.5 -254.001s79.167 -150.167 136.5 -208.5
s126.166 -104.833 206.499 -139.5s164.833 -52 253.5 -52zM837 -46c-102 0 -199.5 20 -292.5 60s-173.167 93.667 -240.5 161s-121 147.666 -161 240.999s-60 190.666 -60 291.999c0 102 20 199.5 60 292.5s93.667 173.333 161 241s147.5 121.5 240.5 161.5
s190.5 60 292.5 60s199.5 -20 292.5 -60s173.167 -93.833 240.5 -161.5s121 -148 161 -241s60 -190.5 60 -292.5c0 -101.333 -20 -198.666 -60 -291.999s-93.667 -173.666 -161 -240.999s-147.5 -121 -240.5 -161s-190.5 -60 -292.5 -60z" />
    <glyph glyph-name="uni24BB" unicode="F&#x20dd;" 
d="M750 378h-103v688h439v-83h-336v-229h308v-82h-308v-294zM837 54c88.667 0 173.167 17.333 253.5 52s149.166 81.167 206.499 139.5s102.833 127.833 136.5 208.5s50.5 165.334 50.5 254.001s-16.833 173.167 -50.5 253.5s-79.167 149.666 -136.5 207.999
s-126.166 104.833 -206.499 139.5s-164.833 52 -253.5 52s-173.167 -17.333 -253.5 -52s-149.166 -81.167 -206.499 -139.5s-102.833 -127.666 -136.5 -207.999s-50.5 -164.833 -50.5 -253.5s16.833 -173.334 50.5 -254.001s79.167 -150.167 136.5 -208.5
s126.166 -104.833 206.499 -139.5s164.833 -52 253.5 -52zM837 -46c-102 0 -199.5 20 -292.5 60s-173.167 93.667 -240.5 161s-121 147.666 -161 240.999s-60 190.666 -60 291.999c0 102 20 199.5 60 292.5s93.667 173.333 161 241s147.5 121.5 240.5 161.5
s190.5 60 292.5 60s199.5 -20 292.5 -60s173.167 -93.833 240.5 -161.5s121 -148 161 -241s60 -190.5 60 -292.5c0 -101.333 -20 -198.666 -60 -291.999s-93.667 -173.666 -161 -240.999s-147.5 -121 -240.5 -161s-190.5 -60 -292.5 -60z" />
    <glyph glyph-name="uni24BC" unicode="G&#x20dd;" 
d="M1027 608l-0.000976562 51h-182v77h280v-107c0 -80 -25 -144.167 -75 -192.5s-120 -72.5 -210 -72.5c-94.667 0 -171.334 33 -230.001 99s-88 152.333 -88 259s29.333 193 88 259s135.334 99 230.001 99c78 0 143.333 -20.5 196 -61.5s83.667 -94.833 93 -161.5h-102
c-6.66699 40.667 -27.167 74 -61.5 100s-75.833 39 -124.5 39c-64.667 0 -116.834 -25.167 -156.501 -75.5s-59.5 -116.5 -59.5 -198.5s19.833 -148.167 59.5 -198.5s91.834 -75.5 156.501 -75.5c58.667 0 104.334 14.333 137.001 43s49 67.667 49 117zM836.999 54
c88.667 0 173.167 17.333 253.5 52s149.166 81.167 206.499 139.5s102.833 127.833 136.5 208.5s50.5 165.334 50.5 254.001s-16.833 173.167 -50.5 253.5s-79.167 149.666 -136.5 207.999s-126.166 104.833 -206.499 139.5s-164.833 52 -253.5 52
s-173.167 -17.333 -253.5 -52s-149.166 -81.167 -206.499 -139.5s-102.833 -127.666 -136.5 -207.999s-50.5 -164.833 -50.5 -253.5s16.833 -173.334 50.5 -254.001s79.167 -150.167 136.5 -208.5s126.166 -104.833 206.499 -139.5s164.833 -52 253.5 -52zM836.999 -46
c-102 0 -199.5 20 -292.5 60s-173.167 93.667 -240.5 161s-121 147.666 -161 240.999s-60 190.666 -60 291.999c0 102 20 199.5 60 292.5s93.667 173.333 161 241s147.5 121.5 240.5 161.5s190.5 60 292.5 60s199.5 -20 292.5 -60s173.167 -93.833 240.5 -161.5
s121 -148 161 -241s60 -190.5 60 -292.5c0 -101.333 -20 -198.666 -60 -291.999s-93.667 -173.666 -161 -240.999s-147.5 -121 -240.5 -161s-190.5 -60 -292.5 -60z" />
    <glyph glyph-name="uni24BD" unicode="H&#x20dd;" 
d="M1117 378h-102v313h-355v-313h-103v688h103v-292h355v292h102v-688zM837 54c88.667 0 173.167 17.333 253.5 52s149.166 81.167 206.499 139.5s102.833 127.833 136.5 208.5s50.5 165.334 50.5 254.001s-16.833 173.167 -50.5 253.5s-79.167 149.666 -136.5 207.999
s-126.166 104.833 -206.499 139.5s-164.833 52 -253.5 52s-173.167 -17.333 -253.5 -52s-149.166 -81.167 -206.499 -139.5s-102.833 -127.666 -136.5 -207.999s-50.5 -164.833 -50.5 -253.5s16.833 -173.334 50.5 -254.001s79.167 -150.167 136.5 -208.5
s126.166 -104.833 206.499 -139.5s164.833 -52 253.5 -52zM837 -46c-102 0 -199.5 20 -292.5 60s-173.167 93.667 -240.5 161s-121 147.666 -161 240.999s-60 190.666 -60 291.999c0 102 20 199.5 60 292.5s93.667 173.333 161 241s147.5 121.5 240.5 161.5
s190.5 60 292.5 60s199.5 -20 292.5 -60s173.167 -93.833 240.5 -161.5s121 -148 161 -241s60 -190.5 60 -292.5c0 -101.333 -20 -198.666 -60 -291.999s-93.667 -173.666 -161 -240.999s-147.5 -121 -240.5 -161s-190.5 -60 -292.5 -60z" />
    <glyph glyph-name="uni24BE" unicode="I&#x20dd;" 
d="M889 378h-104v688h104v-688zM837 54c88.667 0 173.167 17.333 253.5 52s149.166 81.167 206.499 139.5s102.833 127.833 136.5 208.5s50.5 165.334 50.5 254.001s-16.833 173.167 -50.5 253.5s-79.167 149.666 -136.5 207.999s-126.166 104.833 -206.499 139.5
s-164.833 52 -253.5 52s-173.167 -17.333 -253.5 -52s-149.166 -81.167 -206.499 -139.5s-102.833 -127.666 -136.5 -207.999s-50.5 -164.833 -50.5 -253.5s16.833 -173.334 50.5 -254.001s79.167 -150.167 136.5 -208.5s126.166 -104.833 206.499 -139.5
s164.833 -52 253.5 -52zM837 -46c-102 0 -199.5 20 -292.5 60s-173.167 93.667 -240.5 161s-121 147.666 -161 240.999s-60 190.666 -60 291.999c0 102 20 199.5 60 292.5s93.667 173.333 161 241s147.5 121.5 240.5 161.5s190.5 60 292.5 60s199.5 -20 292.5 -60
s173.167 -93.833 240.5 -161.5s121 -148 161 -241s60 -190.5 60 -292.5c0 -101.333 -20 -198.666 -60 -291.999s-93.667 -173.666 -161 -240.999s-147.5 -121 -240.5 -161s-190.5 -60 -292.5 -60z" />
    <glyph glyph-name="uni24BF" unicode="J&#x20dd;" 
d="M587 557l99.999 0.00195312c0.666992 -30.667 11.834 -55.667 33.501 -75s49.5 -29 83.5 -29c38 0 67.167 11.333 87.5 34s30.5 54 30.5 94v485h102v-482c0 -68.667 -19.667 -122.334 -59 -161.001s-93 -58 -161 -58c-66 0 -118.5 18.167 -157.5 54.5
s-58.833 82.166 -59.5 137.499zM836.999 54.002c88.667 0 173.167 17.333 253.5 52s149.166 81.167 206.499 139.5s102.833 127.833 136.5 208.5s50.5 165.334 50.5 254.001s-16.833 173.167 -50.5 253.5s-79.167 149.666 -136.5 207.999s-126.166 104.833 -206.499 139.5
s-164.833 52 -253.5 52s-173.167 -17.333 -253.5 -52s-149.166 -81.167 -206.499 -139.5s-102.833 -127.666 -136.5 -207.999s-50.5 -164.833 -50.5 -253.5s16.833 -173.334 50.5 -254.001s79.167 -150.167 136.5 -208.5s126.166 -104.833 206.499 -139.5
s164.833 -52 253.5 -52zM836.999 -45.998c-102 0 -199.5 20 -292.5 60s-173.167 93.667 -240.5 161s-121 147.666 -161 240.999s-60 190.666 -60 291.999c0 102 20 199.5 60 292.5s93.667 173.333 161 241s147.5 121.5 240.5 161.5s190.5 60 292.5 60s199.5 -20 292.5 -60
s173.167 -93.833 240.5 -161.5s121 -148 161 -241s60 -190.5 60 -292.5c0 -101.333 -20 -198.666 -60 -291.999s-93.667 -173.666 -161 -240.999s-147.5 -121 -240.5 -161s-190.5 -60 -292.5 -60z" />
    <glyph glyph-name="uni24C0" unicode="K&#x20dd;" 
d="M1127 1066l-270 -294l285 -394h-127l-234 326l-87 -91v-235h-102v688h102v-332h5l310 332h118zM837 54c88.667 0 173.167 17.333 253.5 52s149.166 81.167 206.499 139.5s102.833 127.833 136.5 208.5s50.5 165.334 50.5 254.001s-16.833 173.167 -50.5 253.5
s-79.167 149.666 -136.5 207.999s-126.166 104.833 -206.499 139.5s-164.833 52 -253.5 52s-173.167 -17.333 -253.5 -52s-149.166 -81.167 -206.499 -139.5s-102.833 -127.666 -136.5 -207.999s-50.5 -164.833 -50.5 -253.5s16.833 -173.334 50.5 -254.001
s79.167 -150.167 136.5 -208.5s126.166 -104.833 206.499 -139.5s164.833 -52 253.5 -52zM837 -46c-102 0 -199.5 20 -292.5 60s-173.167 93.667 -240.5 161s-121 147.666 -161 240.999s-60 190.666 -60 291.999c0 102 20 199.5 60 292.5s93.667 173.333 161 241
s147.5 121.5 240.5 161.5s190.5 60 292.5 60s199.5 -20 292.5 -60s173.167 -93.833 240.5 -161.5s121 -148 161 -241s60 -190.5 60 -292.5c0 -101.333 -20 -198.666 -60 -291.999s-93.667 -173.666 -161 -240.999s-147.5 -121 -240.5 -161s-190.5 -60 -292.5 -60z" />
    <glyph glyph-name="uni24C1" unicode="L&#x20dd;" 
d="M1093 463v-85h-433v688h103v-603h330zM837 54c88.667 0 173.167 17.333 253.5 52s149.166 81.167 206.499 139.5s102.833 127.833 136.5 208.5s50.5 165.334 50.5 254.001s-16.833 173.167 -50.5 253.5s-79.167 149.666 -136.5 207.999s-126.166 104.833 -206.499 139.5
s-164.833 52 -253.5 52s-173.167 -17.333 -253.5 -52s-149.166 -81.167 -206.499 -139.5s-102.833 -127.666 -136.5 -207.999s-50.5 -164.833 -50.5 -253.5s16.833 -173.334 50.5 -254.001s79.167 -150.167 136.5 -208.5s126.166 -104.833 206.499 -139.5
s164.833 -52 253.5 -52zM837 -46c-102 0 -199.5 20 -292.5 60s-173.167 93.667 -240.5 161s-121 147.666 -161 240.999s-60 190.666 -60 291.999c0 102 20 199.5 60 292.5s93.667 173.333 161 241s147.5 121.5 240.5 161.5s190.5 60 292.5 60s199.5 -20 292.5 -60
s173.167 -93.833 240.5 -161.5s121 -148 161 -241s60 -190.5 60 -292.5c0 -101.333 -20 -198.666 -60 -291.999s-93.667 -173.666 -161 -240.999s-147.5 -121 -240.5 -161s-190.5 -60 -292.5 -60z" />
    <glyph glyph-name="uni24C2" unicode="M&#x20dd;" 
d="M591 378h-92v688h109l228 -564h4l227 564h108v-688h-92v521h-6l-201 -507h-78l-201 507h-6v-521zM837 54c88.667 0 173.167 17.333 253.5 52s149.166 81.167 206.499 139.5s102.833 127.833 136.5 208.5s50.5 165.334 50.5 254.001s-16.833 173.167 -50.5 253.5
s-79.167 149.666 -136.5 207.999s-126.166 104.833 -206.499 139.5s-164.833 52 -253.5 52s-173.167 -17.333 -253.5 -52s-149.166 -81.167 -206.499 -139.5s-102.833 -127.666 -136.5 -207.999s-50.5 -164.833 -50.5 -253.5s16.833 -173.334 50.5 -254.001
s79.167 -150.167 136.5 -208.5s126.166 -104.833 206.499 -139.5s164.833 -52 253.5 -52zM837 -46c-102 0 -199.5 20 -292.5 60s-173.167 93.667 -240.5 161s-121 147.666 -161 240.999s-60 190.666 -60 291.999c0 102 20 199.5 60 292.5s93.667 173.333 161 241
s147.5 121.5 240.5 161.5s190.5 60 292.5 60s199.5 -20 292.5 -60s173.167 -93.833 240.5 -161.5s121 -148 161 -241s60 -190.5 60 -292.5c0 -101.333 -20 -198.666 -60 -291.999s-93.667 -173.666 -161 -240.999s-147.5 -121 -240.5 -161s-190.5 -60 -292.5 -60z" />
    <glyph glyph-name="uni24C3" unicode="N&#x20dd;" 
d="M658 378h-98v688h95l356 -527h5v527h98v-688h-95l-356 529h-5v-529zM837 54c88.667 0 173.167 17.333 253.5 52s149.166 81.167 206.499 139.5s102.833 127.833 136.5 208.5s50.5 165.334 50.5 254.001s-16.833 173.167 -50.5 253.5s-79.167 149.666 -136.5 207.999
s-126.166 104.833 -206.499 139.5s-164.833 52 -253.5 52s-173.167 -17.333 -253.5 -52s-149.166 -81.167 -206.499 -139.5s-102.833 -127.666 -136.5 -207.999s-50.5 -164.833 -50.5 -253.5s16.833 -173.334 50.5 -254.001s79.167 -150.167 136.5 -208.5
s126.166 -104.833 206.499 -139.5s164.833 -52 253.5 -52zM837 -46c-102 0 -199.5 20 -292.5 60s-173.167 93.667 -240.5 161s-121 147.666 -161 240.999s-60 190.666 -60 291.999c0 102 20 199.5 60 292.5s93.667 173.333 161 241s147.5 121.5 240.5 161.5
s190.5 60 292.5 60s199.5 -20 292.5 -60s173.167 -93.833 240.5 -161.5s121 -148 161 -241s60 -190.5 60 -292.5c0 -101.333 -20 -198.666 -60 -291.999s-93.667 -173.666 -161 -240.999s-147.5 -121 -240.5 -161s-190.5 -60 -292.5 -60z" />
    <glyph glyph-name="uni24C4" unicode="O&#x20dd;" 
d="M837 448c64 0 116.167 24.667 156.5 74s60.5 116 60.5 200s-20.167 150.667 -60.5 200s-92.5 74 -156.5 74s-116.333 -24.667 -157 -74s-61 -116 -61 -200s20.333 -150.667 61 -200s93 -74 157 -74zM837 364c-93.333 0 -170.166 32.167 -230.499 96.5
s-90.5 151.5 -90.5 261.5s30.167 197.167 90.5 261.5s137.166 96.5 230.499 96.5s170.166 -32.333 230.499 -97s90.5 -151.667 90.5 -261s-30.167 -196.333 -90.5 -261s-137.166 -97 -230.499 -97zM837 54c88.667 0 173.167 17.333 253.5 52s149.166 81.167 206.499 139.5
s102.833 127.833 136.5 208.5s50.5 165.334 50.5 254.001s-16.833 173.167 -50.5 253.5s-79.167 149.666 -136.5 207.999s-126.166 104.833 -206.499 139.5s-164.833 52 -253.5 52s-173.167 -17.333 -253.5 -52s-149.166 -81.167 -206.499 -139.5
s-102.833 -127.666 -136.5 -207.999s-50.5 -164.833 -50.5 -253.5s16.833 -173.334 50.5 -254.001s79.167 -150.167 136.5 -208.5s126.166 -104.833 206.499 -139.5s164.833 -52 253.5 -52zM837 -46c-102 0 -199.5 20 -292.5 60s-173.167 93.667 -240.5 161
s-121 147.666 -161 240.999s-60 190.666 -60 291.999c0 102 20 199.5 60 292.5s93.667 173.333 161 241s147.5 121.5 240.5 161.5s190.5 60 292.5 60s199.5 -20 292.5 -60s173.167 -93.833 240.5 -161.5s121 -148 161 -241s60 -190.5 60 -292.5
c0 -101.333 -20 -198.666 -60 -291.999s-93.667 -173.666 -161 -240.999s-147.5 -121 -240.5 -161s-190.5 -60 -292.5 -60z" />
    <glyph glyph-name="uni24C5" unicode="P&#x20dd;" 
d="M893 1066c70 0 126.167 -20.499 168.5 -61.499s63.5 -93.5 63.5 -157.5c0 -64.667 -21 -117.334 -63 -158.001s-98.333 -61 -169 -61h-165v-250h-102v688h267zM1020 847.001c0 42.667 -12.667 76.332 -38 100.999s-59.666 37 -102.999 37h-151v-276h151
c43.333 0 77.666 12.333 102.999 37s38 58.334 38 101.001zM837 53.999c88.667 0 173.167 17.333 253.5 52s149.166 81.167 206.499 139.5s102.833 127.833 136.5 208.5s50.5 165.334 50.5 254.001s-16.833 173.167 -50.5 253.5s-79.167 149.666 -136.5 207.999
s-126.166 104.833 -206.499 139.5s-164.833 52 -253.5 52s-173.167 -17.333 -253.5 -52s-149.166 -81.167 -206.499 -139.5s-102.833 -127.666 -136.5 -207.999s-50.5 -164.833 -50.5 -253.5s16.833 -173.334 50.5 -254.001s79.167 -150.167 136.5 -208.5
s126.166 -104.833 206.499 -139.5s164.833 -52 253.5 -52zM837 -46.001c-102 0 -199.5 20 -292.5 60s-173.167 93.667 -240.5 161s-121 147.666 -161 240.999s-60 190.666 -60 291.999c0 102 20 199.5 60 292.5s93.667 173.333 161 241s147.5 121.5 240.5 161.5
s190.5 60 292.5 60s199.5 -20 292.5 -60s173.167 -93.833 240.5 -161.5s121 -148 161 -241s60 -190.5 60 -292.5c0 -101.333 -20 -198.666 -60 -291.999s-93.667 -173.666 -161 -240.999s-147.5 -121 -240.5 -161s-190.5 -60 -292.5 -60z" />
    <glyph glyph-name="uni24C6" unicode="Q&#x20dd;" 
d="M1122 303h-101.999l-62 84c-36.667 -15.333 -77 -23 -121 -23c-93.333 0 -170.166 32.167 -230.499 96.5s-90.5 151.5 -90.5 261.5s30.167 197.167 90.5 261.5s137.166 96.5 230.499 96.5s170.166 -32.333 230.499 -97s90.5 -151.667 90.5 -261
c0 -130.667 -42.333 -229 -127 -295zM837.001 448c25.333 0 48 4 68 12l-88 122h101l57 -78c52.667 49.333 79 122 79 218c0 84 -20.167 150.667 -60.5 200s-92.5 74 -156.5 74s-116.333 -24.667 -157 -74s-61 -116 -61 -200s20.333 -150.667 61 -200s93 -74 157 -74z
M837.001 54c88.667 0 173.167 17.333 253.5 52s149.166 81.167 206.499 139.5s102.833 127.833 136.5 208.5s50.5 165.334 50.5 254.001s-16.833 173.167 -50.5 253.5s-79.167 149.666 -136.5 207.999s-126.166 104.833 -206.499 139.5s-164.833 52 -253.5 52
s-173.167 -17.333 -253.5 -52s-149.166 -81.167 -206.499 -139.5s-102.833 -127.666 -136.5 -207.999s-50.5 -164.833 -50.5 -253.5s16.833 -173.334 50.5 -254.001s79.167 -150.167 136.5 -208.5s126.166 -104.833 206.499 -139.5s164.833 -52 253.5 -52zM837.001 -46
c-102 0 -199.5 20 -292.5 60s-173.167 93.667 -240.5 161s-121 147.666 -161 240.999s-60 190.666 -60 291.999c0 102 20 199.5 60 292.5s93.667 173.333 161 241s147.5 121.5 240.5 161.5s190.5 60 292.5 60s199.5 -20 292.5 -60s173.167 -93.833 240.5 -161.5
s121 -148 161 -241s60 -190.5 60 -292.5c0 -101.333 -20 -198.666 -60 -291.999s-93.667 -173.666 -161 -240.999s-147.5 -121 -240.5 -161s-190.5 -60 -292.5 -60z" />
    <glyph glyph-name="uni24C7" unicode="R&#x20dd;" 
d="M866 1066c72.667 0 130.333 -19.168 173 -57.501s64 -89.166 64 -152.499c0 -48 -13.333 -89.167 -40 -123.5s-60.667 -57.833 -102 -70.5l153 -284h-115l-140 269h-159v-269h-101v688h267zM699.999 724.999h151c45.333 0 81 11.333 107 34s39 54 39 94
c0 41.333 -13 73.833 -39 97.5s-60.667 35.5 -104 35.5h-154v-261zM836.999 53.999c88.667 0 173.167 17.333 253.5 52s149.166 81.167 206.499 139.5s102.833 127.833 136.5 208.5s50.5 165.334 50.5 254.001s-16.833 173.167 -50.5 253.5s-79.167 149.666 -136.5 207.999
s-126.166 104.833 -206.499 139.5s-164.833 52 -253.5 52s-173.167 -17.333 -253.5 -52s-149.166 -81.167 -206.499 -139.5s-102.833 -127.666 -136.5 -207.999s-50.5 -164.833 -50.5 -253.5s16.833 -173.334 50.5 -254.001s79.167 -150.167 136.5 -208.5
s126.166 -104.833 206.499 -139.5s164.833 -52 253.5 -52zM836.999 -46.001c-102 0 -199.5 20 -292.5 60s-173.167 93.667 -240.5 161s-121 147.666 -161 240.999s-60 190.666 -60 291.999c0 102 20 199.5 60 292.5s93.667 173.333 161 241s147.5 121.5 240.5 161.5
s190.5 60 292.5 60s199.5 -20 292.5 -60s173.167 -93.833 240.5 -161.5s121 -148 161 -241s60 -190.5 60 -292.5c0 -101.333 -20 -198.666 -60 -291.999s-93.667 -173.666 -161 -240.999s-147.5 -121 -240.5 -161s-190.5 -60 -292.5 -60z" />
    <glyph glyph-name="uni24C8" unicode="S&#x20dd;" 
d="M564 567l101 -0.000976562c3.33301 -35.333 21.333 -64.5 54 -87.5s72.667 -34.5 120 -34.5c48 0 87.5 11.167 118.5 33.5s46.5 50.5 46.5 84.5c0 52 -43.333 88.667 -130 110l-115 26c-116.667 28.667 -175 89.334 -175 182.001c0 59.333 23.833 107.5 71.5 144.5
s109.167 55.5 184.5 55.5c74.667 0 135.667 -18 183 -54s71.333 -83.333 72 -142h-98c-3.33301 33.333 -19.833 61 -49.5 83s-65.834 33 -108.501 33s-78.667 -11 -108 -33s-44 -49.333 -44 -82c0 -23.333 10 -43.833 30 -61.5s47.667 -30.5 83 -38.5l114 -26
c67.333 -16 116 -38.833 146 -68.5s45 -69.5 45 -119.5c0 -63.333 -24.667 -113.833 -74 -151.5s-115.666 -56.5 -198.999 -56.5c-79.333 0 -143.333 18.5 -192 55.5s-74 86.167 -76 147.5zM837 53.999c88.667 0 173.167 17.333 253.5 52s149.166 81.167 206.499 139.5
s102.833 127.833 136.5 208.5s50.5 165.334 50.5 254.001s-16.833 173.167 -50.5 253.5s-79.167 149.666 -136.5 207.999s-126.166 104.833 -206.499 139.5s-164.833 52 -253.5 52s-173.167 -17.333 -253.5 -52s-149.166 -81.167 -206.499 -139.5
s-102.833 -127.666 -136.5 -207.999s-50.5 -164.833 -50.5 -253.5s16.833 -173.334 50.5 -254.001s79.167 -150.167 136.5 -208.5s126.166 -104.833 206.499 -139.5s164.833 -52 253.5 -52zM837 -46.001c-102 0 -199.5 20 -292.5 60s-173.167 93.667 -240.5 161
s-121 147.666 -161 240.999s-60 190.666 -60 291.999c0 102 20 199.5 60 292.5s93.667 173.333 161 241s147.5 121.5 240.5 161.5s190.5 60 292.5 60s199.5 -20 292.5 -60s173.167 -93.833 240.5 -161.5s121 -148 161 -241s60 -190.5 60 -292.5
c0 -101.333 -20 -198.666 -60 -291.999s-93.667 -173.666 -161 -240.999s-147.5 -121 -240.5 -161s-190.5 -60 -292.5 -60z" />
    <glyph glyph-name="uni24C9" unicode="T&#x20dd;" 
d="M889 358h-104v604h-219v84h542v-84h-219v-604zM837 54c88.667 0 173.167 17.333 253.5 52s149.166 81.167 206.499 139.5s102.833 127.833 136.5 208.5s50.5 165.334 50.5 254.001s-16.833 173.167 -50.5 253.5s-79.167 149.666 -136.5 207.999
s-126.166 104.833 -206.499 139.5s-164.833 52 -253.5 52s-173.167 -17.333 -253.5 -52s-149.166 -81.167 -206.499 -139.5s-102.833 -127.666 -136.5 -207.999s-50.5 -164.833 -50.5 -253.5s16.833 -173.334 50.5 -254.001s79.167 -150.167 136.5 -208.5
s126.166 -104.833 206.499 -139.5s164.833 -52 253.5 -52zM837 -46c-102 0 -199.5 20 -292.5 60s-173.167 93.667 -240.5 161s-121 147.666 -161 240.999s-60 190.666 -60 291.999c0 102 20 199.5 60 292.5s93.667 173.333 161 241s147.5 121.5 240.5 161.5
s190.5 60 292.5 60s199.5 -20 292.5 -60s173.167 -93.833 240.5 -161.5s121 -148 161 -241s60 -190.5 60 -292.5c0 -101.333 -20 -198.666 -60 -291.999s-93.667 -173.666 -161 -240.999s-147.5 -121 -240.5 -161s-190.5 -60 -292.5 -60z" />
    <glyph glyph-name="uni24CA" unicode="U&#x20dd;" 
d="M837 428c52.667 0 95.332 15.333 127.999 46s49 72.334 49 125.001v446h102v-453c0 -75.333 -25.5 -135.833 -76.5 -181.5s-118.5 -68.5 -202.5 -68.5s-151.5 22.833 -202.5 68.5s-76.5 106.167 -76.5 181.5v453h102v-446c0 -52.667 16.333 -94.334 49 -125.001
s75.334 -46 128.001 -46zM836.998 54c88.667 0 173.167 17.333 253.5 52s149.166 81.167 206.499 139.5s102.833 127.833 136.5 208.5s50.5 165.334 50.5 254.001s-16.833 173.167 -50.5 253.5s-79.167 149.666 -136.5 207.999s-126.166 104.833 -206.499 139.5
s-164.833 52 -253.5 52s-173.167 -17.333 -253.5 -52s-149.166 -81.167 -206.499 -139.5s-102.833 -127.666 -136.5 -207.999s-50.5 -164.833 -50.5 -253.5s16.833 -173.334 50.5 -254.001s79.167 -150.167 136.5 -208.5s126.166 -104.833 206.499 -139.5
s164.833 -52 253.5 -52zM836.998 -46c-102 0 -199.5 20 -292.5 60s-173.167 93.667 -240.5 161s-121 147.666 -161 240.999s-60 190.666 -60 291.999c0 102 20 199.5 60 292.5s93.667 173.333 161 241s147.5 121.5 240.5 161.5s190.5 60 292.5 60s199.5 -20 292.5 -60
s173.167 -93.833 240.5 -161.5s121 -148 161 -241s60 -190.5 60 -292.5c0 -101.333 -20 -198.666 -60 -291.999s-93.667 -173.666 -161 -240.999s-147.5 -121 -240.5 -161s-190.5 -60 -292.5 -60z" />
    <glyph glyph-name="uni24CB" unicode="V&#x20dd;" 
d="M774 356l-253 688h118l195 -580h6l195 580h118l-253 -688h-126zM837 54c88.667 0 173.167 17.333 253.5 52s149.166 81.167 206.499 139.5s102.833 127.833 136.5 208.5s50.5 165.334 50.5 254.001s-16.833 173.167 -50.5 253.5s-79.167 149.666 -136.5 207.999
s-126.166 104.833 -206.499 139.5s-164.833 52 -253.5 52s-173.167 -17.333 -253.5 -52s-149.166 -81.167 -206.499 -139.5s-102.833 -127.666 -136.5 -207.999s-50.5 -164.833 -50.5 -253.5s16.833 -173.334 50.5 -254.001s79.167 -150.167 136.5 -208.5
s126.166 -104.833 206.499 -139.5s164.833 -52 253.5 -52zM837 -46c-102 0 -199.5 20 -292.5 60s-173.167 93.667 -240.5 161s-121 147.666 -161 240.999s-60 190.666 -60 291.999c0 102 20 199.5 60 292.5s93.667 173.333 161 241s147.5 121.5 240.5 161.5
s190.5 60 292.5 60s199.5 -20 292.5 -60s173.167 -93.833 240.5 -161.5s121 -148 161 -241s60 -190.5 60 -292.5c0 -101.333 -20 -198.666 -60 -291.999s-93.667 -173.666 -161 -240.999s-147.5 -121 -240.5 -161s-190.5 -60 -292.5 -60z" />
    <glyph glyph-name="uni24CC" unicode="W&#x20dd;" 
d="M837 894l-148 -538h-100l-188 688h112l129 -553h6l145 553h93l145 -553h5l129 553h112l-187 -688h-101l-148 538h-4zM837 54c88.667 0 173.167 17.333 253.5 52s149.166 81.167 206.499 139.5s102.833 127.833 136.5 208.5s50.5 165.334 50.5 254.001
s-16.833 173.167 -50.5 253.5s-79.167 149.666 -136.5 207.999s-126.166 104.833 -206.499 139.5s-164.833 52 -253.5 52s-173.167 -17.333 -253.5 -52s-149.166 -81.167 -206.499 -139.5s-102.833 -127.666 -136.5 -207.999s-50.5 -164.833 -50.5 -253.5
s16.833 -173.334 50.5 -254.001s79.167 -150.167 136.5 -208.5s126.166 -104.833 206.499 -139.5s164.833 -52 253.5 -52zM837 -46c-102 0 -199.5 20 -292.5 60s-173.167 93.667 -240.5 161s-121 147.666 -161 240.999s-60 190.666 -60 291.999c0 102 20 199.5 60 292.5
s93.667 173.333 161 241s147.5 121.5 240.5 161.5s190.5 60 292.5 60s199.5 -20 292.5 -60s173.167 -93.833 240.5 -161.5s121 -148 161 -241s60 -190.5 60 -292.5c0 -101.333 -20 -198.666 -60 -291.999s-93.667 -173.666 -161 -240.999s-147.5 -121 -240.5 -161
s-190.5 -60 -292.5 -60z" />
    <glyph glyph-name="uni24CD" unicode="X&#x20dd;" 
d="M1124 1070l-232 -345l228 -343h-119l-173 268h-5l-174 -268h-114l228 345l-226 343h122l171 -271h6l171 271h117zM837 54c88.667 0 173.167 17.333 253.5 52s149.166 81.167 206.499 139.5s102.833 127.833 136.5 208.5s50.5 165.334 50.5 254.001
s-16.833 173.167 -50.5 253.5s-79.167 149.666 -136.5 207.999s-126.166 104.833 -206.499 139.5s-164.833 52 -253.5 52s-173.167 -17.333 -253.5 -52s-149.166 -81.167 -206.499 -139.5s-102.833 -127.666 -136.5 -207.999s-50.5 -164.833 -50.5 -253.5
s16.833 -173.334 50.5 -254.001s79.167 -150.167 136.5 -208.5s126.166 -104.833 206.499 -139.5s164.833 -52 253.5 -52zM837 -46c-102 0 -199.5 20 -292.5 60s-173.167 93.667 -240.5 161s-121 147.666 -161 240.999s-60 190.666 -60 291.999c0 102 20 199.5 60 292.5
s93.667 173.333 161 241s147.5 121.5 240.5 161.5s190.5 60 292.5 60s199.5 -20 292.5 -60s173.167 -93.833 240.5 -161.5s121 -148 161 -241s60 -190.5 60 -292.5c0 -101.333 -20 -198.666 -60 -291.999s-93.667 -173.666 -161 -240.999s-147.5 -121 -240.5 -161
s-190.5 -60 -292.5 -60z" />
    <glyph glyph-name="uni24CE" unicode="Y&#x20dd;" 
d="M889 378h-103v282l-252 407h116l186 -309h4l186 309h113l-250 -406v-283zM837 54c88.667 0 173.167 17.333 253.5 52s149.166 81.167 206.499 139.5s102.833 127.833 136.5 208.5s50.5 165.334 50.5 254.001s-16.833 173.167 -50.5 253.5s-79.167 149.666 -136.5 207.999
s-126.166 104.833 -206.499 139.5s-164.833 52 -253.5 52s-173.167 -17.333 -253.5 -52s-149.166 -81.167 -206.499 -139.5s-102.833 -127.666 -136.5 -207.999s-50.5 -164.833 -50.5 -253.5s16.833 -173.334 50.5 -254.001s79.167 -150.167 136.5 -208.5
s126.166 -104.833 206.499 -139.5s164.833 -52 253.5 -52zM837 -46c-102 0 -199.5 20 -292.5 60s-173.167 93.667 -240.5 161s-121 147.666 -161 240.999s-60 190.666 -60 291.999c0 102 20 199.5 60 292.5s93.667 173.333 161 241s147.5 121.5 240.5 161.5
s190.5 60 292.5 60s199.5 -20 292.5 -60s173.167 -93.833 240.5 -161.5s121 -148 161 -241s60 -190.5 60 -292.5c0 -101.333 -20 -198.666 -60 -291.999s-93.667 -173.666 -161 -240.999s-147.5 -121 -240.5 -161s-190.5 -60 -292.5 -60z" />
    <glyph glyph-name="uni24CF" unicode="Z&#x20dd;" 
d="M574 382v70l387 529v6h-375v83h499v-70l-385 -529v-6h394v-83h-520zM837 54c88.667 0 173.167 17.333 253.5 52s149.166 81.167 206.499 139.5s102.833 127.833 136.5 208.5s50.5 165.334 50.5 254.001s-16.833 173.167 -50.5 253.5s-79.167 149.666 -136.5 207.999
s-126.166 104.833 -206.499 139.5s-164.833 52 -253.5 52s-173.167 -17.333 -253.5 -52s-149.166 -81.167 -206.499 -139.5s-102.833 -127.666 -136.5 -207.999s-50.5 -164.833 -50.5 -253.5s16.833 -173.334 50.5 -254.001s79.167 -150.167 136.5 -208.5
s126.166 -104.833 206.499 -139.5s164.833 -52 253.5 -52zM837 -46c-102 0 -199.5 20 -292.5 60s-173.167 93.667 -240.5 161s-121 147.666 -161 240.999s-60 190.666 -60 291.999c0 102 20 199.5 60 292.5s93.667 173.333 161 241s147.5 121.5 240.5 161.5
s190.5 60 292.5 60s199.5 -20 292.5 -60s173.167 -93.833 240.5 -161.5s121 -148 161 -241s60 -190.5 60 -292.5c0 -101.333 -20 -198.666 -60 -291.999s-93.667 -173.666 -161 -240.999s-147.5 -121 -240.5 -161s-190.5 -60 -292.5 -60z" />
    <glyph glyph-name="uni24EA" unicode="&#x23;&#x20dd;" 
d="M837 452c48.667 0 87.667 24.333 117 73s44 114.334 44 197.001c0 83.333 -14.667 149.166 -44 197.499s-68.333 72.5 -117 72.5s-87.667 -24.167 -117 -72.5s-44 -114.166 -44 -197.499c0 -82.667 14.667 -148.334 44 -197.001s68.333 -73 117 -73zM837 365
c-77.333 0 -139.833 32 -187.5 96s-71.5 151 -71.5 261c0 110.667 23.833 198 71.5 262s110.167 96 187.5 96s139.833 -32 187.5 -96s71.5 -151.333 71.5 -262c0 -110 -23.833 -197 -71.5 -261s-110.167 -96 -187.5 -96zM837 54c88.667 0 173.167 17.333 253.5 52
s149.166 81.167 206.499 139.5s102.833 127.833 136.5 208.5s50.5 165.334 50.5 254.001s-16.833 173.167 -50.5 253.5s-79.167 149.666 -136.5 207.999s-126.166 104.833 -206.499 139.5s-164.833 52 -253.5 52s-173.167 -17.333 -253.5 -52
s-149.166 -81.167 -206.499 -139.5s-102.833 -127.666 -136.5 -207.999s-50.5 -164.833 -50.5 -253.5s16.833 -173.334 50.5 -254.001s79.167 -150.167 136.5 -208.5s126.166 -104.833 206.499 -139.5s164.833 -52 253.5 -52zM837 -46c-102 0 -199.5 20 -292.5 60
s-173.167 93.667 -240.5 161s-121 147.666 -161 240.999s-60 190.666 -60 291.999c0 102 20 199.5 60 292.5s93.667 173.333 161 241s147.5 121.5 240.5 161.5s190.5 60 292.5 60s199.5 -20 292.5 -60s173.167 -93.833 240.5 -161.5s121 -148 161 -241s60 -190.5 60 -292.5
c0 -101.333 -20 -198.666 -60 -291.999s-93.667 -173.666 -161 -240.999s-147.5 -121 -240.5 -161s-190.5 -60 -292.5 -60z" />
    <glyph glyph-name="uni24FF" unicode="&#x30;&#x20dd;&#x25cf;" 
d="M834 432c-51.333 0 -91.666 25.833 -120.999 77.5s-44 122.5 -44 212.5c0 90.667 14.667 161.667 44 213s69.666 77 120.999 77s91.666 -25.667 120.999 -77s44 -122.333 44 -213c0 -90 -14.667 -160.833 -44 -212.5s-69.666 -77.5 -120.999 -77.5zM834 332
c87.333 0 157 35.167 209 105.5s78 165.166 78 284.499s-26 214.333 -78 285s-121.667 106 -209 106c-86.667 0 -156.167 -35.333 -208.5 -106s-78.5 -165.667 -78.5 -285s26.167 -214.166 78.5 -284.499s121.833 -105.5 208.5 -105.5zM837 -46c-102 0 -199.5 20 -292.5 60
s-173.167 93.667 -240.5 161s-121 147.5 -161 240.5s-60 190.5 -60 292.5s20 199.5 60 292.5s93.667 173.167 161 240.5s147.5 121 240.5 161s190.5 60 292.5 60s199.5 -20 292.5 -60s173.167 -93.667 240.5 -161s121 -147.5 161 -240.5s60 -190.5 60 -292.5
s-20 -199.5 -60 -292.5s-93.667 -173.167 -161 -240.5s-147.5 -121 -240.5 -161s-190.5 -60 -292.5 -60z" />
    <glyph glyph-name="uni278A" unicode="&#x31;&#x20dd;&#x25cf;" 
d="M930 351v751h-118l-190 -130v-114l186 127h2v-634h120zM837 -46c-102 0 -199.5 20 -292.5 60s-173.167 93.667 -240.5 161s-121 147.5 -161 240.5s-60 190.5 -60 292.5s20 199.5 60 292.5s93.667 173.167 161 240.5s147.5 121 240.5 161s190.5 60 292.5 60
s199.5 -20 292.5 -60s173.167 -93.667 240.5 -161s121 -147.5 161 -240.5s60 -190.5 60 -292.5s-20 -199.5 -60 -292.5s-93.667 -173.167 -161 -240.5s-147.5 -121 -240.5 -161s-190.5 -60 -292.5 -60z" />
    <glyph glyph-name="uni278B" unicode="&#x32;&#x20dd;&#x25cf;" 
d="M694 884l0.000976562 8c0.666992 36 13.667 66.167 39 90.5s58.333 36.5 99 36.5c38 0 69.667 -11 95 -33s38 -50.333 38 -85c0 -28.667 -7.16699 -55.167 -21.5 -79.5s-35.833 -51.833 -64.5 -82.5l-294 -313v-76h518v100h-354v1l216 230c42 46 72.667 85.167 92 117.5
s29 68.833 29 109.5c0 60.667 -23.5 110.5 -70.5 149.5s-107.5 58.5 -181.5 58.5c-79.333 0 -141.833 -22 -187.5 -66s-68.834 -96.667 -69.501 -158v-8h117zM837.001 -46c-102 0 -199.5 20 -292.5 60s-173.167 93.667 -240.5 161s-121 147.5 -161 240.5
s-60 190.5 -60 292.5s20 199.5 60 292.5s93.667 173.167 161 240.5s147.5 121 240.5 161s190.5 60 292.5 60s199.5 -20 292.5 -60s173.167 -93.667 240.5 -161s121 -147.5 161 -240.5s60 -190.5 60 -292.5s-20 -199.5 -60 -292.5s-93.667 -173.167 -161 -240.5
s-147.5 -121 -240.5 -161s-190.5 -60 -292.5 -60z" />
    <glyph glyph-name="uni278C" unicode="&#x33;&#x20dd;&#x25cf;" 
d="M747 691h92.998c44.667 0 81.334 -12 110.001 -36s43.334 -54.667 44.001 -92c0 -38.667 -14.833 -70.167 -44.5 -94.5s-68.834 -36.5 -117.501 -36.5c-42 0.666992 -77.667 11.334 -107 32.001s-46.333 46 -51 76h-112c3.33301 -58.667 29.333 -107.334 78 -146.001
s112.334 -58 191.001 -58c81.333 0 149.166 20.667 203.499 62s81.166 95.333 80.499 162c-1.33301 52.667 -18.666 95.334 -51.999 128.001s-71.666 51.334 -114.999 56.001v1c36.667 8 69.667 28 99 60s43.666 71.333 42.999 118c-1.33301 56 -25.666 102.5 -72.999 139.5
s-108.333 55.5 -183 55.5c-75.333 -0.666992 -135.833 -19.834 -181.5 -57.501s-70.167 -85.834 -73.5 -144.501h114c3.33301 30 17.666 55 42.999 75s57.333 30 96 30c40.667 0 73.834 -10.667 99.501 -32s38.5 -48.666 38.5 -81.999
c0 -34.667 -12.667 -63.334 -38 -86.001s-58 -34 -98 -34h-87v-96zM836.998 -46c-102 0 -199.5 20 -292.5 60s-173.167 93.667 -240.5 161s-121 147.5 -161 240.5s-60 190.5 -60 292.5s20 199.5 60 292.5s93.667 173.167 161 240.5s147.5 121 240.5 161s190.5 60 292.5 60
s199.5 -20 292.5 -60s173.167 -93.667 240.5 -161s121 -147.5 161 -240.5s60 -190.5 60 -292.5s-20 -199.5 -60 -292.5s-93.667 -173.167 -161 -240.5s-147.5 -121 -240.5 -161s-190.5 -60 -292.5 -60z" />
    <glyph glyph-name="uni278D" unicode="&#x34;&#x20dd;&#x25cf;" 
d="M830 1102c-177.333 -272.667 -283.667 -439.667 -319 -501v-97h375v-153h116v153h104v98h-104v500h-172zM626.999 602v2c58.667 100 144.667 233.667 258 401h1v-403h-259zM836.999 -46c-102 0 -199.5 20 -292.5 60s-173.167 93.667 -240.5 161s-121 147.5 -161 240.5
s-60 190.5 -60 292.5s20 199.5 60 292.5s93.667 173.167 161 240.5s147.5 121 240.5 161s190.5 60 292.5 60s199.5 -20 292.5 -60s173.167 -93.667 240.5 -161s121 -147.5 161 -240.5s60 -190.5 60 -292.5s-20 -199.5 -60 -292.5s-93.667 -173.167 -161 -240.5
s-147.5 -121 -240.5 -161s-190.5 -60 -292.5 -60z" />
    <glyph glyph-name="uni278E" unicode="&#x35;&#x20dd;&#x25cf;" 
d="M569 539c3.33301 -58 29.668 -106.168 79.001 -144.501s110.666 -57.5 183.999 -57.5c84.667 0 153.334 24.167 206.001 72.5s79 111.833 79 190.5c0 73.333 -24.167 132.333 -72.5 177s-108.166 67 -179.499 67c-37.333 0 -70.333 -6.83301 -99 -20.5
s-50.334 -30.167 -65.001 -49.5h-1l19 231h355v98h-455l-34 -434h106c34.667 53.333 84 80 148 80c45.333 0 83.166 -14.167 113.499 -42.5s45.5 -65.166 45.5 -110.499c0 -48 -15.667 -87 -47 -117s-69 -45 -113 -45c-38 0 -72 9.5 -102 28.5s-48 44.5 -54 76.5h-113z
M837.002 -46.001c-102 0 -199.5 20 -292.5 60s-173.167 93.667 -240.5 161s-121 147.5 -161 240.5s-60 190.5 -60 292.5s20 199.5 60 292.5s93.667 173.167 161 240.5s147.5 121 240.5 161s190.5 60 292.5 60s199.5 -20 292.5 -60s173.167 -93.667 240.5 -161
s121 -147.5 161 -240.5s60 -190.5 60 -292.5s-20 -199.5 -60 -292.5s-93.667 -173.167 -161 -240.5s-147.5 -121 -240.5 -161s-190.5 -60 -292.5 -60z" />
    <glyph glyph-name="uni278F" unicode="&#x36;&#x20dd;&#x25cf;" 
d="M1113 597c0 73.333 -24.167 132.001 -72.5 176.001s-106.5 66 -174.5 66c-99.333 0 -168 -39.333 -206 -118l-2 -2v3c-0.666992 91.333 16 163.5 50 216.5s79.333 79.5 136 79.5c34.667 0 64 -8.16699 88 -24.5s39.667 -35.5 47 -57.5h117
c-5.33301 47.333 -30.833 89.166 -76.5 125.499s-103.167 54.5 -172.5 54.5c-94.667 0 -169 -35.167 -223 -105.5s-81 -172.5 -81 -306.5c0 -112 21.667 -198 65 -258c25.333 -36 58 -63.333 98 -82s83 -28 129 -28c82 0 148.833 23.5 200.5 70.5s77.5 110.5 77.5 190.5z
M676 592.001c0 44.667 15.167 81.334 45.5 110.001s68.833 43 115.5 43c44.667 0 82.167 -13.833 112.5 -41.5s45.5 -65.167 45.5 -112.5c0 -49.333 -14.833 -88 -44.5 -116s-67.5 -42 -113.5 -42c-45.333 0 -83.5 14.667 -114.5 44s-46.5 67.666 -46.5 114.999z
M837 -45.999c-102 0 -199.5 20 -292.5 60s-173.167 93.667 -240.5 161s-121 147.5 -161 240.5s-60 190.5 -60 292.5s20 199.5 60 292.5s93.667 173.167 161 240.5s147.5 121 240.5 161s190.5 60 292.5 60s199.5 -20 292.5 -60s173.167 -93.667 240.5 -161
s121 -147.5 161 -240.5s60 -190.5 60 -292.5s-20 -199.5 -60 -292.5s-93.667 -173.167 -161 -240.5s-147.5 -121 -240.5 -161s-190.5 -60 -292.5 -60z" />
    <glyph glyph-name="uni2790" unicode="&#x37;&#x20dd;&#x25cf;" 
d="M589 1095v-99h395v-2l-328 -649h129l321 652v98h-517zM837 -46c-102 0 -199.5 20 -292.5 60s-173.167 93.667 -240.5 161s-121 147.5 -161 240.5s-60 190.5 -60 292.5s20 199.5 60 292.5s93.667 173.167 161 240.5s147.5 121 240.5 161s190.5 60 292.5 60
s199.5 -20 292.5 -60s173.167 -93.667 240.5 -161s121 -147.5 161 -240.5s60 -190.5 60 -292.5s-20 -199.5 -60 -292.5s-93.667 -173.167 -161 -240.5s-147.5 -121 -240.5 -161s-190.5 -60 -292.5 -60z" />
    <glyph glyph-name="uni2791" unicode="&#x38;&#x20dd;&#x25cf;" 
d="M835 788c-41.333 0 -75.166 11 -101.499 33s-39.5 50.667 -39.5 86c0 34.667 13.167 63 39.5 85s60.166 33 101.499 33s75.166 -11 101.499 -33s39.5 -50.333 39.5 -85s-13.167 -63.167 -39.5 -85.5s-60.166 -33.5 -101.499 -33.5zM835 428
c-49.333 0 -90 12.998 -122 38.998s-48 58.667 -48 98c0 38.667 16 70.834 48 96.501s72.667 38.5 122 38.5c48.667 0 89 -12.667 121 -38s48 -57.666 48 -96.999s-16 -72 -48 -98s-72.333 -39 -121 -39zM835 335.998c85.333 0 154.833 20.667 208.5 62s80.5 95 80.5 161
c0 45.333 -14.667 85.166 -44 119.499s-68.333 56.833 -117 67.5v1c40.667 12.667 72.5 34.334 95.5 65.001s34.5 65.667 34.5 105c0 59.333 -24 107.666 -72 144.999s-110 56 -186 56s-138 -18.667 -186 -56s-72 -85.666 -72 -144.999c0 -39.333 11.5 -74.333 34.5 -105
s54.833 -52.334 95.5 -65.001v-1c-48.667 -10.667 -87.667 -33.167 -117 -67.5s-44 -74.166 -44 -119.499c0 -66 26.833 -119.667 80.5 -161s123.167 -62 208.5 -62zM837 -46.002c-102 0 -199.5 20 -292.5 60s-173.167 93.667 -240.5 161s-121 147.5 -161 240.5
s-60 190.5 -60 292.5s20 199.5 60 292.5s93.667 173.167 161 240.5s147.5 121 240.5 161s190.5 60 292.5 60s199.5 -20 292.5 -60s173.167 -93.667 240.5 -161s121 -147.5 161 -240.5s60 -190.5 60 -292.5s-20 -199.5 -60 -292.5s-93.667 -173.167 -161 -240.5
s-147.5 -121 -240.5 -161s-190.5 -60 -292.5 -60z" />
    <glyph glyph-name="uni2792" unicode="&#x39;&#x20dd;&#x25cf;" 
d="M987 860c0 -47.333 -15.333 -84.833 -46 -112.5s-68.667 -41.5 -114 -41.5s-83 14.167 -113 42.5s-45 66.5 -45 114.5c0 47.333 15 85.333 45 114s67.667 43 113 43c46 0 84.167 -14.667 114.5 -44s45.5 -68 45.5 -116zM571 511
c6.66699 -47.333 32.001 -88.165 76.001 -122.498s100.667 -51.5 170 -51.5c99.333 0 174.666 34.667 225.999 104s77 169.666 77 300.999c0 68 -7.5 127 -22.5 177s-36.167 89 -63.5 117s-57.833 48.5 -91.5 61.5s-70.834 19.5 -111.501 19.5c-82 0 -149 -23.333 -201 -70
s-78 -109 -78 -187c0 -74.667 24.167 -134.834 72.5 -180.501s107.833 -68.5 178.5 -68.5c97.333 0 164.333 38.667 201 116h1c1.33301 -88.667 -14 -159.667 -46 -213s-78.667 -80 -140 -80c-32 0 -60.167 7.66699 -84.5 23s-40.166 33.333 -47.499 54h-116z
M837.001 -45.999c-102 0 -199.5 20 -292.5 60s-173.167 93.667 -240.5 161s-121 147.5 -161 240.5s-60 190.5 -60 292.5s20 199.5 60 292.5s93.667 173.167 161 240.5s147.5 121 240.5 161s190.5 60 292.5 60s199.5 -20 292.5 -60s173.167 -93.667 240.5 -161
s121 -147.5 161 -240.5s60 -190.5 60 -292.5s-20 -199.5 -60 -292.5s-93.667 -173.167 -161 -240.5s-147.5 -121 -240.5 -161s-190.5 -60 -292.5 -60z" />
    <glyph glyph-name="uni1F130" unicode="A&#x20de;" 
d="M725 660h225l-109 311h-8zM631 384h-104l251 689h118l251 -689h-104l-69 199h-273zM348 1439h978c67.333 0 124 -22.667 170 -68s69 -101.333 69 -168v-986c0 -66.667 -23 -122.5 -69 -167.5s-102.667 -67.5 -170 -67.5h-978c-67.333 0 -124 22.5 -170 67.5
s-69 100.833 -69 167.5v986c0 66.667 23 122.667 69 168s102.667 68 170 68zM1464 1202c0 41.333 -13.833 75.667 -41.5 103s-62.834 41 -105.501 41h-960c-42 0 -77 -13.5 -105 -40.5s-42 -61.5 -42 -103.5v-983c0 -42 14 -76.5 42 -103.5s63 -40.5 105 -40.5h960
c42.667 0 77.834 13.5 105.501 40.5s41.5 61.5 41.5 103.5v983z" />
    <glyph glyph-name="uni1F131" unicode="B&#x20de;" 
d="M607 381l0.000976562 689.001h277c62.667 0 112.667 -15.667 150 -47s56 -72.333 56 -123c0 -40 -10.833 -73.333 -32.5 -100s-50.167 -44.334 -85.5 -53.001v-4c46.667 -6 84.5 -23.833 113.5 -53.5s43.5 -68.5 43.5 -116.5c0 -60 -22.333 -107 -67 -141
s-104.334 -51 -179.001 -51h-276zM708.001 991.001l-0.000976562 -219.001h125c50.667 0 89.334 9.83301 116.001 29.5s40 46.834 40 81.501c0 34 -11.167 60.5 -33.5 79.5s-53.5 28.5 -93.5 28.5h-154zM708 698l0.000976562 -237.999h134c62.667 0 108.667 9.66699 138 29
s44 48.666 44 87.999c0 38 -12.833 67.667 -38.5 89s-61.834 32 -108.501 32h-169zM348.001 1439h978c67.333 0 124 -22.667 170 -68s69 -101.333 69 -168v-986c0 -66.667 -23 -122.5 -69 -167.5s-102.667 -67.5 -170 -67.5h-978c-67.333 0 -124 22.5 -170 67.5
s-69 100.833 -69 167.5v986c0 66.667 23 122.667 69 168s102.667 68 170 68zM1464 1202c0 41.333 -13.833 75.667 -41.5 103s-62.834 41 -105.501 41h-960c-42 0 -77 -13.5 -105 -40.5s-42 -61.5 -42 -103.5v-983c0 -42 14 -76.5 42 -103.5s63 -40.5 105 -40.5h960
c42.667 0 77.834 13.5 105.501 40.5s41.5 61.5 41.5 103.5v983z" />
    <glyph glyph-name="uni1F132" unicode="C&#x20de;" 
d="M1025 588h104c-9.33301 -67.333 -40.5 -121.5 -93.5 -162.5s-118.833 -61.5 -197.5 -61.5c-94.667 0 -171 33 -229 99s-87 152.333 -87 259s29 193 87 259s134.333 99 229 99c80 0 146.833 -21.5 200.5 -64.5s84.167 -99.167 91.5 -168.5h-102
c-5.33301 43.333 -25.5 79 -60.5 107s-77.5 42 -127.5 42c-64 0 -115.833 -25.333 -155.5 -76s-59.5 -116.667 -59.5 -198c0 -82 19.833 -148.167 59.5 -198.5s91.5 -75.5 155.5 -75.5c49.333 0 91 13.167 125 39.5s54 59.833 60 100.5zM348 1439h978
c67.333 0 124 -22.667 170 -68s69 -101.333 69 -168v-986c0 -66.667 -23 -122.5 -69 -167.5s-102.667 -67.5 -170 -67.5h-978c-67.333 0 -124 22.5 -170 67.5s-69 100.833 -69 167.5v986c0 66.667 23 122.667 69 168s102.667 68 170 68zM1464 1202
c0 41.333 -13.833 75.667 -41.5 103s-62.834 41 -105.501 41h-960c-42 0 -77 -13.5 -105 -40.5s-42 -61.5 -42 -103.5v-983c0 -42 14 -76.5 42 -103.5s63 -40.5 105 -40.5h960c42.667 0 77.834 13.5 105.501 40.5s41.5 61.5 41.5 103.5v983z" />
    <glyph glyph-name="uni1F133" unicode="D&#x20de;" 
d="M588 1062h238c102.667 0 181 -29.333 235 -88s81 -142 81 -250c0 -110 -27 -194.5 -81 -253.5s-132.333 -88.5 -235 -88.5h-238v680zM690 980l0.000976562 -515h123c148 0 222 85.667 222 257c0 84 -18.833 148 -56.5 192s-92.834 66 -165.501 66h-123zM348.001 1439h978
c67.333 0 124 -22.667 170 -68s69 -101.333 69 -168v-986c0 -66.667 -23 -122.5 -69 -167.5s-102.667 -67.5 -170 -67.5h-978c-67.333 0 -124 22.5 -170 67.5s-69 100.833 -69 167.5v986c0 66.667 23 122.667 69 168s102.667 68 170 68zM1464 1202
c0 41.333 -13.833 75.667 -41.5 103s-62.834 41 -105.501 41h-960c-42 0 -77 -13.5 -105 -40.5s-42 -61.5 -42 -103.5v-983c0 -42 14 -76.5 42 -103.5s63 -40.5 105 -40.5h960c42.667 0 77.834 13.5 105.501 40.5s41.5 61.5 41.5 103.5v983z" />
    <glyph glyph-name="uni1F134" unicode="E&#x20de;" 
d="M1064 461v-83h-445v688h445v-82h-343v-216h324v-80h-324v-227h343zM348 1439h978c67.333 0 124 -22.667 170 -68s69 -101.333 69 -168v-986c0 -66.667 -23 -122.5 -69 -167.5s-102.667 -67.5 -170 -67.5h-978c-67.333 0 -124 22.5 -170 67.5s-69 100.833 -69 167.5v986
c0 66.667 23 122.667 69 168s102.667 68 170 68zM1464 1202c0 41.333 -13.833 75.667 -41.5 103s-62.834 41 -105.501 41h-960c-42 0 -77 -13.5 -105 -40.5s-42 -61.5 -42 -103.5v-983c0 -42 14 -76.5 42 -103.5s63 -40.5 105 -40.5h960c42.667 0 77.834 13.5 105.501 40.5
s41.5 61.5 41.5 103.5v983z" />
    <glyph glyph-name="uni1F135" unicode="F&#x20de;" 
d="M750 378h-103v688h439v-83h-336v-229h308v-82h-308v-294zM348 1439h978c67.333 0 124 -22.667 170 -68s69 -101.333 69 -168v-986c0 -66.667 -23 -122.5 -69 -167.5s-102.667 -67.5 -170 -67.5h-978c-67.333 0 -124 22.5 -170 67.5s-69 100.833 -69 167.5v986
c0 66.667 23 122.667 69 168s102.667 68 170 68zM1464 1202c0 41.333 -13.833 75.667 -41.5 103s-62.834 41 -105.501 41h-960c-42 0 -77 -13.5 -105 -40.5s-42 -61.5 -42 -103.5v-983c0 -42 14 -76.5 42 -103.5s63 -40.5 105 -40.5h960c42.667 0 77.834 13.5 105.501 40.5
s41.5 61.5 41.5 103.5v983z" />
    <glyph glyph-name="uni1F136" unicode="G&#x20de;" 
d="M1027 608l-0.000976562 51h-182v77h280v-107c0 -80 -25 -144.167 -75 -192.5s-120 -72.5 -210 -72.5c-94.667 0 -171.334 33 -230.001 99s-88 152.333 -88 259s29.333 193 88 259s135.334 99 230.001 99c78 0 143.333 -20.5 196 -61.5s83.667 -94.833 93 -161.5h-102
c-6.66699 40.667 -27.167 74 -61.5 100s-75.833 39 -124.5 39c-64.667 0 -116.834 -25.167 -156.501 -75.5s-59.5 -116.5 -59.5 -198.5s19.833 -148.167 59.5 -198.5s91.834 -75.5 156.501 -75.5c58.667 0 104.334 14.333 137.001 43s49 67.667 49 117zM347.999 1439h978
c67.333 0 124 -22.667 170 -68s69 -101.333 69 -168v-986c0 -66.667 -23 -122.5 -69 -167.5s-102.667 -67.5 -170 -67.5h-978c-67.333 0 -124 22.5 -170 67.5s-69 100.833 -69 167.5v986c0 66.667 23 122.667 69 168s102.667 68 170 68zM1464 1202
c0 41.333 -13.833 75.667 -41.5 103s-62.834 41 -105.501 41h-960c-42 0 -77 -13.5 -105 -40.5s-42 -61.5 -42 -103.5v-983c0 -42 14 -76.5 42 -103.5s63 -40.5 105 -40.5h960c42.667 0 77.834 13.5 105.501 40.5s41.5 61.5 41.5 103.5v983z" />
    <glyph glyph-name="uni1F137" unicode="H&#x20de;" 
d="M1117 378h-102v313h-355v-313h-103v688h103v-292h355v292h102v-688zM348 1439h978c67.333 0 124 -22.667 170 -68s69 -101.333 69 -168v-986c0 -66.667 -23 -122.5 -69 -167.5s-102.667 -67.5 -170 -67.5h-978c-67.333 0 -124 22.5 -170 67.5s-69 100.833 -69 167.5v986
c0 66.667 23 122.667 69 168s102.667 68 170 68zM1464 1202c0 41.333 -13.833 75.667 -41.5 103s-62.834 41 -105.501 41h-960c-42 0 -77 -13.5 -105 -40.5s-42 -61.5 -42 -103.5v-983c0 -42 14 -76.5 42 -103.5s63 -40.5 105 -40.5h960c42.667 0 77.834 13.5 105.501 40.5
s41.5 61.5 41.5 103.5v983z" />
    <glyph glyph-name="uni1F138" unicode="I&#x20de;" 
d="M889 378h-104v688h104v-688zM348 1439h978c67.333 0 124 -22.667 170 -68s69 -101.333 69 -168v-986c0 -66.667 -23 -122.5 -69 -167.5s-102.667 -67.5 -170 -67.5h-978c-67.333 0 -124 22.5 -170 67.5s-69 100.833 -69 167.5v986c0 66.667 23 122.667 69 168
s102.667 68 170 68zM1464 1202c0 41.333 -13.833 75.667 -41.5 103s-62.834 41 -105.501 41h-960c-42 0 -77 -13.5 -105 -40.5s-42 -61.5 -42 -103.5v-983c0 -42 14 -76.5 42 -103.5s63 -40.5 105 -40.5h960c42.667 0 77.834 13.5 105.501 40.5s41.5 61.5 41.5 103.5v983z
" />
    <glyph glyph-name="uni1F139" unicode="J&#x20de;" 
d="M587 557l99.999 0.00195312c0.666992 -30.667 11.834 -55.667 33.501 -75s49.5 -29 83.5 -29c38 0 67.167 11.333 87.5 34s30.5 54 30.5 94v485h102v-482c0 -68.667 -19.667 -122.334 -59 -161.001s-93 -58 -161 -58c-66 0 -118.5 18.167 -157.5 54.5
s-58.833 82.166 -59.5 137.499zM347.999 1439h978c67.333 0 124 -22.667 170 -68s69 -101.333 69 -168v-986c0 -66.667 -23 -122.5 -69 -167.5s-102.667 -67.5 -170 -67.5h-978c-67.333 0 -124 22.5 -170 67.5s-69 100.833 -69 167.5v986c0 66.667 23 122.667 69 168
s102.667 68 170 68zM1464 1202c0 41.333 -13.833 75.667 -41.5 103s-62.834 41 -105.501 41h-960c-42 0 -77 -13.5 -105 -40.5s-42 -61.5 -42 -103.5v-983c0 -42 14 -76.5 42 -103.5s63 -40.5 105 -40.5h960c42.667 0 77.834 13.5 105.501 40.5s41.5 61.5 41.5 103.5v983z
" />
    <glyph glyph-name="uni1F13A" unicode="K&#x20de;" 
d="M1127 1066l-270 -294l285 -394h-127l-234 326l-87 -91v-235h-102v688h102v-332h5l310 332h118zM348 1439h978c67.333 0 124 -22.667 170 -68s69 -101.333 69 -168v-986c0 -66.667 -23 -122.5 -69 -167.5s-102.667 -67.5 -170 -67.5h-978c-67.333 0 -124 22.5 -170 67.5
s-69 100.833 -69 167.5v986c0 66.667 23 122.667 69 168s102.667 68 170 68zM1464 1202c0 41.333 -13.833 75.667 -41.5 103s-62.834 41 -105.501 41h-960c-42 0 -77 -13.5 -105 -40.5s-42 -61.5 -42 -103.5v-983c0 -42 14 -76.5 42 -103.5s63 -40.5 105 -40.5h960
c42.667 0 77.834 13.5 105.501 40.5s41.5 61.5 41.5 103.5v983z" />
    <glyph glyph-name="uni1F13B" unicode="L&#x20de;" 
d="M1100 463v-85h-433v688h103v-603h330zM348 1439h978c67.333 0 124 -22.667 170 -68s69 -101.333 69 -168v-986c0 -66.667 -23 -122.5 -69 -167.5s-102.667 -67.5 -170 -67.5h-978c-67.333 0 -124 22.5 -170 67.5s-69 100.833 -69 167.5v986c0 66.667 23 122.667 69 168
s102.667 68 170 68zM1464 1202c0 41.333 -13.833 75.667 -41.5 103s-62.834 41 -105.501 41h-960c-42 0 -77 -13.5 -105 -40.5s-42 -61.5 -42 -103.5v-983c0 -42 14 -76.5 42 -103.5s63 -40.5 105 -40.5h960c42.667 0 77.834 13.5 105.501 40.5s41.5 61.5 41.5 103.5v983z
" />
    <glyph glyph-name="uni1F13C" unicode="M&#x20de;" 
d="M591 378h-92v688h109l228 -564h4l227 564h108v-688h-92v521h-6l-201 -507h-78l-201 507h-6v-521zM348 1439h978c67.333 0 124 -22.667 170 -68s69 -101.333 69 -168v-986c0 -66.667 -23 -122.5 -69 -167.5s-102.667 -67.5 -170 -67.5h-978c-67.333 0 -124 22.5 -170 67.5
s-69 100.833 -69 167.5v986c0 66.667 23 122.667 69 168s102.667 68 170 68zM1464 1202c0 41.333 -13.833 75.667 -41.5 103s-62.834 41 -105.501 41h-960c-42 0 -77 -13.5 -105 -40.5s-42 -61.5 -42 -103.5v-983c0 -42 14 -76.5 42 -103.5s63 -40.5 105 -40.5h960
c42.667 0 77.834 13.5 105.501 40.5s41.5 61.5 41.5 103.5v983z" />
    <glyph glyph-name="uni1F13D" unicode="N&#x20de;" 
d="M658 378h-98v688h95l356 -527h5v527h98v-688h-95l-356 529h-5v-529zM348 1439h978c67.333 0 124 -22.667 170 -68s69 -101.333 69 -168v-986c0 -66.667 -23 -122.5 -69 -167.5s-102.667 -67.5 -170 -67.5h-978c-67.333 0 -124 22.5 -170 67.5s-69 100.833 -69 167.5v986
c0 66.667 23 122.667 69 168s102.667 68 170 68zM1464 1202c0 41.333 -13.833 75.667 -41.5 103s-62.834 41 -105.501 41h-960c-42 0 -77 -13.5 -105 -40.5s-42 -61.5 -42 -103.5v-983c0 -42 14 -76.5 42 -103.5s63 -40.5 105 -40.5h960c42.667 0 77.834 13.5 105.501 40.5
s41.5 61.5 41.5 103.5v983z" />
    <glyph glyph-name="uni1F13E" unicode="O&#x20de;" 
d="M837 448c64 0 116.167 24.667 156.5 74s60.5 116 60.5 200s-20.167 150.667 -60.5 200s-92.5 74 -156.5 74s-116.333 -24.667 -157 -74s-61 -116 -61 -200s20.333 -150.667 61 -200s93 -74 157 -74zM837 364c-93.333 0 -170.166 32.167 -230.499 96.5
s-90.5 151.5 -90.5 261.5s30.167 197.167 90.5 261.5s137.166 96.5 230.499 96.5s170.166 -32.333 230.499 -97s90.5 -151.667 90.5 -261s-30.167 -196.333 -90.5 -261s-137.166 -97 -230.499 -97zM348 1439h978c67.333 0 124 -22.667 170 -68s69 -101.333 69 -168v-986
c0 -66.667 -23 -122.5 -69 -167.5s-102.667 -67.5 -170 -67.5h-978c-67.333 0 -124 22.5 -170 67.5s-69 100.833 -69 167.5v986c0 66.667 23 122.667 69 168s102.667 68 170 68zM1464 1202c0 41.333 -13.833 75.667 -41.5 103s-62.834 41 -105.501 41h-960
c-42 0 -77 -13.5 -105 -40.5s-42 -61.5 -42 -103.5v-983c0 -42 14 -76.5 42 -103.5s63 -40.5 105 -40.5h960c42.667 0 77.834 13.5 105.501 40.5s41.5 61.5 41.5 103.5v983z" />
    <glyph glyph-name="uni1F13F" unicode="P&#x20de;" 
d="M893 1066c70 0 126.167 -20.499 168.5 -61.499s63.5 -93.5 63.5 -157.5c0 -64.667 -21 -117.334 -63 -158.001s-98.333 -61 -169 -61h-165v-250h-102v688h267zM1020 847.001c0 42.667 -12.667 76.332 -38 100.999s-59.666 37 -102.999 37h-151v-276h151
c43.333 0 77.666 12.333 102.999 37s38 58.334 38 101.001zM348 1439h978c67.333 0 124 -22.667 170 -68s69 -101.333 69 -168v-986c0 -66.667 -23 -122.5 -69 -167.5s-102.667 -67.5 -170 -67.5h-978c-67.333 0 -124 22.5 -170 67.5s-69 100.833 -69 167.5v986
c0 66.667 23 122.667 69 168s102.667 68 170 68zM1464 1202c0 41.333 -13.833 75.667 -41.5 103s-62.834 41 -105.501 41h-960c-42 0 -77 -13.5 -105 -40.5s-42 -61.5 -42 -103.5v-983c0 -42 14 -76.5 42 -103.5s63 -40.5 105 -40.5h960c42.667 0 77.834 13.5 105.501 40.5
s41.5 61.5 41.5 103.5v983z" />
    <glyph glyph-name="uni1F140" unicode="Q&#x20de;" 
d="M1122 303h-101.999l-62 84c-36.667 -15.333 -77 -23 -121 -23c-93.333 0 -170.166 32.167 -230.499 96.5s-90.5 151.5 -90.5 261.5s30.167 197.167 90.5 261.5s137.166 96.5 230.499 96.5s170.166 -32.333 230.499 -97s90.5 -151.667 90.5 -261
c0 -130.667 -42.333 -229 -127 -295zM837.001 448c25.333 0 48 4 68 12l-88 122h101l57 -78c52.667 49.333 79 122 79 218c0 84 -20.167 150.667 -60.5 200s-92.5 74 -156.5 74s-116.333 -24.667 -157 -74s-61 -116 -61 -200s20.333 -150.667 61 -200s93 -74 157 -74z
M348.001 1439h978c67.333 0 124 -22.667 170 -68s69 -101.333 69 -168v-986c0 -66.667 -23 -122.5 -69 -167.5s-102.667 -67.5 -170 -67.5h-978c-67.333 0 -124 22.5 -170 67.5s-69 100.833 -69 167.5v986c0 66.667 23 122.667 69 168s102.667 68 170 68zM1464 1202
c0 41.333 -13.833 75.667 -41.5 103s-62.834 41 -105.501 41h-960c-42 0 -77 -13.5 -105 -40.5s-42 -61.5 -42 -103.5v-983c0 -42 14 -76.5 42 -103.5s63 -40.5 105 -40.5h960c42.667 0 77.834 13.5 105.501 40.5s41.5 61.5 41.5 103.5v983z" />
    <glyph glyph-name="uni1F141" unicode="R&#x20de;" 
d="M866 1066c72.667 0 130.333 -19.168 173 -57.501s64 -89.166 64 -152.499c0 -48 -13.333 -89.167 -40 -123.5s-60.667 -57.833 -102 -70.5l153 -284h-115l-140 269h-159v-269h-101v688h267zM699.999 724.999h151c45.333 0 81 11.333 107 34s39 54 39 94
c0 41.333 -13 73.833 -39 97.5s-60.667 35.5 -104 35.5h-154v-261zM347.999 1439h978c67.333 0 124 -22.667 170 -68s69 -101.333 69 -168v-986c0 -66.667 -23 -122.5 -69 -167.5s-102.667 -67.5 -170 -67.5h-978c-67.333 0 -124 22.5 -170 67.5s-69 100.833 -69 167.5v986
c0 66.667 23 122.667 69 168s102.667 68 170 68zM1464 1202c0 41.333 -13.833 75.667 -41.5 103s-62.834 41 -105.501 41h-960c-42 0 -77 -13.5 -105 -40.5s-42 -61.5 -42 -103.5v-983c0 -42 14 -76.5 42 -103.5s63 -40.5 105 -40.5h960c42.667 0 77.834 13.5 105.501 40.5
s41.5 61.5 41.5 103.5v983z" />
    <glyph glyph-name="uni1F142" unicode="S&#x20de;" 
d="M564 567l101 -0.000976562c3.33301 -35.333 21.333 -64.5 54 -87.5s72.667 -34.5 120 -34.5c48 0 87.5 11.167 118.5 33.5s46.5 50.5 46.5 84.5c0 52 -43.333 88.667 -130 110l-115 26c-116.667 28.667 -175 89.334 -175 182.001c0 59.333 23.833 107.5 71.5 144.5
s109.167 55.5 184.5 55.5c74.667 0 135.667 -18 183 -54s71.333 -83.333 72 -142h-98c-3.33301 33.333 -19.833 61 -49.5 83s-65.834 33 -108.501 33s-78.667 -11 -108 -33s-44 -49.333 -44 -82c0 -23.333 10 -43.833 30 -61.5s47.667 -30.5 83 -38.5l114 -26
c67.333 -16 116 -38.833 146 -68.5s45 -69.5 45 -119.5c0 -63.333 -24.667 -113.833 -74 -151.5s-115.666 -56.5 -198.999 -56.5c-79.333 0 -143.333 18.5 -192 55.5s-74 86.167 -76 147.5zM348 1439h978c67.333 0 124 -22.667 170 -68s69 -101.333 69 -168v-986
c0 -66.667 -23 -122.5 -69 -167.5s-102.667 -67.5 -170 -67.5h-978c-67.333 0 -124 22.5 -170 67.5s-69 100.833 -69 167.5v986c0 66.667 23 122.667 69 168s102.667 68 170 68zM1464 1202c0 41.333 -13.833 75.667 -41.5 103s-62.834 41 -105.501 41h-960
c-42 0 -77 -13.5 -105 -40.5s-42 -61.5 -42 -103.5v-983c0 -42 14 -76.5 42 -103.5s63 -40.5 105 -40.5h960c42.667 0 77.834 13.5 105.501 40.5s41.5 61.5 41.5 103.5v983z" />
    <glyph glyph-name="uni1F143" unicode="T&#x20de;" 
d="M889 372h-104v604h-219v84h542v-84h-219v-604zM348 1439h978c67.333 0 124 -22.667 170 -68s69 -101.333 69 -168v-986c0 -66.667 -23 -122.5 -69 -167.5s-102.667 -67.5 -170 -67.5h-978c-67.333 0 -124 22.5 -170 67.5s-69 100.833 -69 167.5v986
c0 66.667 23 122.667 69 168s102.667 68 170 68zM1464 1202c0 41.333 -13.833 75.667 -41.5 103s-62.834 41 -105.501 41h-960c-42 0 -77 -13.5 -105 -40.5s-42 -61.5 -42 -103.5v-983c0 -42 14 -76.5 42 -103.5s63 -40.5 105 -40.5h960c42.667 0 77.834 13.5 105.501 40.5
s41.5 61.5 41.5 103.5v983z" />
    <glyph glyph-name="uni1F144" unicode="U&#x20de;" 
d="M837 442c52.667 0 95.3301 15.333 127.997 46s49 72.334 49 125.001v445h102v-453c0 -74.667 -25.667 -134.834 -77 -180.501s-118.666 -68.5 -201.999 -68.5s-150.666 22.833 -201.999 68.5s-77 105.834 -77 180.501v453h102v-445c0 -52.667 16.333 -94.334 49 -125.001
s75.334 -46 128.001 -46zM347.996 1439h978c67.333 0 124 -22.667 170 -68s69 -101.333 69 -168v-986c0 -66.667 -23 -122.5 -69 -167.5s-102.667 -67.5 -170 -67.5h-978c-67.333 0 -124 22.5 -170 67.5s-69 100.833 -69 167.5v986c0 66.667 23 122.667 69 168
s102.667 68 170 68zM1464 1202c0 41.333 -13.833 75.667 -41.5 103s-62.834 41 -105.501 41h-960c-42 0 -77 -13.5 -105 -40.5s-42 -61.5 -42 -103.5v-983c0 -42 14 -76.5 42 -103.5s63 -40.5 105 -40.5h960c42.667 0 77.834 13.5 105.501 40.5s41.5 61.5 41.5 103.5v983z
" />
    <glyph glyph-name="uni1F145" unicode="V&#x20de;" 
d="M774 369l-253 689h118l195 -580h6l195 580h118l-253 -689h-126zM348 1439h978c67.333 0 124 -22.667 170 -68s69 -101.333 69 -168v-986c0 -66.667 -23 -122.5 -69 -167.5s-102.667 -67.5 -170 -67.5h-978c-67.333 0 -124 22.5 -170 67.5s-69 100.833 -69 167.5v986
c0 66.667 23 122.667 69 168s102.667 68 170 68zM1464 1202c0 41.333 -13.833 75.667 -41.5 103s-62.834 41 -105.501 41h-960c-42 0 -77 -13.5 -105 -40.5s-42 -61.5 -42 -103.5v-983c0 -42 14 -76.5 42 -103.5s63 -40.5 105 -40.5h960c42.667 0 77.834 13.5 105.501 40.5
s41.5 61.5 41.5 103.5v983z" />
    <glyph glyph-name="uni1F146" unicode="W&#x20de;" 
d="M837 908l-148 -539h-100l-188 689h112l129 -554h6l145 554h93l145 -554h5l129 554h112l-187 -689h-101l-148 539h-4zM348 1439h978c67.333 0 124 -22.667 170 -68s69 -101.333 69 -168v-986c0 -66.667 -23 -122.5 -69 -167.5s-102.667 -67.5 -170 -67.5h-978
c-67.333 0 -124 22.5 -170 67.5s-69 100.833 -69 167.5v986c0 66.667 23 122.667 69 168s102.667 68 170 68zM1464 1202c0 41.333 -13.833 75.667 -41.5 103s-62.834 41 -105.501 41h-960c-42 0 -77 -13.5 -105 -40.5s-42 -61.5 -42 -103.5v-983c0 -42 14 -76.5 42 -103.5
s63 -40.5 105 -40.5h960c42.667 0 77.834 13.5 105.501 40.5s41.5 61.5 41.5 103.5v983z" />
    <glyph glyph-name="uni1F147" unicode="X&#x20de;" 
d="M1124 1070l-232 -345l228 -343h-119l-173 268h-5l-174 -268h-114l228 345l-226 343h122l171 -271h6l171 271h117zM348 1439h978c67.333 0 124 -22.667 170 -68s69 -101.333 69 -168v-986c0 -66.667 -23 -122.5 -69 -167.5s-102.667 -67.5 -170 -67.5h-978
c-67.333 0 -124 22.5 -170 67.5s-69 100.833 -69 167.5v986c0 66.667 23 122.667 69 168s102.667 68 170 68zM1464 1202c0 41.333 -13.833 75.667 -41.5 103s-62.834 41 -105.501 41h-960c-42 0 -77 -13.5 -105 -40.5s-42 -61.5 -42 -103.5v-983c0 -42 14 -76.5 42 -103.5
s63 -40.5 105 -40.5h960c42.667 0 77.834 13.5 105.501 40.5s41.5 61.5 41.5 103.5v983z" />
    <glyph glyph-name="uni1F148" unicode="Y&#x20de;" 
d="M889 382h-103v281l-252 407h116l186 -308h4l186 308h113l-250 -405v-283zM348 1439h978c67.333 0 124 -22.667 170 -68s69 -101.333 69 -168v-986c0 -66.667 -23 -122.5 -69 -167.5s-102.667 -67.5 -170 -67.5h-978c-67.333 0 -124 22.5 -170 67.5s-69 100.833 -69 167.5
v986c0 66.667 23 122.667 69 168s102.667 68 170 68zM1464 1202c0 41.333 -13.833 75.667 -41.5 103s-62.834 41 -105.501 41h-960c-42 0 -77 -13.5 -105 -40.5s-42 -61.5 -42 -103.5v-983c0 -42 14 -76.5 42 -103.5s63 -40.5 105 -40.5h960
c42.667 0 77.834 13.5 105.501 40.5s41.5 61.5 41.5 103.5v983z" />
    <glyph glyph-name="uni1F149" unicode="Z&#x20de;" 
d="M574 382v70l387 529v6h-375v83h499v-70l-385 -529v-6h394v-83h-520zM348 1439h978c67.333 0 124 -22.667 170 -68s69 -101.333 69 -168v-986c0 -66.667 -23 -122.5 -69 -167.5s-102.667 -67.5 -170 -67.5h-978c-67.333 0 -124 22.5 -170 67.5s-69 100.833 -69 167.5v986
c0 66.667 23 122.667 69 168s102.667 68 170 68zM1464 1202c0 41.333 -13.833 75.667 -41.5 103s-62.834 41 -105.501 41h-960c-42 0 -77 -13.5 -105 -40.5s-42 -61.5 -42 -103.5v-983c0 -42 14 -76.5 42 -103.5s63 -40.5 105 -40.5h960c42.667 0 77.834 13.5 105.501 40.5
s41.5 61.5 41.5 103.5v983z" />
    <glyph glyph-name="uni1F150" unicode="A&#x20dd;&#x25cf;" 
d="M952 675h-230l113 323h4zM619 368l74 213h288l73 -213h126l-273 752h-140l-273 -752h125zM837 -46c-102 0 -199.5 20 -292.5 60s-173.167 93.667 -240.5 161s-121 147.5 -161 240.5s-60 190.5 -60 292.5s20 199.5 60 292.5s93.667 173.167 161 240.5s147.5 121 240.5 161
s190.5 60 292.5 60s199.5 -20 292.5 -60s173.167 -93.667 240.5 -161s121 -147.5 161 -240.5s60 -190.5 60 -292.5s-20 -199.5 -60 -292.5s-93.667 -173.167 -161 -240.5s-147.5 -121 -240.5 -161s-190.5 -60 -292.5 -60z" />
    <glyph glyph-name="uni1F151" unicode="B&#x20dd;&#x25cf;" 
d="M579 351l303 0.000976562c83.333 0 149.333 19 198 57s73 89.667 73 155c0 50 -15 91.667 -45 125s-70.333 53.666 -121 60.999v1c38 10 68 29.833 90 59.5s33 65.167 33 106.5c0 56 -20.5 101.167 -61.5 135.5s-96.167 51.5 -165.5 51.5h-304v-752zM699 1008
l160.001 0.000976562c41.333 0 73.5 -9.83301 96.5 -29.5s34.5 -46.834 34.5 -81.501c0 -36.667 -13.833 -65 -41.5 -85s-67.834 -30 -120.501 -30h-129v226zM699.001 693.002h177c48 0 85.5 -11.167 112.5 -33.5s40.5 -53.5 40.5 -93.5c0 -80.667 -64 -121 -192 -121h-138
v248zM837.001 -45.998c-102 0 -199.5 20 -292.5 60s-173.167 93.667 -240.5 161s-121 147.5 -161 240.5s-60 190.5 -60 292.5s20 199.5 60 292.5s93.667 173.167 161 240.5s147.5 121 240.5 161s190.5 60 292.5 60s199.5 -20 292.5 -60s173.167 -93.667 240.5 -161
s121 -147.5 161 -240.5s60 -190.5 60 -292.5s-20 -199.5 -60 -292.5s-93.667 -173.167 -161 -240.5s-147.5 -121 -240.5 -161s-190.5 -60 -292.5 -60z" />
    <glyph glyph-name="uni1F152" unicode="C&#x20dd;&#x25cf;" 
d="M1035 576c-8 -39.333 -29.832 -72 -65.499 -98s-78.5 -39 -128.5 -39c-66.667 0 -120.834 26 -162.501 78s-62.5 120.333 -62.5 205c0 84 21 152.167 63 204.5s96 78.5 162 78.5c50 0 93.5 -14.167 130.5 -42.5s59.167 -63.166 66.5 -104.499h122
c-9.33301 75.333 -43.333 136.5 -102 183.5s-131.667 70.5 -219 70.5c-103.333 0 -187.166 -36 -251.499 -108s-96.5 -166 -96.5 -282c0 -116.667 32.167 -210.834 96.5 -282.501s148.166 -107.5 251.499 -107.5c86 0 157.833 22.333 215.5 67s92.167 103.667 103.5 177
h-123zM837.001 -46c-102 0 -199.5 20 -292.5 60s-173.167 93.667 -240.5 161s-121 147.5 -161 240.5s-60 190.5 -60 292.5s20 199.5 60 292.5s93.667 173.167 161 240.5s147.5 121 240.5 161s190.5 60 292.5 60s199.5 -20 292.5 -60s173.167 -93.667 240.5 -161
s121 -147.5 161 -240.5s60 -190.5 60 -292.5s-20 -199.5 -60 -292.5s-93.667 -173.167 -161 -240.5s-147.5 -121 -240.5 -161s-190.5 -60 -292.5 -60z" />
    <glyph glyph-name="uni1F153" unicode="D&#x20dd;&#x25cf;" 
d="M573 1096v-744h263c111.333 0 196.833 32 256.5 96s89.5 156.333 89.5 277c0 119.333 -29.833 211 -89.5 275s-145.167 96 -256.5 96h-263zM694 995h128c76.667 0 135.167 -22.833 175.5 -68.5s60.5 -113.167 60.5 -202.5c0 -181.333 -78.667 -272 -236 -272h-128v543z
M837 -46c-102 0 -199.5 20 -292.5 60s-173.167 93.667 -240.5 161s-121 147.5 -161 240.5s-60 190.5 -60 292.5s20 199.5 60 292.5s93.667 173.167 161 240.5s147.5 121 240.5 161s190.5 60 292.5 60s199.5 -20 292.5 -60s173.167 -93.667 240.5 -161s121 -147.5 161 -240.5
s60 -190.5 60 -292.5s-20 -199.5 -60 -292.5s-93.667 -173.167 -161 -240.5s-147.5 -121 -240.5 -161s-190.5 -60 -292.5 -60z" />
    <glyph glyph-name="uni1F154" unicode="E&#x20dd;&#x25cf;" 
d="M1084 448h-369v233h348v96h-348v223h369v100h-490v-752h490v100zM837 -46c-102 0 -199.5 20 -292.5 60s-173.167 93.667 -240.5 161s-121 147.5 -161 240.5s-60 190.5 -60 292.5s20 199.5 60 292.5s93.667 173.167 161 240.5s147.5 121 240.5 161s190.5 60 292.5 60
s199.5 -20 292.5 -60s173.167 -93.667 240.5 -161s121 -147.5 161 -240.5s60 -190.5 60 -292.5s-20 -199.5 -60 -292.5s-93.667 -173.167 -161 -240.5s-147.5 -121 -240.5 -161s-190.5 -60 -292.5 -60z" />
    <glyph glyph-name="uni1F155" unicode="F&#x20dd;&#x25cf;" 
d="M744 348v316h331v100h-331v235h361v101h-482v-752h121zM837 -46c-102 0 -199.5 20 -292.5 60s-173.167 93.667 -240.5 161s-121 147.5 -161 240.5s-60 190.5 -60 292.5s20 199.5 60 292.5s93.667 173.167 161 240.5s147.5 121 240.5 161s190.5 60 292.5 60
s199.5 -20 292.5 -60s173.167 -93.667 240.5 -161s121 -147.5 161 -240.5s60 -190.5 60 -292.5s-20 -199.5 -60 -292.5s-93.667 -173.167 -161 -240.5s-147.5 -121 -240.5 -161s-190.5 -60 -292.5 -60z" />
    <glyph glyph-name="uni1F156" unicode="G&#x20dd;&#x25cf;" 
d="M1037 618c0 -51.333 -17 -93.167 -51 -125.5s-82 -48.5 -144 -48.5c-67.333 0 -121.833 25.167 -163.5 75.5s-62.5 117.833 -62.5 202.5s20.833 152.167 62.5 202.5s96.167 75.5 163.5 75.5c52.667 0 96.667 -12 132 -36s56 -53.333 62 -88h123
c-9.33301 68.667 -43.333 125 -102 169s-130.667 66 -216 66c-104 0 -188.333 -35.833 -253 -107.5s-97 -165.5 -97 -281.5s32.167 -210 96.5 -282s148.5 -108 252.5 -108c96 0 172.667 28.167 230 84.5s86 127.833 86 214.5v119h-304v-102h185v-30zM837 -46.001
c-102 0 -199.5 20 -292.5 60s-173.167 93.667 -240.5 161s-121 147.5 -161 240.5s-60 190.5 -60 292.5s20 199.5 60 292.5s93.667 173.167 161 240.5s147.5 121 240.5 161s190.5 60 292.5 60s199.5 -20 292.5 -60s173.167 -93.667 240.5 -161s121 -147.5 161 -240.5
s60 -190.5 60 -292.5s-20 -199.5 -60 -292.5s-93.667 -173.167 -161 -240.5s-147.5 -121 -240.5 -161s-190.5 -60 -292.5 -60z" />
    <glyph glyph-name="uni1F157" unicode="H&#x20dd;&#x25cf;" 
d="M1145 348v752h-120v-315h-375v315h-121v-752h121v337h375v-337h120zM837 -46c-102 0 -199.5 20 -292.5 60s-173.167 93.667 -240.5 161s-121 147.5 -161 240.5s-60 190.5 -60 292.5s20 199.5 60 292.5s93.667 173.167 161 240.5s147.5 121 240.5 161s190.5 60 292.5 60
s199.5 -20 292.5 -60s173.167 -93.667 240.5 -161s121 -147.5 161 -240.5s60 -190.5 60 -292.5s-20 -199.5 -60 -292.5s-93.667 -173.167 -161 -240.5s-147.5 -121 -240.5 -161s-190.5 -60 -292.5 -60z" />
    <glyph glyph-name="uni1F158" unicode="I&#x20dd;&#x25cf;" 
d="M897 348v752h-120v-752h120zM837 -46c-102 0 -199.5 20 -292.5 60s-173.167 93.667 -240.5 161s-121 147.5 -161 240.5s-60 190.5 -60 292.5s20 199.5 60 292.5s93.667 173.167 161 240.5s147.5 121 240.5 161s190.5 60 292.5 60s199.5 -20 292.5 -60
s173.167 -93.667 240.5 -161s121 -147.5 161 -240.5s60 -190.5 60 -292.5s-20 -199.5 -60 -292.5s-93.667 -173.167 -161 -240.5s-147.5 -121 -240.5 -161s-190.5 -60 -292.5 -60z" />
    <glyph glyph-name="uni1F159" unicode="J&#x20dd;&#x25cf;" 
d="M563 550c0.666992 -64.667 22.833 -116.832 66.5 -156.499s101.167 -59.5 172.5 -59.5c76 0 135.333 21.167 178 63.5s64 101.5 64 177.5v525h-121v-528c0 -42.667 -10.5 -75.334 -31.5 -98.001s-51.5 -34 -91.5 -34c-34 0 -62 10.333 -84 31s-33.667 47 -35 79h-118z
M836.999 -45.998c-102 0 -199.5 20 -292.5 60s-173.167 93.667 -240.5 161s-121 147.5 -161 240.5s-60 190.5 -60 292.5s20 199.5 60 292.5s93.667 173.167 161 240.5s147.5 121 240.5 161s190.5 60 292.5 60s199.5 -20 292.5 -60s173.167 -93.667 240.5 -161
s121 -147.5 161 -240.5s60 -190.5 60 -292.5s-20 -199.5 -60 -292.5s-93.667 -173.167 -161 -240.5s-147.5 -121 -240.5 -161s-190.5 -60 -292.5 -60z" />
    <glyph glyph-name="uni1F15A" unicode="K&#x20dd;&#x25cf;" 
d="M1154 1100h-139l-330 -356h-1v356h-121v-752h121v257l87 92l250 -349h148l-311 428zM837 -46c-102 0 -199.5 20 -292.5 60s-173.167 93.667 -240.5 161s-121 147.5 -161 240.5s-60 190.5 -60 292.5s20 199.5 60 292.5s93.667 173.167 161 240.5s147.5 121 240.5 161
s190.5 60 292.5 60s199.5 -20 292.5 -60s173.167 -93.667 240.5 -161s121 -147.5 161 -240.5s60 -190.5 60 -292.5s-20 -199.5 -60 -292.5s-93.667 -173.167 -161 -240.5s-147.5 -121 -240.5 -161s-190.5 -60 -292.5 -60z" />
    <glyph glyph-name="uni1F15B" unicode="L&#x20dd;&#x25cf;" 
d="M1112 451h-355v649h-121v-752h476v103zM837 -46c-102 0 -199.5 20 -292.5 60s-173.167 93.667 -240.5 161s-121 147.5 -161 240.5s-60 190.5 -60 292.5s20 199.5 60 292.5s93.667 173.167 161 240.5s147.5 121 240.5 161s190.5 60 292.5 60s199.5 -20 292.5 -60
s173.167 -93.667 240.5 -161s121 -147.5 161 -240.5s60 -190.5 60 -292.5s-20 -199.5 -60 -292.5s-93.667 -173.167 -161 -240.5s-147.5 -121 -240.5 -161s-190.5 -60 -292.5 -60z" />
    <glyph glyph-name="uni1F15C" unicode="M&#x20dd;&#x25cf;" 
d="M577 348v563h1l213 -545h92l212 542h2v-560h110v752h-129l-241 -609h-1l-240 609h-129v-752h110zM837 -46c-102 0 -199.5 20 -292.5 60s-173.167 93.667 -240.5 161s-121 147.5 -161 240.5s-60 190.5 -60 292.5s20 199.5 60 292.5s93.667 173.167 161 240.5
s147.5 121 240.5 161s190.5 60 292.5 60s199.5 -20 292.5 -60s173.167 -93.667 240.5 -161s121 -147.5 161 -240.5s60 -190.5 60 -292.5s-20 -199.5 -60 -292.5s-93.667 -173.167 -161 -240.5s-147.5 -121 -240.5 -161s-190.5 -60 -292.5 -60z" />
    <glyph glyph-name="uni1F15D" unicode="N&#x20dd;&#x25cf;" 
d="M650 348v564h1l377 -564h113v752h-117v-565h-1l-379 565h-111v-752h117zM837 -46c-102 0 -199.5 20 -292.5 60s-173.167 93.667 -240.5 161s-121 147.5 -161 240.5s-60 190.5 -60 292.5s20 199.5 60 292.5s93.667 173.167 161 240.5s147.5 121 240.5 161
s190.5 60 292.5 60s199.5 -20 292.5 -60s173.167 -93.667 240.5 -161s121 -147.5 161 -240.5s60 -190.5 60 -292.5s-20 -199.5 -60 -292.5s-93.667 -173.167 -161 -240.5s-147.5 -121 -240.5 -161s-190.5 -60 -292.5 -60z" />
    <glyph glyph-name="uni1F15E" unicode="O&#x20dd;&#x25cf;" 
d="M837 435c-66.667 0 -121.334 25.833 -164.001 77.5s-64 121.5 -64 209.5s21.333 157.833 64 209.5s97.334 77.5 164.001 77.5s121.334 -25.833 164.001 -77.5s64 -121.5 64 -209.5s-21.333 -157.833 -64 -209.5s-97.334 -77.5 -164.001 -77.5zM837 332
c102 0 185.833 35.167 251.5 105.5s98.5 165.166 98.5 284.499s-32.833 214.166 -98.5 284.499s-149.5 105.5 -251.5 105.5s-185.833 -35.167 -251.5 -105.5s-98.5 -165.166 -98.5 -284.499s32.833 -214.166 98.5 -284.499s149.5 -105.5 251.5 -105.5zM837 -46
c-102 0 -199.5 20 -292.5 60s-173.167 93.667 -240.5 161s-121 147.5 -161 240.5s-60 190.5 -60 292.5s20 199.5 60 292.5s93.667 173.167 161 240.5s147.5 121 240.5 161s190.5 60 292.5 60s199.5 -20 292.5 -60s173.167 -93.667 240.5 -161s121 -147.5 161 -240.5
s60 -190.5 60 -292.5s-20 -199.5 -60 -292.5s-93.667 -173.167 -161 -240.5s-147.5 -121 -240.5 -161s-190.5 -60 -292.5 -60z" />
    <glyph glyph-name="uni1F15F" unicode="P&#x20dd;&#x25cf;" 
d="M892 1100h-293v-752h121v271h172c76 0 137.667 22 185 66s71 101.667 71 173s-23.667 129.5 -71 174.5s-109 67.5 -185 67.5zM1024 858c0 -44 -13.167 -78.833 -39.5 -104.5s-62.166 -38.5 -107.499 -38.5h-157v286h157c45.333 0 81.166 -12.833 107.499 -38.5
s39.5 -60.5 39.5 -104.5zM837 -46c-102 0 -199.5 20 -292.5 60s-173.167 93.667 -240.5 161s-121 147.5 -161 240.5s-60 190.5 -60 292.5s20 199.5 60 292.5s93.667 173.167 161 240.5s147.5 121 240.5 161s190.5 60 292.5 60s199.5 -20 292.5 -60
s173.167 -93.667 240.5 -161s121 -147.5 161 -240.5s60 -190.5 60 -292.5s-20 -199.5 -60 -292.5s-93.667 -173.167 -161 -240.5s-147.5 -121 -240.5 -161s-190.5 -60 -292.5 -60z" />
    <glyph glyph-name="uni1F160" unicode="Q&#x20dd;&#x25cf;" 
d="M1156 268l-101 137.999c88 72 132 177.333 132 316c0 119.333 -32.833 214.166 -98.5 284.499s-149.5 105.5 -251.5 105.5s-185.833 -35.167 -251.5 -105.5s-98.5 -165.166 -98.5 -284.499s32.833 -214.166 98.5 -284.499s149.5 -105.5 251.5 -105.5
c45.333 0 88.333 7.66699 129 23l63 -87h127zM837 434.999c-66.667 0 -121.336 25.833 -164.003 77.5s-64 121.5 -64 209.5s21.333 157.833 64 209.5s97.334 77.5 164.001 77.5s121.334 -25.833 164.001 -77.5s64 -121.5 64 -209.5c0 -96 -26.333 -170.333 -79 -223l-57 79
h-124l96 -133c-19.333 -6.66699 -40.666 -10 -63.999 -10zM836.998 -46.001c-102 0 -199.5 20 -292.5 60s-173.167 93.667 -240.5 161s-121 147.5 -161 240.5s-60 190.5 -60 292.5s20 199.5 60 292.5s93.667 173.167 161 240.5s147.5 121 240.5 161s190.5 60 292.5 60
s199.5 -20 292.5 -60s173.167 -93.667 240.5 -161s121 -147.5 161 -240.5s60 -190.5 60 -292.5s-20 -199.5 -60 -292.5s-93.667 -173.167 -161 -240.5s-147.5 -121 -240.5 -161s-190.5 -60 -292.5 -60z" />
    <glyph glyph-name="uni1F161" unicode="R&#x20dd;&#x25cf;" 
d="M691 733v269.001h160c45.333 0 81.5 -12.333 108.5 -37s40.5 -58 40.5 -100c0 -40.667 -13.5 -72.834 -40.5 -96.501s-63.833 -35.5 -110.5 -35.5h-158zM864 1100h-292v-752h119v291h161l150 -291h137l-166 308c46 14 82.667 40.167 110 78.5s41 82.833 41 133.5
c0 70.667 -23.5 127 -70.5 169s-110.167 63 -189.5 63zM837 -45.999c-102 0 -199.5 20 -292.5 60s-173.167 93.667 -240.5 161s-121 147.5 -161 240.5s-60 190.5 -60 292.5s20 199.5 60 292.5s93.667 173.167 161 240.5s147.5 121 240.5 161s190.5 60 292.5 60
s199.5 -20 292.5 -60s173.167 -93.667 240.5 -161s121 -147.5 161 -240.5s60 -190.5 60 -292.5s-20 -199.5 -60 -292.5s-93.667 -173.167 -161 -240.5s-147.5 -121 -240.5 -161s-190.5 -60 -292.5 -60z" />
    <glyph glyph-name="uni1F162" unicode="S&#x20dd;&#x25cf;" 
d="M537 559c2 -68 30.165 -122.665 84.498 -163.998s124.5 -62 210.5 -62c90.667 0 163.167 20.5 217.5 61.5s81.5 96.5 81.5 166.5c0 54.667 -17 98.667 -51 132s-87.333 58.666 -160 75.999l-122 28c-37.333 8.66699 -66.166 22.167 -86.499 40.5s-30.5 39.5 -30.5 63.5
c0 35.333 14.5 63.833 43.5 85.5s67.167 32.5 114.5 32.5c46 0 84.5 -11.333 115.5 -34s47.833 -52.334 50.5 -89.001h115c-1.33301 63.333 -27.833 115.833 -79.5 157.5s-118.5 62.5 -200.5 62.5c-82.667 0 -150 -20.667 -202 -62s-78 -94.666 -78 -159.999
c0 -50.667 16.333 -93 49 -127s80.334 -58.333 143.001 -73l123 -30c48 -10.667 82.667 -25 104 -43s32 -41 32 -69c0 -36.667 -15.833 -66.167 -47.5 -88.5s-73.167 -33.5 -124.5 -33.5c-50.667 0 -93.167 12.167 -127.5 36.5s-52.833 55.166 -55.5 92.499h-119z
M836.998 -45.998c-102 0 -199.5 20 -292.5 60s-173.167 93.667 -240.5 161s-121 147.5 -161 240.5s-60 190.5 -60 292.5s20 199.5 60 292.5s93.667 173.167 161 240.5s147.5 121 240.5 161s190.5 60 292.5 60s199.5 -20 292.5 -60s173.167 -93.667 240.5 -161
s121 -147.5 161 -240.5s60 -190.5 60 -292.5s-20 -199.5 -60 -292.5s-93.667 -173.167 -161 -240.5s-147.5 -121 -240.5 -161s-190.5 -60 -292.5 -60z" />
    <glyph glyph-name="uni1F163" unicode="T&#x20dd;&#x25cf;" 
d="M898 328v650h234v102h-590v-102h235v-650h121zM837 -46c-102 0 -199.5 20 -292.5 60s-173.167 93.667 -240.5 161s-121 147.5 -161 240.5s-60 190.5 -60 292.5s20 199.5 60 292.5s93.667 173.167 161 240.5s147.5 121 240.5 161s190.5 60 292.5 60s199.5 -20 292.5 -60
s173.167 -93.667 240.5 -161s121 -147.5 161 -240.5s60 -190.5 60 -292.5s-20 -199.5 -60 -292.5s-93.667 -173.167 -161 -240.5s-147.5 -121 -240.5 -161s-190.5 -60 -292.5 -60z" />
    <glyph glyph-name="uni1F164" unicode="U&#x20dd;&#x25cf;" 
d="M837 415c-56.667 0 -101.666 15.834 -134.999 47.501s-50 75.167 -50 130.5v485h-121v-493c0 -82.667 28 -148.834 84 -198.501s130 -74.5 222 -74.5c91.333 0 165.166 25 221.499 75s84.5 116 84.5 198v493h-121v-485c0 -55.333 -16.667 -98.833 -50 -130.5
s-78.333 -47.5 -135 -47.5zM837.001 -45.999c-102 0 -199.5 20 -292.5 60s-173.167 93.667 -240.5 161s-121 147.5 -161 240.5s-60 190.5 -60 292.5s20 199.5 60 292.5s93.667 173.167 161 240.5s147.5 121 240.5 161s190.5 60 292.5 60s199.5 -20 292.5 -60
s173.167 -93.667 240.5 -161s121 -147.5 161 -240.5s60 -190.5 60 -292.5s-20 -199.5 -60 -292.5s-93.667 -173.167 -161 -240.5s-147.5 -121 -240.5 -161s-190.5 -60 -292.5 -60z" />
    <glyph glyph-name="uni1F165" unicode="V&#x20dd;&#x25cf;" 
d="M907 326l276 751h-138l-206 -627h-4l-206 627h-138l275 -751h141zM837 -46c-102 0 -199.5 20 -292.5 60s-173.167 93.667 -240.5 161s-121 147.5 -161 240.5s-60 190.5 -60 292.5s20 199.5 60 292.5s93.667 173.167 161 240.5s147.5 121 240.5 161s190.5 60 292.5 60
s199.5 -20 292.5 -60s173.167 -93.667 240.5 -161s121 -147.5 161 -240.5s60 -190.5 60 -292.5s-20 -199.5 -60 -292.5s-93.667 -173.167 -161 -240.5s-147.5 -121 -240.5 -161s-190.5 -60 -292.5 -60z" />
    <glyph glyph-name="uni1F166" unicode="W&#x20dd;&#x25cf;" 
d="M837 901h4l157 -575h119l204 751h-133l-133 -596h-4l-156 596h-112l-155 -596h-4l-134 596h-133l205 -751h118zM837 -46c-102 0 -199.5 20 -292.5 60s-173.167 93.667 -240.5 161s-121 147.5 -161 240.5s-60 190.5 -60 292.5s20 199.5 60 292.5s93.667 173.167 161 240.5
s147.5 121 240.5 161s190.5 60 292.5 60s199.5 -20 292.5 -60s173.167 -93.667 240.5 -161s121 -147.5 161 -240.5s60 -190.5 60 -292.5s-20 -199.5 -60 -292.5s-93.667 -173.167 -161 -240.5s-147.5 -121 -240.5 -161s-190.5 -60 -292.5 -60z" />
    <glyph glyph-name="uni1F167" unicode="X&#x20dd;&#x25cf;" 
d="M1158 1104h-139l-182 -294h-4l-185 294h-144l246 -375l-249 -377h136l187 290h3l186 -290h141l-249 374zM837 -46c-102 0 -199.5 20 -292.5 60s-173.167 93.667 -240.5 161s-121 147.5 -161 240.5s-60 190.5 -60 292.5s20 199.5 60 292.5s93.667 173.167 161 240.5
s147.5 121 240.5 161s190.5 60 292.5 60s199.5 -20 292.5 -60s173.167 -93.667 240.5 -161s121 -147.5 161 -240.5s60 -190.5 60 -292.5s-20 -199.5 -60 -292.5s-93.667 -173.167 -161 -240.5s-147.5 -121 -240.5 -161s-190.5 -60 -292.5 -60z" />
    <glyph glyph-name="uni1F168" unicode="Y&#x20dd;&#x25cf;" 
d="M777 349h120v306l275 445h-137l-196 -333h-4l-197 333h-136l275 -445v-306zM837 -46c-102 0 -199.5 20 -292.5 60s-173.167 93.667 -240.5 161s-121 147.5 -161 240.5s-60 190.5 -60 292.5s20 199.5 60 292.5s93.667 173.167 161 240.5s147.5 121 240.5 161
s190.5 60 292.5 60s199.5 -20 292.5 -60s173.167 -93.667 240.5 -161s121 -147.5 161 -240.5s60 -190.5 60 -292.5s-20 -199.5 -60 -292.5s-93.667 -173.167 -161 -240.5s-147.5 -121 -240.5 -161s-190.5 -60 -292.5 -60z" />
    <glyph glyph-name="uni1F169" unicode="Z&#x20dd;&#x25cf;" 
d="M549 352h570v101h-425v1l416 566v84h-548v-101h404v-2l-417 -565v-84zM837 -46c-102 0 -199.5 20 -292.5 60s-173.167 93.667 -240.5 161s-121 147.5 -161 240.5s-60 190.5 -60 292.5s20 199.5 60 292.5s93.667 173.167 161 240.5s147.5 121 240.5 161s190.5 60 292.5 60
s199.5 -20 292.5 -60s173.167 -93.667 240.5 -161s121 -147.5 161 -240.5s60 -190.5 60 -292.5s-20 -199.5 -60 -292.5s-93.667 -173.167 -161 -240.5s-147.5 -121 -240.5 -161s-190.5 -60 -292.5 -60z" />
    <glyph glyph-name="uni1F170" unicode="A&#x20de;&#x25a0;" 
d="M952 661h-230l113 324h4zM619 354l74 213h288l73 -213h126l-273 752h-140l-273 -752h125zM348 1439h978c67.333 0 124 -22.667 170 -68s69 -101.333 69 -168v-986c0 -66.667 -23 -122.5 -69 -167.5s-102.667 -67.5 -170 -67.5h-978c-67.333 0 -124 22.5 -170 67.5
s-69 100.833 -69 167.5v986c0 66.667 23 122.667 69 168s102.667 68 170 68z" />
    <glyph glyph-name="uni1F171" unicode="B&#x20de;&#x25a0;" 
d="M579 351h302.999c82 0 147.667 18.833 197 56.5s74 89.5 74 155.5c0 52 -15.333 94 -46 126s-70.667 52 -120 60v1c36.667 10 66.334 29.5 89.001 58.5s34 64.833 34 107.5c0 56 -20.667 101.167 -62 135.5s-96.333 51.5 -165 51.5h-304v-752zM698.999 1008h159.999
c41.333 0 73.5 -10 96.5 -30s34.5 -47 34.5 -81c0 -36 -13.667 -64.167 -41 -84.5s-67.666 -30.5 -120.999 -30.5h-129v226zM698.998 693h177c48 0 85.5 -11.167 112.5 -33.5s40.5 -53.5 40.5 -93.5c0 -80.667 -64 -121 -192 -121h-138v248zM347.998 1439h978
c67.333 0 124 -22.667 170 -68s69 -101.333 69 -168v-986c0 -66.667 -23 -122.5 -69 -167.5s-102.667 -67.5 -170 -67.5h-978c-67.333 0 -124 22.5 -170 67.5s-69 100.833 -69 167.5v986c0 66.667 23 122.667 69 168s102.667 68 170 68z" />
    <glyph glyph-name="uni1F172" unicode="C&#x20de;&#x25a0;" 
d="M1035 576c-8 -39.333 -29.832 -72 -65.499 -98s-78.5 -39 -128.5 -39c-66.667 0 -120.834 26 -162.501 78s-62.5 120.333 -62.5 205c0 84 21 152.167 63 204.5s96 78.5 162 78.5c50 0 93.5 -14.167 130.5 -42.5s59.167 -63.166 66.5 -104.499h122
c-9.33301 75.333 -43.333 136.5 -102 183.5s-131.667 70.5 -219 70.5c-103.333 0 -187.166 -36 -251.499 -108s-96.5 -166 -96.5 -282c0 -116.667 32.167 -210.834 96.5 -282.501s148.166 -107.5 251.499 -107.5c86 0 157.833 22.333 215.5 67s92.167 103.667 103.5 177
h-123zM348.001 1439h978c67.333 0 124 -22.667 170 -68s69 -101.333 69 -168v-986c0 -66.667 -23 -122.5 -69 -167.5s-102.667 -67.5 -170 -67.5h-978c-67.333 0 -124 22.5 -170 67.5s-69 100.833 -69 167.5v986c0 66.667 23 122.667 69 168s102.667 68 170 68z" />
    <glyph glyph-name="uni1F173" unicode="D&#x20de;&#x25a0;" 
d="M558 1096v-744h263c112 0 197.5 32.333 256.5 97s88.5 156.667 88.5 276c0 118 -29.5 209.333 -88.5 274s-144.5 97 -256.5 97h-263zM678 995h128c77.333 0 136 -23 176 -69s60 -113.333 60 -202c0 -181.333 -78.667 -272 -236 -272h-128v543zM348 1439h978
c67.333 0 124 -22.667 170 -68s69 -101.333 69 -168v-986c0 -66.667 -23 -122.5 -69 -167.5s-102.667 -67.5 -170 -67.5h-978c-67.333 0 -124 22.5 -170 67.5s-69 100.833 -69 167.5v986c0 66.667 23 122.667 69 168s102.667 68 170 68z" />
    <glyph glyph-name="uni1F174" unicode="E&#x20de;&#x25a0;" 
d="M1084 448h-369v233h348v96h-348v223h369v100h-490v-752h490v100zM348 1439h978c67.333 0 124 -22.667 170 -68s69 -101.333 69 -168v-986c0 -66.667 -23 -122.5 -69 -167.5s-102.667 -67.5 -170 -67.5h-978c-67.333 0 -124 22.5 -170 67.5s-69 100.833 -69 167.5v986
c0 66.667 23 122.667 69 168s102.667 68 170 68z" />
    <glyph glyph-name="uni1F175" unicode="F&#x20de;&#x25a0;" 
d="M744 348v316h331v100h-331v235h361v101h-482v-752h121zM348 1439h978c67.333 0 124 -22.667 170 -68s69 -101.333 69 -168v-986c0 -66.667 -23 -122.5 -69 -167.5s-102.667 -67.5 -170 -67.5h-978c-67.333 0 -124 22.5 -170 67.5s-69 100.833 -69 167.5v986
c0 66.667 23 122.667 69 168s102.667 68 170 68z" />
    <glyph glyph-name="uni1F176" unicode="G&#x20de;&#x25a0;" 
d="M1037 618c0 -51.333 -17 -93.167 -51 -125.5s-82 -48.5 -144 -48.5c-67.333 0 -121.833 25.167 -163.5 75.5s-62.5 117.833 -62.5 202.5s20.833 152.167 62.5 202.5s96.167 75.5 163.5 75.5c52.667 0 96.667 -12 132 -36s56 -53.333 62 -88h123
c-9.33301 68.667 -43.333 125 -102 169s-130.667 66 -216 66c-104 0 -188.333 -35.833 -253 -107.5s-97 -165.5 -97 -281.5s32.167 -210 96.5 -282s148.5 -108 252.5 -108c96 0 172.667 28.167 230 84.5s86 127.833 86 214.5v119h-304v-102h185v-30zM348 1439h978
c67.333 0 124 -22.667 170 -68s69 -101.333 69 -168v-986c0 -66.667 -23 -122.5 -69 -167.5s-102.667 -67.5 -170 -67.5h-978c-67.333 0 -124 22.5 -170 67.5s-69 100.833 -69 167.5v986c0 66.667 23 122.667 69 168s102.667 68 170 68z" />
    <glyph glyph-name="uni1F177" unicode="H&#x20de;&#x25a0;" 
d="M1145 348v752h-120v-315h-375v315h-121v-752h121v337h375v-337h120zM348 1439h978c67.333 0 124 -22.667 170 -68s69 -101.333 69 -168v-986c0 -66.667 -23 -122.5 -69 -167.5s-102.667 -67.5 -170 -67.5h-978c-67.333 0 -124 22.5 -170 67.5s-69 100.833 -69 167.5v986
c0 66.667 23 122.667 69 168s102.667 68 170 68z" />
    <glyph glyph-name="uni1F178" unicode="I&#x20de;&#x25a0;" 
d="M897 348v752h-120v-752h120zM348 1439h978c67.333 0 124 -22.667 170 -68s69 -101.333 69 -168v-986c0 -66.667 -23 -122.5 -69 -167.5s-102.667 -67.5 -170 -67.5h-978c-67.333 0 -124 22.5 -170 67.5s-69 100.833 -69 167.5v986c0 66.667 23 122.667 69 168
s102.667 68 170 68z" />
    <glyph glyph-name="uni1F179" unicode="J&#x20de;&#x25a0;" 
d="M563 550c0.666992 -62.667 22.333 -114.332 65 -154.999s100.667 -61 174 -61c75.333 0 134.5 21.167 177.5 63.5s64.5 101.5 64.5 177.5v525h-121v-528c0 -42.667 -10.5 -75.334 -31.5 -98.001s-51.5 -34 -91.5 -34c-34 0 -62 10.333 -84 31s-33.667 47 -35 79h-118z
M347.999 1439h978c67.333 0 124 -22.667 170 -68s69 -101.333 69 -168v-986c0 -66.667 -23 -122.5 -69 -167.5s-102.667 -67.5 -170 -67.5h-978c-67.333 0 -124 22.5 -170 67.5s-69 100.833 -69 167.5v986c0 66.667 23 122.667 69 168s102.667 68 170 68z" />
    <glyph glyph-name="uni1F17A" unicode="K&#x20de;&#x25a0;" 
d="M1154 1100h-139l-330 -356h-1v356h-121v-752h121v257l87 92l250 -349h148l-157.5 217l-153.5 211zM348 1439h978c67.333 0 124 -22.667 170 -68s69 -101.333 69 -168v-986c0 -66.667 -23 -122.5 -69 -167.5s-102.667 -67.5 -170 -67.5h-978
c-67.333 0 -124 22.5 -170 67.5s-69 100.833 -69 167.5v986c0 66.667 23 122.667 69 168s102.667 68 170 68z" />
    <glyph glyph-name="uni1F17B" unicode="L&#x20de;&#x25a0;" 
d="M1119 451h-355v649h-121v-752h476v103zM348 1439h978c67.333 0 124 -22.667 170 -68s69 -101.333 69 -168v-986c0 -66.667 -23 -122.5 -69 -167.5s-102.667 -67.5 -170 -67.5h-978c-67.333 0 -124 22.5 -170 67.5s-69 100.833 -69 167.5v986c0 66.667 23 122.667 69 168
s102.667 68 170 68z" />
    <glyph glyph-name="uni1F17C" unicode="M&#x20de;&#x25a0;" 
d="M577 348v563h1l213 -545h92l212 542h2v-560h110v752h-129l-241 -609h-1l-240 609h-129v-752h110zM348 1439h978c67.333 0 124 -22.667 170 -68s69 -101.333 69 -168v-986c0 -66.667 -23 -122.5 -69 -167.5s-102.667 -67.5 -170 -67.5h-978c-67.333 0 -124 22.5 -170 67.5
s-69 100.833 -69 167.5v986c0 66.667 23 122.667 69 168s102.667 68 170 68z" />
    <glyph glyph-name="uni1F17D" unicode="N&#x20de;&#x25a0;" 
d="M650 348v564h1l377 -564h113v752h-117v-565h-1l-379 565h-111v-752h117zM348 1439h978c67.333 0 124 -22.667 170 -68s69 -101.333 69 -168v-986c0 -66.667 -23 -122.5 -69 -167.5s-102.667 -67.5 -170 -67.5h-978c-67.333 0 -124 22.5 -170 67.5s-69 100.833 -69 167.5
v986c0 66.667 23 122.667 69 168s102.667 68 170 68z" />
    <glyph glyph-name="uni1F17E" unicode="O&#x20de;&#x25a0;" 
d="M837 435c-66.667 0 -121.334 25.833 -164.001 77.5s-64 121.5 -64 209.5s21.333 157.833 64 209.5s97.334 77.5 164.001 77.5s121.334 -25.833 164.001 -77.5s64 -121.5 64 -209.5s-21.333 -157.833 -64 -209.5s-97.334 -77.5 -164.001 -77.5zM837 332
c102 0 185.833 35.167 251.5 105.5s98.5 165.166 98.5 284.499s-32.833 214.166 -98.5 284.499s-149.5 105.5 -251.5 105.5s-185.833 -35.167 -251.5 -105.5s-98.5 -165.166 -98.5 -284.499s32.833 -214.166 98.5 -284.499s149.5 -105.5 251.5 -105.5zM348 1439h978
c67.333 0 124 -22.667 170 -68s69 -101.333 69 -168v-986c0 -66.667 -23 -122.5 -69 -167.5s-102.667 -67.5 -170 -67.5h-978c-67.333 0 -124 22.5 -170 67.5s-69 100.833 -69 167.5v986c0 66.667 23 122.667 69 168s102.667 68 170 68z" />
    <glyph glyph-name="uni1F17F" unicode="P&#x20de;&#x25a0;" 
d="M892 1100h-293v-752h121v271h172c77.333 0 139.333 22.333 186 67s70 102 70 172s-23.333 127.833 -70 173.5s-108.667 68.5 -186 68.5zM1024 858c0 -44 -13.167 -78.833 -39.5 -104.5s-62.166 -38.5 -107.499 -38.5h-157v286h157c45.333 0 81.166 -12.833 107.499 -38.5
s39.5 -60.5 39.5 -104.5zM348 1439h978c67.333 0 124 -22.667 170 -68s69 -101.333 69 -168v-986c0 -66.667 -23 -122.5 -69 -167.5s-102.667 -67.5 -170 -67.5h-978c-67.333 0 -124 22.5 -170 67.5s-69 100.833 -69 167.5v986c0 66.667 23 122.667 69 168
s102.667 68 170 68z" />
    <glyph glyph-name="uni1F180" unicode="Q&#x20de;&#x25a0;" 
d="M1156 268l-101 137.999c88 72 132 177.333 132 316c0 119.333 -32.833 214.166 -98.5 284.499s-149.5 105.5 -251.5 105.5s-185.833 -35.167 -251.5 -105.5s-98.5 -165.166 -98.5 -284.499s32.833 -214.166 98.5 -284.499s149.5 -105.5 251.5 -105.5
c45.333 0 88.333 7.66699 129 23l63 -87h127zM837 434.999c-66.667 0 -121.336 25.833 -164.003 77.5s-64 121.5 -64 209.5s21.333 157.833 64 209.5s97.334 77.5 164.001 77.5s121.334 -25.833 164.001 -77.5s64 -121.5 64 -209.5c0 -96 -26.333 -170.333 -79 -223l-57 79
h-124l96 -133c-19.333 -6.66699 -40.666 -10 -63.999 -10zM347.998 1439h978c67.333 0 124 -22.667 170 -68s69 -101.333 69 -168v-986c0 -66.667 -23 -122.5 -69 -167.5s-102.667 -67.5 -170 -67.5h-978c-67.333 0 -124 22.5 -170 67.5s-69 100.833 -69 167.5v986
c0 66.667 23 122.667 69 168s102.667 68 170 68z" />
    <glyph glyph-name="uni1F181" unicode="R&#x20de;&#x25a0;" 
d="M691 733v268.999h160c45.333 0 81.5 -12.167 108.5 -36.5s40.5 -57.833 40.5 -100.5c0 -41.333 -13.5 -73.666 -40.5 -96.999s-63.833 -35 -110.5 -35h-158zM864 1100l-292 -0.000976562v-752h119v291h161l150 -291h137l-166 308c44.667 13.333 81 38.833 109 76.5
s42 82.834 42 135.501c0 70.667 -23.333 127 -70 169s-110 63 -190 63zM348 1439h978c67.333 0 124 -22.667 170 -68s69 -101.333 69 -168v-986c0 -66.667 -23 -122.5 -69 -167.5s-102.667 -67.5 -170 -67.5h-978c-67.333 0 -124 22.5 -170 67.5s-69 100.833 -69 167.5v986
c0 66.667 23 122.667 69 168s102.667 68 170 68z" />
    <glyph glyph-name="uni1F182" unicode="S&#x20de;&#x25a0;" 
d="M537 559c2 -68 30.165 -122.665 84.498 -163.998s124.5 -62 210.5 -62c90.667 0 163.167 20.5 217.5 61.5s81.5 96.5 81.5 166.5c0 54.667 -17 98.667 -51 132s-87.333 58.666 -160 75.999l-122 28c-37.333 8.66699 -66.166 22.167 -86.499 40.5s-30.5 39.5 -30.5 63.5
c0 35.333 14.5 63.833 43.5 85.5s67.167 32.5 114.5 32.5c46 0 84.5 -11.333 115.5 -34s47.833 -52.334 50.5 -89.001h115c-1.33301 63.333 -27.833 115.833 -79.5 157.5s-118.5 62.5 -200.5 62.5c-82.667 0 -150 -20.667 -202 -62s-78 -94.666 -78 -159.999
c0 -50.667 16.333 -93 49 -127s80.334 -58.333 143.001 -73l123 -30c48 -10.667 82.667 -25 104 -43s32 -41 32 -69c0 -36.667 -15.833 -66.167 -47.5 -88.5s-73.167 -33.5 -124.5 -33.5c-50.667 0 -93.167 12.167 -127.5 36.5s-52.833 55.166 -55.5 92.499h-119z
M347.998 1439h978c67.333 0 124 -22.667 170 -68s69 -101.333 69 -168v-986c0 -66.667 -23 -122.5 -69 -167.5s-102.667 -67.5 -170 -67.5h-978c-67.333 0 -124 22.5 -170 67.5s-69 100.833 -69 167.5v986c0 66.667 23 122.667 69 168s102.667 68 170 68z" />
    <glyph glyph-name="uni1F183" unicode="T&#x20de;&#x25a0;" 
d="M898 342v650h234v101h-590v-101h235v-650h121zM348 1439h978c67.333 0 124 -22.667 170 -68s69 -101.333 69 -168v-986c0 -66.667 -23 -122.5 -69 -167.5s-102.667 -67.5 -170 -67.5h-978c-67.333 0 -124 22.5 -170 67.5s-69 100.833 -69 167.5v986
c0 66.667 23 122.667 69 168s102.667 68 170 68z" />
    <glyph glyph-name="uni1F184" unicode="U&#x20de;&#x25a0;" 
d="M837 429c-56.667 0 -101.666 15.833 -134.999 47.5s-50 75.167 -50 130.5v485h-121v-493c0 -82.667 28 -149 84 -199s130 -75 222 -75c91.333 0 165.166 25.167 221.499 75.5s84.5 116.5 84.5 198.5v493h-121v-485c0 -55.333 -16.667 -98.833 -50 -130.5
s-78.333 -47.5 -135 -47.5zM348.001 1439h978c67.333 0 124 -22.667 170 -68s69 -101.333 69 -168v-986c0 -66.667 -23 -122.5 -69 -167.5s-102.667 -67.5 -170 -67.5h-978c-67.333 0 -124 22.5 -170 67.5s-69 100.833 -69 167.5v986c0 66.667 23 122.667 69 168
s102.667 68 170 68z" />
    <glyph glyph-name="uni1F185" unicode="V&#x20de;&#x25a0;" 
d="M907 340l276 751h-138l-206 -627h-4l-206 627h-138l275 -751h141zM348 1439h978c67.333 0 124 -22.667 170 -68s69 -101.333 69 -168v-986c0 -66.667 -23 -122.5 -69 -167.5s-102.667 -67.5 -170 -67.5h-978c-67.333 0 -124 22.5 -170 67.5s-69 100.833 -69 167.5v986
c0 66.667 23 122.667 69 168s102.667 68 170 68z" />
    <glyph glyph-name="uni1F186" unicode="W&#x20de;&#x25a0;" 
d="M837 915h4l157 -575h119l204 751h-133l-133 -596h-4l-156 596h-112l-155 -596h-4l-134 596h-133l205 -751h118zM348 1439h978c67.333 0 124 -22.667 170 -68s69 -101.333 69 -168v-986c0 -66.667 -23 -122.5 -69 -167.5s-102.667 -67.5 -170 -67.5h-978
c-67.333 0 -124 22.5 -170 67.5s-69 100.833 -69 167.5v986c0 66.667 23 122.667 69 168s102.667 68 170 68z" />
    <glyph glyph-name="uni1F187" unicode="X&#x20de;&#x25a0;" 
d="M1158 1104h-139l-182 -294h-4l-185 294h-144l246 -375l-249 -377h136l187 290h3l186 -290h141l-249 374zM348 1439h978c67.333 0 124 -22.667 170 -68s69 -101.333 69 -168v-986c0 -66.667 -23 -122.5 -69 -167.5s-102.667 -67.5 -170 -67.5h-978
c-67.333 0 -124 22.5 -170 67.5s-69 100.833 -69 167.5v986c0 66.667 23 122.667 69 168s102.667 68 170 68z" />
    <glyph glyph-name="uni1F188" unicode="Y&#x20de;&#x25a0;" 
d="M777 352h120v306l275 446h-137l-196 -333h-4l-197 333h-136l275 -446v-306zM348 1439h978c67.333 0 124 -22.667 170 -68s69 -101.333 69 -168v-986c0 -66.667 -23 -122.5 -69 -167.5s-102.667 -67.5 -170 -67.5h-978c-67.333 0 -124 22.5 -170 67.5
s-69 100.833 -69 167.5v986c0 66.667 23 122.667 69 168s102.667 68 170 68z" />
    <glyph glyph-name="uni1F189" unicode="Z&#x20de;&#x25a0;" 
d="M549 352h570v101h-425v1l416 566v84h-548v-101h404v-2l-417 -565v-84zM348 1439h978c67.333 0 124 -22.667 170 -68s69 -101.333 69 -168v-986c0 -66.667 -23 -122.5 -69 -167.5s-102.667 -67.5 -170 -67.5h-978c-67.333 0 -124 22.5 -170 67.5s-69 100.833 -69 167.5
v986c0 66.667 23 122.667 69 168s102.667 68 170 68z" />
    <glyph glyph-name="plus.uc.whitecircle" unicode="&#x2b;&#x20dd;" 
d="M880 680v-223h-87v223h-216v83h216v214h87v-214h216v-83h-216zM837 54c88.667 0 173.167 17.333 253.5 52s149.166 81.167 206.499 139.5s102.833 127.833 136.5 208.5s50.5 165.334 50.5 254.001s-16.833 173.167 -50.5 253.5s-79.167 149.666 -136.5 207.999
s-126.166 104.833 -206.499 139.5s-164.833 52 -253.5 52s-173.167 -17.333 -253.5 -52s-149.166 -81.167 -206.499 -139.5s-102.833 -127.666 -136.5 -207.999s-50.5 -164.833 -50.5 -253.5s16.833 -173.334 50.5 -254.001s79.167 -150.167 136.5 -208.5
s126.166 -104.833 206.499 -139.5s164.833 -52 253.5 -52zM837 -46c-102 0 -199.5 20 -292.5 60s-173.167 93.667 -240.5 161s-121 147.666 -161 240.999s-60 190.666 -60 291.999c0 102 20 199.5 60 292.5s93.667 173.333 161 241s147.5 121.5 240.5 161.5
s190.5 60 292.5 60s199.5 -20 292.5 -60s173.167 -93.833 240.5 -161.5s121 -148 161 -241s60 -190.5 60 -292.5c0 -101.333 -20 -198.666 -60 -291.999s-93.667 -173.666 -161 -240.999s-147.5 -121 -240.5 -161s-190.5 -60 -292.5 -60z" />
    <glyph glyph-name="minus.uc.whitecircle" unicode="&#x2212;&#x20dd;" 
d="M1084 677h-494v84h494v-84zM837 54c88.667 0 173.167 17.333 253.5 52s149.166 81.167 206.499 139.5s102.833 127.833 136.5 208.5s50.5 165.334 50.5 254.001s-16.833 173.167 -50.5 253.5s-79.167 149.666 -136.5 207.999s-126.166 104.833 -206.499 139.5
s-164.833 52 -253.5 52s-173.167 -17.333 -253.5 -52s-149.166 -81.167 -206.499 -139.5s-102.833 -127.666 -136.5 -207.999s-50.5 -164.833 -50.5 -253.5s16.833 -173.334 50.5 -254.001s79.167 -150.167 136.5 -208.5s126.166 -104.833 206.499 -139.5
s164.833 -52 253.5 -52zM837 -46c-102 0 -199.5 20 -292.5 60s-173.167 93.667 -240.5 161s-121 147.666 -161 240.999s-60 190.666 -60 291.999c0 102 20 199.5 60 292.5s93.667 173.333 161 241s147.5 121.5 240.5 161.5s190.5 60 292.5 60s199.5 -20 292.5 -60
s173.167 -93.833 240.5 -161.5s121 -148 161 -241s60 -190.5 60 -292.5c0 -101.333 -20 -198.666 -60 -291.999s-93.667 -173.666 -161 -240.999s-147.5 -121 -240.5 -161s-190.5 -60 -292.5 -60z" />
    <glyph glyph-name="multiply.uc.whitecircle" unicode="&#xd7;&#x20dd;" 
d="M838 777l162 157l62 -59l-162 -157l162 -157l-62 -59l-162 157l-164 -160l-62 59l165 160l-162 157l61 59zM837 54c88.667 0 173.167 17.333 253.5 52s149.166 81.167 206.499 139.5s102.833 127.833 136.5 208.5s50.5 165.334 50.5 254.001s-16.833 173.167 -50.5 253.5
s-79.167 149.666 -136.5 207.999s-126.166 104.833 -206.499 139.5s-164.833 52 -253.5 52s-173.167 -17.333 -253.5 -52s-149.166 -81.167 -206.499 -139.5s-102.833 -127.666 -136.5 -207.999s-50.5 -164.833 -50.5 -253.5s16.833 -173.334 50.5 -254.001
s79.167 -150.167 136.5 -208.5s126.166 -104.833 206.499 -139.5s164.833 -52 253.5 -52zM837 -46c-102 0 -199.5 20 -292.5 60s-173.167 93.667 -240.5 161s-121 147.666 -161 240.999s-60 190.666 -60 291.999c0 102 20 199.5 60 292.5s93.667 173.333 161 241
s147.5 121.5 240.5 161.5s190.5 60 292.5 60s199.5 -20 292.5 -60s173.167 -93.833 240.5 -161.5s121 -148 161 -241s60 -190.5 60 -292.5c0 -101.333 -20 -198.666 -60 -291.999s-93.667 -173.666 -161 -240.999s-147.5 -121 -240.5 -161s-190.5 -60 -292.5 -60z" />
    <glyph glyph-name="divide.uc.whitecircle" unicode="&#xf7;&#x20dd;" 
d="M1084 681h-494v75h494v-75zM769 917c0 18.667 6.33301 34.334 19 47.001s28.667 19 48 19c20 0 36.833 -6.33301 50.5 -19s20.5 -28.334 20.5 -47.001s-6.83301 -34 -20.5 -46s-30.5 -18 -50.5 -18c-19.333 0 -35.333 6 -48 18s-19 27.333 -19 46zM769 522
c0 19.333 6.5 35.334 19.5 48.001s29.167 19 48.5 19s35.833 -6.33301 49.5 -19s20.5 -28.334 20.5 -47.001s-6.66699 -34 -20 -46s-30 -18 -50 -18c-19.333 0 -35.5 6 -48.5 18s-19.5 27 -19.5 45zM837 54.001c88.667 0 173.167 17.333 253.5 52
s149.166 81.167 206.499 139.5s102.833 127.833 136.5 208.5s50.5 165.334 50.5 254.001s-16.833 173.167 -50.5 253.5s-79.167 149.666 -136.5 207.999s-126.166 104.833 -206.499 139.5s-164.833 52 -253.5 52s-173.167 -17.333 -253.5 -52
s-149.166 -81.167 -206.499 -139.5s-102.833 -127.666 -136.5 -207.999s-50.5 -164.833 -50.5 -253.5s16.833 -173.334 50.5 -254.001s79.167 -150.167 136.5 -208.5s126.166 -104.833 206.499 -139.5s164.833 -52 253.5 -52zM837 -45.999c-102 0 -199.5 20 -292.5 60
s-173.167 93.667 -240.5 161s-121 147.666 -161 240.999s-60 190.666 -60 291.999c0 102 20 199.5 60 292.5s93.667 173.333 161 241s147.5 121.5 240.5 161.5s190.5 60 292.5 60s199.5 -20 292.5 -60s173.167 -93.833 240.5 -161.5s121 -148 161 -241s60 -190.5 60 -292.5
c0 -101.333 -20 -198.666 -60 -291.999s-93.667 -173.666 -161 -240.999s-147.5 -121 -240.5 -161s-190.5 -60 -292.5 -60z" />
    <glyph glyph-name="equal.uc.whitecircle" unicode="&#x3d;&#x20dd;" 
d="M1074 573h-474v78h474v-78zM1074 786h-474v78h474v-78zM837 54c88.667 0 173.167 17.333 253.5 52s149.166 81.167 206.499 139.5s102.833 127.833 136.5 208.5s50.5 165.334 50.5 254.001s-16.833 173.167 -50.5 253.5s-79.167 149.666 -136.5 207.999
s-126.166 104.833 -206.499 139.5s-164.833 52 -253.5 52s-173.167 -17.333 -253.5 -52s-149.166 -81.167 -206.499 -139.5s-102.833 -127.666 -136.5 -207.999s-50.5 -164.833 -50.5 -253.5s16.833 -173.334 50.5 -254.001s79.167 -150.167 136.5 -208.5
s126.166 -104.833 206.499 -139.5s164.833 -52 253.5 -52zM837 -46c-102 0 -199.5 20 -292.5 60s-173.167 93.667 -240.5 161s-121 147.666 -161 240.999s-60 190.666 -60 291.999c0 102 20 199.5 60 292.5s93.667 173.333 161 241s147.5 121.5 240.5 161.5
s190.5 60 292.5 60s199.5 -20 292.5 -60s173.167 -93.833 240.5 -161.5s121 -148 161 -241s60 -190.5 60 -292.5c0 -101.333 -20 -198.666 -60 -291.999s-93.667 -173.666 -161 -240.999s-147.5 -121 -240.5 -161s-190.5 -60 -292.5 -60z" />
    <glyph glyph-name="greater.uc.whitecircle" unicode="&#x3e;&#x20dd;" 
d="M1094 745v-72l-463 -253v101l350 188v5l-350 193v102zM837 54c88.667 0 173.167 17.333 253.5 52s149.166 81.167 206.499 139.5s102.833 127.833 136.5 208.5s50.5 165.334 50.5 254.001s-16.833 173.167 -50.5 253.5s-79.167 149.666 -136.5 207.999
s-126.166 104.833 -206.499 139.5s-164.833 52 -253.5 52s-173.167 -17.333 -253.5 -52s-149.166 -81.167 -206.499 -139.5s-102.833 -127.666 -136.5 -207.999s-50.5 -164.833 -50.5 -253.5s16.833 -173.334 50.5 -254.001s79.167 -150.167 136.5 -208.5
s126.166 -104.833 206.499 -139.5s164.833 -52 253.5 -52zM837 -46c-102 0 -199.5 20 -292.5 60s-173.167 93.667 -240.5 161s-121 147.666 -161 240.999s-60 190.666 -60 291.999c0 102 20 199.5 60 292.5s93.667 173.333 161 241s147.5 121.5 240.5 161.5
s190.5 60 292.5 60s199.5 -20 292.5 -60s173.167 -93.833 240.5 -161.5s121 -148 161 -241s60 -190.5 60 -292.5c0 -101.333 -20 -198.666 -60 -291.999s-93.667 -173.666 -161 -240.999s-147.5 -121 -240.5 -161s-190.5 -60 -292.5 -60z" />
    <glyph glyph-name="less.uc.whitecircle" unicode="&#x3c;&#x20dd;" 
d="M581 673v72l462 264v-102l-350 -193v-5l350 -188v-101zM837 54c88.667 0 173.167 17.333 253.5 52s149.166 81.167 206.499 139.5s102.833 127.833 136.5 208.5s50.5 165.334 50.5 254.001s-16.833 173.167 -50.5 253.5s-79.167 149.666 -136.5 207.999
s-126.166 104.833 -206.499 139.5s-164.833 52 -253.5 52s-173.167 -17.333 -253.5 -52s-149.166 -81.167 -206.499 -139.5s-102.833 -127.666 -136.5 -207.999s-50.5 -164.833 -50.5 -253.5s16.833 -173.334 50.5 -254.001s79.167 -150.167 136.5 -208.5
s126.166 -104.833 206.499 -139.5s164.833 -52 253.5 -52zM837 -46c-102 0 -199.5 20 -292.5 60s-173.167 93.667 -240.5 161s-121 147.666 -161 240.999s-60 190.666 -60 291.999c0 102 20 199.5 60 292.5s93.667 173.333 161 241s147.5 121.5 240.5 161.5
s190.5 60 292.5 60s199.5 -20 292.5 -60s173.167 -93.833 240.5 -161.5s121 -148 161 -241s60 -190.5 60 -292.5c0 -101.333 -20 -198.666 -60 -291.999s-93.667 -173.666 -161 -240.999s-147.5 -121 -240.5 -161s-190.5 -60 -292.5 -60z" />
    <glyph glyph-name="numbersign.whitecircle" unicode="&#x30;&#x20dd;" 
d="M1118 804h-115l-33 -156h109l-16 -73h-109l-41 -197h-81l42 197h-145l-42 -197h-81l41 197h-111l15 73h112l33 156h-106l15 74h108l39 189h81l-40 -189h145l40 189h80l-39 -189h114zM774 807l-35 -165h154l35 165h-154zM837 54c88.667 0 173.167 17.333 253.5 52
s149.166 81.167 206.499 139.5s102.833 127.833 136.5 208.5s50.5 165.334 50.5 254.001s-16.833 173.167 -50.5 253.5s-79.167 149.666 -136.5 207.999s-126.166 104.833 -206.499 139.5s-164.833 52 -253.5 52s-173.167 -17.333 -253.5 -52
s-149.166 -81.167 -206.499 -139.5s-102.833 -127.666 -136.5 -207.999s-50.5 -164.833 -50.5 -253.5s16.833 -173.334 50.5 -254.001s79.167 -150.167 136.5 -208.5s126.166 -104.833 206.499 -139.5s164.833 -52 253.5 -52zM837 -46c-102 0 -199.5 20 -292.5 60
s-173.167 93.667 -240.5 161s-121 147.666 -161 240.999s-60 190.666 -60 291.999c0 102 20 199.5 60 292.5s93.667 173.333 161 241s147.5 121.5 240.5 161.5s190.5 60 292.5 60s199.5 -20 292.5 -60s173.167 -93.833 240.5 -161.5s121 -148 161 -241s60 -190.5 60 -292.5
c0 -101.333 -20 -198.666 -60 -291.999s-93.667 -173.666 -161 -240.999s-147.5 -121 -240.5 -161s-190.5 -60 -292.5 -60z" />
    <glyph glyph-name="uni25BC.whitecircle" unicode="&#x25bc;&#x20dd;" 
d="M1129 916l-292 -494l-292 494h584zM837 54c88.667 0 173.167 17.333 253.5 52s149.166 81.167 206.499 139.5s102.833 127.833 136.5 208.5s50.5 165.334 50.5 254.001s-16.833 173.167 -50.5 253.5s-79.167 149.666 -136.5 207.999s-126.166 104.833 -206.499 139.5
s-164.833 52 -253.5 52s-173.167 -17.333 -253.5 -52s-149.166 -81.167 -206.499 -139.5s-102.833 -127.666 -136.5 -207.999s-50.5 -164.833 -50.5 -253.5s16.833 -173.334 50.5 -254.001s79.167 -150.167 136.5 -208.5s126.166 -104.833 206.499 -139.5
s164.833 -52 253.5 -52zM837 -46c-102 0 -199.5 20 -292.5 60s-173.167 93.667 -240.5 161s-121 147.666 -161 240.999s-60 190.666 -60 291.999c0 102 20 199.5 60 292.5s93.667 173.333 161 241s147.5 121.5 240.5 161.5s190.5 60 292.5 60s199.5 -20 292.5 -60
s173.167 -93.833 240.5 -161.5s121 -148 161 -241s60 -190.5 60 -292.5c0 -101.333 -20 -198.666 -60 -291.999s-93.667 -173.666 -161 -240.999s-147.5 -121 -240.5 -161s-190.5 -60 -292.5 -60z" />
    <glyph glyph-name="uni25B2.whitecircle" unicode="&#x25b2;&#x20dd;" 
d="M1129 517h-584l292 494zM837 54c88.667 0 173.167 17.333 253.5 52s149.166 81.167 206.499 139.5s102.833 127.833 136.5 208.5s50.5 165.334 50.5 254.001s-16.833 173.167 -50.5 253.5s-79.167 149.666 -136.5 207.999s-126.166 104.833 -206.499 139.5
s-164.833 52 -253.5 52s-173.167 -17.333 -253.5 -52s-149.166 -81.167 -206.499 -139.5s-102.833 -127.666 -136.5 -207.999s-50.5 -164.833 -50.5 -253.5s16.833 -173.334 50.5 -254.001s79.167 -150.167 136.5 -208.5s126.166 -104.833 206.499 -139.5
s164.833 -52 253.5 -52zM837 -46c-102 0 -199.5 20 -292.5 60s-173.167 93.667 -240.5 161s-121 147.666 -161 240.999s-60 190.666 -60 291.999c0 102 20 199.5 60 292.5s93.667 173.333 161 241s147.5 121.5 240.5 161.5s190.5 60 292.5 60s199.5 -20 292.5 -60
s173.167 -93.833 240.5 -161.5s121 -148 161 -241s60 -190.5 60 -292.5c0 -101.333 -20 -198.666 -60 -291.999s-93.667 -173.666 -161 -240.999s-147.5 -121 -240.5 -161s-190.5 -60 -292.5 -60z" />
    <glyph glyph-name="uni25C0.whitecircle" unicode="&#x25c0;&#x20dd;" 
d="M1031 424l-494 293l494 292v-585zM837 54c88.667 0 173.167 17.333 253.5 52s149.166 81.167 206.499 139.5s102.833 127.833 136.5 208.5s50.5 165.334 50.5 254.001s-16.833 173.167 -50.5 253.5s-79.167 149.666 -136.5 207.999s-126.166 104.833 -206.499 139.5
s-164.833 52 -253.5 52s-173.167 -17.333 -253.5 -52s-149.166 -81.167 -206.499 -139.5s-102.833 -127.666 -136.5 -207.999s-50.5 -164.833 -50.5 -253.5s16.833 -173.334 50.5 -254.001s79.167 -150.167 136.5 -208.5s126.166 -104.833 206.499 -139.5
s164.833 -52 253.5 -52zM837 -46c-102 0 -199.5 20 -292.5 60s-173.167 93.667 -240.5 161s-121 147.666 -161 240.999s-60 190.666 -60 291.999c0 102 20 199.5 60 292.5s93.667 173.333 161 241s147.5 121.5 240.5 161.5s190.5 60 292.5 60s199.5 -20 292.5 -60
s173.167 -93.833 240.5 -161.5s121 -148 161 -241s60 -190.5 60 -292.5c0 -101.333 -20 -198.666 -60 -291.999s-93.667 -173.666 -161 -240.999s-147.5 -121 -240.5 -161s-190.5 -60 -292.5 -60z" />
    <glyph glyph-name="uni25B6.whitecircle" unicode="&#x25b6;&#x20dd;" 
d="M643 424v585l494 -292zM837 54c88.667 0 173.167 17.333 253.5 52s149.166 81.167 206.499 139.5s102.833 127.833 136.5 208.5s50.5 165.334 50.5 254.001s-16.833 173.167 -50.5 253.5s-79.167 149.666 -136.5 207.999s-126.166 104.833 -206.499 139.5
s-164.833 52 -253.5 52s-173.167 -17.333 -253.5 -52s-149.166 -81.167 -206.499 -139.5s-102.833 -127.666 -136.5 -207.999s-50.5 -164.833 -50.5 -253.5s16.833 -173.334 50.5 -254.001s79.167 -150.167 136.5 -208.5s126.166 -104.833 206.499 -139.5
s164.833 -52 253.5 -52zM837 -46c-102 0 -199.5 20 -292.5 60s-173.167 93.667 -240.5 161s-121 147.666 -161 240.999s-60 190.666 -60 291.999c0 102 20 199.5 60 292.5s93.667 173.333 161 241s147.5 121.5 240.5 161.5s190.5 60 292.5 60s199.5 -20 292.5 -60
s173.167 -93.833 240.5 -161.5s121 -148 161 -241s60 -190.5 60 -292.5c0 -101.333 -20 -198.666 -60 -291.999s-93.667 -173.666 -161 -240.999s-147.5 -121 -240.5 -161s-190.5 -60 -292.5 -60z" />
    <glyph glyph-name="question.whitecircle" unicode="&#x3f;&#x20dd;" 
d="M749 441c0 20 7.16699 36.333 21.5 49s32.166 19 53.499 19c22.667 0 41.167 -6.5 55.5 -19.5s21.5 -29.167 21.5 -48.5c0 -18.667 -7.33301 -34.5 -22 -47.5s-33 -19.5 -55 -19.5c-21.333 0 -39.166 6.33301 -53.499 19s-21.5 28.667 -21.5 48zM774 596
l-0.000976562 36.001c-1.33301 33.333 5.83398 62.166 21.501 86.499s39.834 47.833 72.501 70.5c32 22 54.667 41 68 57s20 36 20 60c0 32 -11.5 56.833 -34.5 74.5s-52.167 26.5 -87.5 26.5c-38 0 -68 -11.167 -90 -33.5s-33.333 -50.166 -34 -83.499h-95
c-0.666992 63.333 20.666 111.666 63.999 144.999s96.666 50 159.999 50c62.667 0 114.834 -15.5 156.501 -46.5s62.5 -73.5 62.5 -127.5c0 -36.667 -8.83301 -67 -26.5 -91s-44.167 -48.667 -79.5 -74c-34 -23.333 -56.667 -42.5 -68 -57.5s-17 -35.5 -17 -61.5v-31h-93z
M836.999 54.001c88.667 0 173.167 17.333 253.5 52s149.166 81.167 206.499 139.5s102.833 127.833 136.5 208.5s50.5 165.334 50.5 254.001s-16.833 173.167 -50.5 253.5s-79.167 149.666 -136.5 207.999s-126.166 104.833 -206.499 139.5s-164.833 52 -253.5 52
s-173.167 -17.333 -253.5 -52s-149.166 -81.167 -206.499 -139.5s-102.833 -127.666 -136.5 -207.999s-50.5 -164.833 -50.5 -253.5s16.833 -173.334 50.5 -254.001s79.167 -150.167 136.5 -208.5s126.166 -104.833 206.499 -139.5s164.833 -52 253.5 -52zM836.999 -45.999
c-102 0 -199.5 20 -292.5 60s-173.167 93.667 -240.5 161s-121 147.666 -161 240.999s-60 190.666 -60 291.999c0 102 20 199.5 60 292.5s93.667 173.333 161 241s147.5 121.5 240.5 161.5s190.5 60 292.5 60s199.5 -20 292.5 -60s173.167 -93.833 240.5 -161.5
s121 -148 161 -241s60 -190.5 60 -292.5c0 -101.333 -20 -198.666 -60 -291.999s-93.667 -173.666 -161 -240.999s-147.5 -121 -240.5 -161s-190.5 -60 -292.5 -60z" />
    <glyph glyph-name="exclam.whitecircle" unicode="&#x21;&#x20dd;" 
d="M761 441c0 20 7.16699 36.499 21.5 49.499s32.5 19.5 54.5 19.5s40.333 -6.66699 55 -20s22 -29.666 22 -48.999c0 -18.667 -7.33301 -34.5 -22 -47.5s-33 -19.5 -55 -19.5s-40.167 6.33301 -54.5 19s-21.5 28.667 -21.5 48zM783 1070h109l-11 -455h-88zM837 53.999
c88.667 0 173.167 17.333 253.5 52s149.166 81.167 206.499 139.5s102.833 127.833 136.5 208.5s50.5 165.334 50.5 254.001s-16.833 173.167 -50.5 253.5s-79.167 149.666 -136.5 207.999s-126.166 104.833 -206.499 139.5s-164.833 52 -253.5 52
s-173.167 -17.333 -253.5 -52s-149.166 -81.167 -206.499 -139.5s-102.833 -127.666 -136.5 -207.999s-50.5 -164.833 -50.5 -253.5s16.833 -173.334 50.5 -254.001s79.167 -150.167 136.5 -208.5s126.166 -104.833 206.499 -139.5s164.833 -52 253.5 -52zM837 -46.001
c-102 0 -199.5 20 -292.5 60s-173.167 93.667 -240.5 161s-121 147.666 -161 240.999s-60 190.666 -60 291.999c0 102 20 199.5 60 292.5s93.667 173.333 161 241s147.5 121.5 240.5 161.5s190.5 60 292.5 60s199.5 -20 292.5 -60s173.167 -93.833 240.5 -161.5
s121 -148 161 -241s60 -190.5 60 -292.5c0 -101.333 -20 -198.666 -60 -291.999s-93.667 -173.666 -161 -240.999s-147.5 -121 -240.5 -161s-190.5 -60 -292.5 -60z" />
    <glyph glyph-name="uni2717.whitecircle" unicode="&#x2717;&#x20dd;" 
d="M840 782l266 266l66 -66l-265 -266l265 -266l-66 -67l-266 266l-266 -266l-67 67l265 266l-266 267l66 66zM837 54c88.667 0 173.167 17.333 253.5 52s149.166 81.167 206.499 139.5s102.833 127.833 136.5 208.5s50.5 165.334 50.5 254.001s-16.833 173.167 -50.5 253.5
s-79.167 149.666 -136.5 207.999s-126.166 104.833 -206.499 139.5s-164.833 52 -253.5 52s-173.167 -17.333 -253.5 -52s-149.166 -81.167 -206.499 -139.5s-102.833 -127.666 -136.5 -207.999s-50.5 -164.833 -50.5 -253.5s16.833 -173.334 50.5 -254.001
s79.167 -150.167 136.5 -208.5s126.166 -104.833 206.499 -139.5s164.833 -52 253.5 -52zM837 -46c-102 0 -199.5 20 -292.5 60s-173.167 93.667 -240.5 161s-121 147.666 -161 240.999s-60 190.666 -60 291.999c0 102 20 199.5 60 292.5s93.667 173.333 161 241
s147.5 121.5 240.5 161.5s190.5 60 292.5 60s199.5 -20 292.5 -60s173.167 -93.833 240.5 -161.5s121 -148 161 -241s60 -190.5 60 -292.5c0 -101.333 -20 -198.666 -60 -291.999s-93.667 -173.666 -161 -240.999s-147.5 -121 -240.5 -161s-190.5 -60 -292.5 -60z" />
    <glyph glyph-name="uni2713.whitecircle" unicode="&#x2713;&#x20dd;" 
d="M1255 952l-541 -540l-283 283l70 70l213 -214l470 472zM837 54c88.667 0 173.167 17.333 253.5 52s149.166 81.167 206.499 139.5s102.833 127.833 136.5 208.5s50.5 165.334 50.5 254.001s-16.833 173.167 -50.5 253.5s-79.167 149.666 -136.5 207.999
s-126.166 104.833 -206.499 139.5s-164.833 52 -253.5 52s-173.167 -17.333 -253.5 -52s-149.166 -81.167 -206.499 -139.5s-102.833 -127.666 -136.5 -207.999s-50.5 -164.833 -50.5 -253.5s16.833 -173.334 50.5 -254.001s79.167 -150.167 136.5 -208.5
s126.166 -104.833 206.499 -139.5s164.833 -52 253.5 -52zM837 -46c-102 0 -199.5 20 -292.5 60s-173.167 93.667 -240.5 161s-121 147.666 -161 240.999s-60 190.666 -60 291.999c0 102 20 199.5 60 292.5s93.667 173.333 161 241s147.5 121.5 240.5 161.5
s190.5 60 292.5 60s199.5 -20 292.5 -60s173.167 -93.833 240.5 -161.5s121 -148 161 -241s60 -190.5 60 -292.5c0 -101.333 -20 -198.666 -60 -291.999s-93.667 -173.666 -161 -240.999s-147.5 -121 -240.5 -161s-190.5 -60 -292.5 -60z" />
    <glyph glyph-name="zero.whitesquare" unicode="&#x30;&#x20de;" 
d="M837 452c48.667 0 87.667 24.333 117 73s44 114.334 44 197.001c0 83.333 -14.667 149.166 -44 197.499s-68.333 72.5 -117 72.5s-87.667 -24.167 -117 -72.5s-44 -114.166 -44 -197.499c0 -82.667 14.667 -148.334 44 -197.001s68.333 -73 117 -73zM837 365
c-77.333 0 -139.833 32 -187.5 96s-71.5 151 -71.5 261c0 110.667 23.833 198 71.5 262s110.167 96 187.5 96s139.833 -32 187.5 -96s71.5 -151.333 71.5 -262c0 -110 -23.833 -197 -71.5 -261s-110.167 -96 -187.5 -96zM348 1439h978c67.333 0 124 -22.667 170 -68
s69 -101.333 69 -168v-986c0 -66.667 -23 -122.5 -69 -167.5s-102.667 -67.5 -170 -67.5h-978c-67.333 0 -124 22.5 -170 67.5s-69 100.833 -69 167.5v986c0 66.667 23 122.667 69 168s102.667 68 170 68zM1464 1202c0 41.333 -13.833 75.667 -41.5 103
s-62.834 41 -105.501 41h-960c-42 0 -77 -13.5 -105 -40.5s-42 -61.5 -42 -103.5v-983c0 -42 14 -76.5 42 -103.5s63 -40.5 105 -40.5h960c42.667 0 77.834 13.5 105.501 40.5s41.5 61.5 41.5 103.5v983z" />
    <glyph glyph-name="one.whitesquare" unicode="&#x31;&#x20de;" 
d="M925 382h-103v589h-5l-170 -114v95l175 118h103v-688zM348 1439h978c67.333 0 124 -22.667 170 -68s69 -101.333 69 -168v-986c0 -66.667 -23 -122.5 -69 -167.5s-102.667 -67.5 -170 -67.5h-978c-67.333 0 -124 22.5 -170 67.5s-69 100.833 -69 167.5v986
c0 66.667 23 122.667 69 168s102.667 68 170 68zM1464 1202c0 41.333 -13.833 75.667 -41.5 103s-62.834 41 -105.501 41h-960c-42 0 -77 -13.5 -105 -40.5s-42 -61.5 -42 -103.5v-983c0 -42 14 -76.5 42 -103.5s63 -40.5 105 -40.5h960c42.667 0 77.834 13.5 105.501 40.5
s41.5 61.5 41.5 103.5v983z" />
    <glyph glyph-name="two.whitesquare" unicode="&#x32;&#x20de;" 
d="M702 876l-99 -0.000976562v4c0 56 21.167 104 63.5 144s99.5 60 171.5 60c68.667 0 124 -17.833 166 -53.5s63 -81.167 63 -136.5c0 -37.333 -9.66699 -71.166 -29 -101.499s-50.333 -68.166 -93 -113.499l-193 -209v-5h331v-83h-473v63l272 290
c27.333 29.333 48 55.5 62 78.5s21 47.5 21 73.5c0 34 -12 61.833 -36 83.5s-55 32.5 -93 32.5c-40 0 -72.333 -11.833 -97 -35.5s-37 -52.834 -37 -87.501v-4zM348 1439h978c67.333 0 124 -22.667 170 -68s69 -101.333 69 -168v-986c0 -66.667 -23 -122.5 -69 -167.5
s-102.667 -67.5 -170 -67.5h-978c-67.333 0 -124 22.5 -170 67.5s-69 100.833 -69 167.5v986c0 66.667 23 122.667 69 168s102.667 68 170 68zM1464 1202c0 41.333 -13.833 75.667 -41.5 103s-62.834 41 -105.501 41h-960c-42 0 -77 -13.5 -105 -40.5s-42 -61.5 -42 -103.5
v-983c0 -42 14 -76.5 42 -103.5s63 -40.5 105 -40.5h960c42.667 0 77.834 13.5 105.501 40.5s41.5 61.5 41.5 103.5v983z" />
    <glyph glyph-name="three.whitesquare" unicode="&#x33;&#x20de;" 
d="M759 698l-0.00292969 79.001h78c37.333 0 68.5 11 93.5 33s37.5 49.667 37.5 83c-0.666992 32.667 -13.334 59.5 -38.001 80.5s-56.334 31.5 -95.001 31.5c-36.667 0 -67.5 -9.83301 -92.5 -29.5s-38.5 -43.167 -40.5 -70.5h-96c1.33301 50.667 23 93 65 127
s97.333 51.333 166 52c68.667 0 124.334 -16.667 167.001 -50s64.667 -75.666 66 -126.999c0.666992 -43.333 -13.166 -79.666 -41.499 -108.999s-59.833 -47 -94.5 -53v-6c41.333 -4 78 -20.833 110 -50.5s48.333 -68.834 49 -117.501
c0.666992 -60.667 -23.666 -109.667 -72.999 -147s-111 -56 -185 -56c-71.333 0 -129.166 17.333 -173.499 52s-68.166 78 -71.499 130h96c2.66699 -28.667 18.167 -52.834 46.5 -72.501s62.5 -29.5 102.5 -29.5c46 0 83.5 11.833 112.5 35.5s43.5 54.167 43.5 91.5
c-1.33301 35.333 -15.833 64.666 -43.5 87.999s-63.167 35 -106.5 35h-82zM347.997 1439h978c67.333 0 124 -22.667 170 -68s69 -101.333 69 -168v-986c0 -66.667 -23 -122.5 -69 -167.5s-102.667 -67.5 -170 -67.5h-978c-67.333 0 -124 22.5 -170 67.5
s-69 100.833 -69 167.5v986c0 66.667 23 122.667 69 168s102.667 68 170 68zM1464 1202c0 41.333 -13.833 75.667 -41.5 103s-62.834 41 -105.501 41h-960c-42 0 -77 -13.5 -105 -40.5s-42 -61.5 -42 -103.5v-983c0 -42 14 -76.5 42 -103.5s63 -40.5 105 -40.5h960
c42.667 0 77.834 13.5 105.501 40.5s41.5 61.5 41.5 103.5v983z" />
    <glyph glyph-name="four.whitesquare" unicode="&#x34;&#x20de;" 
d="M849 1070h151v-465h97v-82h-97v-141h-97v141h-350v85c18 31.333 41 69.333 69 114l73 114.5l84 127.5zM651 605h252v387h-6c-109.333 -160 -191.333 -287.667 -246 -383v-4zM348 1439h978c67.333 0 124 -22.667 170 -68s69 -101.333 69 -168v-986
c0 -66.667 -23 -122.5 -69 -167.5s-102.667 -67.5 -170 -67.5h-978c-67.333 0 -124 22.5 -170 67.5s-69 100.833 -69 167.5v986c0 66.667 23 122.667 69 168s102.667 68 170 68zM1464 1202c0 41.333 -13.833 75.667 -41.5 103s-62.834 41 -105.501 41h-960
c-42 0 -77 -13.5 -105 -40.5s-42 -61.5 -42 -103.5v-983c0 -42 14 -76.5 42 -103.5s63 -40.5 105 -40.5h960c42.667 0 77.834 13.5 105.501 40.5s41.5 61.5 41.5 103.5v983z" />
    <glyph glyph-name="five.whitesquare" unicode="&#x35;&#x20de;" 
d="M596 549l96 -0.000976562c6 -30.667 23 -55 51 -73s60.333 -27 97 -27c42.667 0 79.167 14.333 109.5 43s45.5 66.334 45.5 113.001c0 43.333 -14.667 78.666 -44 105.999s-65.666 41 -108.999 41c-60.667 0 -107.667 -25.333 -141 -76h-91l32 395h416v-82h-332l-19 -225
h5c12.667 18 32.667 33.667 60 47s58.666 20 93.999 20c65.333 0 120 -20.333 164 -61s66 -94.667 66 -162c0 -71.333 -24.167 -129.166 -72.5 -173.499s-111.166 -66.5 -188.499 -66.5c-66.667 0 -122.334 17.167 -167.001 51.5s-68.667 77.5 -72 129.5zM348 1439h978
c67.333 0 124 -22.667 170 -68s69 -101.333 69 -168v-986c0 -66.667 -23 -122.5 -69 -167.5s-102.667 -67.5 -170 -67.5h-978c-67.333 0 -124 22.5 -170 67.5s-69 100.833 -69 167.5v986c0 66.667 23 122.667 69 168s102.667 68 170 68zM1464 1202
c0 41.333 -13.833 75.667 -41.5 103s-62.834 41 -105.501 41h-960c-42 0 -77 -13.5 -105 -40.5s-42 -61.5 -42 -103.5v-983c0 -42 14 -76.5 42 -103.5s63 -40.5 105 -40.5h960c42.667 0 77.834 13.5 105.501 40.5s41.5 61.5 41.5 103.5v983z" />
    <glyph glyph-name="six.whitesquare" unicode="&#x36;&#x20de;" 
d="M1082 923h-99c-6.66699 22 -21.5 40.667 -44.5 56s-51.5 23 -85.5 23c-54 0 -97 -25 -129 -75s-47.667 -118.667 -47 -206v-3h6c14 31.333 37.167 57.333 69.5 78s72.166 31 119.499 31c62 0 115.167 -20.167 159.5 -60.5s66.5 -93.833 66.5 -160.5
c0 -72.667 -23.5 -130.5 -70.5 -173.5s-108.167 -64.5 -183.5 -64.5c-98.667 0 -171 37.667 -217 113c-32.667 54 -49 128.667 -49 224c0 123.333 24.5 217 73.5 281s116.833 96 203.5 96c63.333 0 115.833 -16 157.5 -48s64.834 -69 69.501 -111zM692 601
c0 -45.333 14.501 -82 43.501 -110s65.5 -42 109.5 -42c45.333 0 82.166 13.333 110.499 40s42.5 63.667 42.5 111c0 46 -14.667 82.333 -44 109s-65.666 40 -108.999 40c-44.667 0 -81.334 -13.833 -110.001 -41.5s-43 -63.167 -43 -106.5zM348.001 1439h978
c67.333 0 124 -22.667 170 -68s69 -101.333 69 -168v-986c0 -66.667 -23 -122.5 -69 -167.5s-102.667 -67.5 -170 -67.5h-978c-67.333 0 -124 22.5 -170 67.5s-69 100.833 -69 167.5v986c0 66.667 23 122.667 69 168s102.667 68 170 68zM1464 1202
c0 41.333 -13.833 75.667 -41.5 103s-62.834 41 -105.501 41h-960c-42 0 -77 -13.5 -105 -40.5s-42 -61.5 -42 -103.5v-983c0 -42 14 -76.5 42 -103.5s63 -40.5 105 -40.5h960c42.667 0 77.834 13.5 105.501 40.5s41.5 61.5 41.5 103.5v983z" />
    <glyph glyph-name="seven.whitesquare" unicode="&#x37;&#x20de;" 
d="M607 1070h473v-84l-296 -604h-109l301 600v6h-369v82zM348 1439h978c67.333 0 124 -22.667 170 -68s69 -101.333 69 -168v-986c0 -66.667 -23 -122.5 -69 -167.5s-102.667 -67.5 -170 -67.5h-978c-67.333 0 -124 22.5 -170 67.5s-69 100.833 -69 167.5v986
c0 66.667 23 122.667 69 168s102.667 68 170 68zM1464 1202c0 41.333 -13.833 75.667 -41.5 103s-62.834 41 -105.501 41h-960c-42 0 -77 -13.5 -105 -40.5s-42 -61.5 -42 -103.5v-983c0 -42 14 -76.5 42 -103.5s63 -40.5 105 -40.5h960c42.667 0 77.834 13.5 105.501 40.5
s41.5 61.5 41.5 103.5v983z" />
    <glyph glyph-name="eight.whitesquare" unicode="&#x38;&#x20de;" 
d="M838 444c47.333 0 86.166 12.333 116.499 37s45.5 56.334 45.5 95.001c0 38 -15.167 69.167 -45.5 93.5s-69.166 36.5 -116.499 36.5s-86.5 -12.333 -117.5 -37s-46.5 -55.667 -46.5 -93c0 -38.667 15.5 -70.334 46.5 -95.001s70.167 -37 117.5 -37zM838 778
c39.333 0 71.833 10.833 97.5 32.5s38.5 49.5 38.5 83.5c0 33.333 -12.667 60.666 -38 81.999s-58 32 -98 32s-72.833 -10.667 -98.5 -32s-38.5 -48.666 -38.5 -81.999c0 -34 12.833 -61.833 38.5 -83.5s58.5 -32.5 98.5 -32.5zM836 368c-78 0 -141.332 18.667 -189.999 56
s-73 86.333 -73 147c0 42 14 79 42 111s64 52.333 108 61v5c-37.333 11.333 -67 30.833 -89 58.5s-33 59.5 -33 95.5c0 52.667 22.167 96.167 66.5 130.5s101.166 51.5 170.499 51.5c68.667 0 125.167 -17.167 169.5 -51.5s66.5 -77.833 66.5 -130.5
c0 -36 -11.167 -68 -33.5 -96s-51.833 -47.333 -88.5 -58v-5c44 -8.66699 80 -29 108 -61s42 -69 42 -111c0 -60 -24.667 -108.833 -74 -146.5s-113.333 -56.5 -192 -56.5zM348.001 1439h978c67.333 0 124 -22.667 170 -68s69 -101.333 69 -168v-986
c0 -66.667 -23 -122.5 -69 -167.5s-102.667 -67.5 -170 -67.5h-978c-67.333 0 -124 22.5 -170 67.5s-69 100.833 -69 167.5v986c0 66.667 23 122.667 69 168s102.667 68 170 68zM1464 1202c0 41.333 -13.833 75.667 -41.5 103s-62.834 41 -105.501 41h-960
c-42 0 -77 -13.5 -105 -40.5s-42 -61.5 -42 -103.5v-983c0 -42 14 -76.5 42 -103.5s63 -40.5 105 -40.5h960c42.667 0 77.834 13.5 105.501 40.5s41.5 61.5 41.5 103.5v983z" />
    <glyph glyph-name="nine.whitesquare" unicode="&#x39;&#x20de;" 
d="M576 850c0 70.667 24 127.167 72 169.5s109 63.5 183 63.5c78.667 0 142.5 -26.5 191.5 -79.5s73.5 -138.167 73.5 -255.5c0 -124.667 -23.5 -219 -70.5 -283s-116.167 -96 -207.5 -96c-62.667 0 -114.167 15.167 -154.5 45.5s-63.5 66.833 -69.5 109.5h99
c6 -20.667 20.667 -38.334 44 -53.001s51 -22 83 -22c60 0 105.167 25.833 135.5 77.5s44.5 120.167 42.5 205.5h-5c-14 -32.667 -37 -59.167 -69 -79.5s-71.333 -30.5 -118 -30.5c-64.667 0 -119.167 20.833 -163.5 62.5s-66.5 96.834 -66.5 165.501zM981 850
c0 46 -14.5 83.167 -43.5 111.5s-65.5 42.5 -109.5 42.5s-80.333 -13.833 -109 -41.5s-43 -64.5 -43 -110.5c0 -46.667 14.333 -83.667 43 -111s65 -41 109 -41s80.5 13.5 109.5 40.5s43.5 63.5 43.5 109.5zM348 1439h978c67.333 0 124 -22.667 170 -68s69 -101.333 69 -168
v-986c0 -66.667 -23 -122.5 -69 -167.5s-102.667 -67.5 -170 -67.5h-978c-67.333 0 -124 22.5 -170 67.5s-69 100.833 -69 167.5v986c0 66.667 23 122.667 69 168s102.667 68 170 68zM1464 1202c0 41.333 -13.833 75.667 -41.5 103s-62.834 41 -105.501 41h-960
c-42 0 -77 -13.5 -105 -40.5s-42 -61.5 -42 -103.5v-983c0 -42 14 -76.5 42 -103.5s63 -40.5 105 -40.5h960c42.667 0 77.834 13.5 105.501 40.5s41.5 61.5 41.5 103.5v983z" />
    <glyph glyph-name="plus.uc.whitesquare" unicode="&#x2b;&#x20de;" 
d="M880 680v-223h-87v223h-216v83h216v214h87v-214h216v-83h-216zM348 1439h978c67.333 0 124 -22.667 170 -68s69 -101.333 69 -168v-986c0 -66.667 -23 -122.5 -69 -167.5s-102.667 -67.5 -170 -67.5h-978c-67.333 0 -124 22.5 -170 67.5s-69 100.833 -69 167.5v986
c0 66.667 23 122.667 69 168s102.667 68 170 68zM1464 1202c0 41.333 -13.833 75.667 -41.5 103s-62.834 41 -105.501 41h-960c-42 0 -77 -13.5 -105 -40.5s-42 -61.5 -42 -103.5v-983c0 -42 14 -76.5 42 -103.5s63 -40.5 105 -40.5h960c42.667 0 77.834 13.5 105.501 40.5
s41.5 61.5 41.5 103.5v983z" />
    <glyph glyph-name="minus.uc.whitesquare" unicode="&#x2212;&#x20de;" 
d="M1084 677h-494v84h494v-84zM348 1439h978c67.333 0 124 -22.667 170 -68s69 -101.333 69 -168v-986c0 -66.667 -23 -122.5 -69 -167.5s-102.667 -67.5 -170 -67.5h-978c-67.333 0 -124 22.5 -170 67.5s-69 100.833 -69 167.5v986c0 66.667 23 122.667 69 168
s102.667 68 170 68zM1464 1202c0 41.333 -13.833 75.667 -41.5 103s-62.834 41 -105.501 41h-960c-42 0 -77 -13.5 -105 -40.5s-42 -61.5 -42 -103.5v-983c0 -42 14 -76.5 42 -103.5s63 -40.5 105 -40.5h960c42.667 0 77.834 13.5 105.501 40.5s41.5 61.5 41.5 103.5v983z
" />
    <glyph glyph-name="multiply.uc.whitesquare" unicode="&#xd7;&#x20de;" 
d="M838 777l162 157l62 -59l-162 -157l162 -157l-62 -59l-162 157l-164 -160l-62 59l165 160l-162 157l61 59zM348 1439h978c67.333 0 124 -22.667 170 -68s69 -101.333 69 -168v-986c0 -66.667 -23 -122.5 -69 -167.5s-102.667 -67.5 -170 -67.5h-978
c-67.333 0 -124 22.5 -170 67.5s-69 100.833 -69 167.5v986c0 66.667 23 122.667 69 168s102.667 68 170 68zM1464 1202c0 41.333 -13.833 75.667 -41.5 103s-62.834 41 -105.501 41h-960c-42 0 -77 -13.5 -105 -40.5s-42 -61.5 -42 -103.5v-983c0 -42 14 -76.5 42 -103.5
s63 -40.5 105 -40.5h960c42.667 0 77.834 13.5 105.501 40.5s41.5 61.5 41.5 103.5v983z" />
    <glyph glyph-name="divide.uc.whitesquare" unicode="&#xf7;&#x20de;" 
d="M1084 681h-494v75h494v-75zM769 917c0 18.667 6.33301 34.334 19 47.001s28.667 19 48 19c20 0 36.833 -6.33301 50.5 -19s20.5 -28.334 20.5 -47.001s-6.83301 -34 -20.5 -46s-30.5 -18 -50.5 -18c-19.333 0 -35.333 6 -48 18s-19 27.333 -19 46zM769 522
c0 19.333 6.5 35.334 19.5 48.001s29.167 19 48.5 19s35.833 -6.33301 49.5 -19s20.5 -28.334 20.5 -47.001s-6.66699 -34 -20 -46s-30 -18 -50 -18c-19.333 0 -35.5 6 -48.5 18s-19.5 27 -19.5 45zM348 1439h978c67.333 0 124 -22.667 170 -68s69 -101.333 69 -168v-986
c0 -66.667 -23 -122.5 -69 -167.5s-102.667 -67.5 -170 -67.5h-978c-67.333 0 -124 22.5 -170 67.5s-69 100.833 -69 167.5v986c0 66.667 23 122.667 69 168s102.667 68 170 68zM1464 1202c0 41.333 -13.833 75.667 -41.5 103s-62.834 41 -105.501 41h-960
c-42 0 -77 -13.5 -105 -40.5s-42 -61.5 -42 -103.5v-983c0 -42 14 -76.5 42 -103.5s63 -40.5 105 -40.5h960c42.667 0 77.834 13.5 105.501 40.5s41.5 61.5 41.5 103.5v983z" />
    <glyph glyph-name="equal.uc.whitesquare" unicode="&#x3d;&#x20de;" 
d="M1074 573h-474v78h474v-78zM1074 786h-474v78h474v-78zM348 1439h978c67.333 0 124 -22.667 170 -68s69 -101.333 69 -168v-986c0 -66.667 -23 -122.5 -69 -167.5s-102.667 -67.5 -170 -67.5h-978c-67.333 0 -124 22.5 -170 67.5s-69 100.833 -69 167.5v986
c0 66.667 23 122.667 69 168s102.667 68 170 68zM1464 1202c0 41.333 -13.833 75.667 -41.5 103s-62.834 41 -105.501 41h-960c-42 0 -77 -13.5 -105 -40.5s-42 -61.5 -42 -103.5v-983c0 -42 14 -76.5 42 -103.5s63 -40.5 105 -40.5h960c42.667 0 77.834 13.5 105.501 40.5
s41.5 61.5 41.5 103.5v983z" />
    <glyph glyph-name="greater.uc.whitesquare" unicode="&#x3e;&#x20de;" 
d="M1094 745v-72l-463 -253v101l350 188v5l-350 193v102zM348 1439h978c67.333 0 124 -22.667 170 -68s69 -101.333 69 -168v-986c0 -66.667 -23 -122.5 -69 -167.5s-102.667 -67.5 -170 -67.5h-978c-67.333 0 -124 22.5 -170 67.5s-69 100.833 -69 167.5v986
c0 66.667 23 122.667 69 168s102.667 68 170 68zM1464 1202c0 41.333 -13.833 75.667 -41.5 103s-62.834 41 -105.501 41h-960c-42 0 -77 -13.5 -105 -40.5s-42 -61.5 -42 -103.5v-983c0 -42 14 -76.5 42 -103.5s63 -40.5 105 -40.5h960c42.667 0 77.834 13.5 105.501 40.5
s41.5 61.5 41.5 103.5v983z" />
    <glyph glyph-name="less.uc.whitesquare" unicode="&#x3c;&#x20de;" 
d="M581 673v72l462 264v-102l-350 -193v-5l350 -188v-101zM348 1439h978c67.333 0 124 -22.667 170 -68s69 -101.333 69 -168v-986c0 -66.667 -23 -122.5 -69 -167.5s-102.667 -67.5 -170 -67.5h-978c-67.333 0 -124 22.5 -170 67.5s-69 100.833 -69 167.5v986
c0 66.667 23 122.667 69 168s102.667 68 170 68zM1464 1202c0 41.333 -13.833 75.667 -41.5 103s-62.834 41 -105.501 41h-960c-42 0 -77 -13.5 -105 -40.5s-42 -61.5 -42 -103.5v-983c0 -42 14 -76.5 42 -103.5s63 -40.5 105 -40.5h960c42.667 0 77.834 13.5 105.501 40.5
s41.5 61.5 41.5 103.5v983z" />
    <glyph glyph-name="numbersign.whitesquare" unicode="&#x23;&#x20de;" 
d="M1118 804h-115l-33 -156h109l-16 -73h-109l-41 -197h-81l42 197h-145l-42 -197h-81l41 197h-111l15 73h112l33 156h-106l15 74h108l39 189h81l-40 -189h145l40 189h80l-39 -189h114zM774 807l-35 -165h154l35 165h-154zM348 1439h978c67.333 0 124 -22.667 170 -68
s69 -101.333 69 -168v-986c0 -66.667 -23 -122.5 -69 -167.5s-102.667 -67.5 -170 -67.5h-978c-67.333 0 -124 22.5 -170 67.5s-69 100.833 -69 167.5v986c0 66.667 23 122.667 69 168s102.667 68 170 68zM1464 1202c0 41.333 -13.833 75.667 -41.5 103
s-62.834 41 -105.501 41h-960c-42 0 -77 -13.5 -105 -40.5s-42 -61.5 -42 -103.5v-983c0 -42 14 -76.5 42 -103.5s63 -40.5 105 -40.5h960c42.667 0 77.834 13.5 105.501 40.5s41.5 61.5 41.5 103.5v983z" />
    <glyph glyph-name="uni25BC.whitesquare" unicode="&#x25bc;&#x20de;" 
d="M1130 916l-292 -494l-293 494h585zM348 1439h978c67.333 0 124 -22.667 170 -68s69 -101.333 69 -168v-986c0 -66.667 -23 -122.5 -69 -167.5s-102.667 -67.5 -170 -67.5h-978c-67.333 0 -124 22.5 -170 67.5s-69 100.833 -69 167.5v986c0 66.667 23 122.667 69 168
s102.667 68 170 68zM1464 1202c0 41.333 -13.833 75.667 -41.5 103s-62.834 41 -105.501 41h-960c-42 0 -77 -13.5 -105 -40.5s-42 -61.5 -42 -103.5v-983c0 -42 14 -76.5 42 -103.5s63 -40.5 105 -40.5h960c42.667 0 77.834 13.5 105.501 40.5s41.5 61.5 41.5 103.5v983z
" />
    <glyph glyph-name="uni25B2.whitesquare" unicode="&#x25b2;&#x20de;" 
d="M1129 517h-584l292 494zM348 1439h978c67.333 0 124 -22.667 170 -68s69 -101.333 69 -168v-986c0 -66.667 -23 -122.5 -69 -167.5s-102.667 -67.5 -170 -67.5h-978c-67.333 0 -124 22.5 -170 67.5s-69 100.833 -69 167.5v986c0 66.667 23 122.667 69 168
s102.667 68 170 68zM1464 1202c0 41.333 -13.833 75.667 -41.5 103s-62.834 41 -105.501 41h-960c-42 0 -77 -13.5 -105 -40.5s-42 -61.5 -42 -103.5v-983c0 -42 14 -76.5 42 -103.5s63 -40.5 105 -40.5h960c42.667 0 77.834 13.5 105.501 40.5s41.5 61.5 41.5 103.5v983z
" />
    <glyph glyph-name="uni25C0.whitesquare" unicode="&#x25c0;&#x20de;" 
d="M1031 424l-494 293l494 292v-585zM348 1439h978c67.333 0 124 -22.667 170 -68s69 -101.333 69 -168v-986c0 -66.667 -23 -122.5 -69 -167.5s-102.667 -67.5 -170 -67.5h-978c-67.333 0 -124 22.5 -170 67.5s-69 100.833 -69 167.5v986c0 66.667 23 122.667 69 168
s102.667 68 170 68zM1464 1202c0 41.333 -13.833 75.667 -41.5 103s-62.834 41 -105.501 41h-960c-42 0 -77 -13.5 -105 -40.5s-42 -61.5 -42 -103.5v-983c0 -42 14 -76.5 42 -103.5s63 -40.5 105 -40.5h960c42.667 0 77.834 13.5 105.501 40.5s41.5 61.5 41.5 103.5v983z
" />
    <glyph glyph-name="uni25B6.whitesquare" unicode="&#x25b6;&#x20de;" 
d="M643 424v585l494 -292zM348 1439h978c67.333 0 124 -22.667 170 -68s69 -101.333 69 -168v-986c0 -66.667 -23 -122.5 -69 -167.5s-102.667 -67.5 -170 -67.5h-978c-67.333 0 -124 22.5 -170 67.5s-69 100.833 -69 167.5v986c0 66.667 23 122.667 69 168
s102.667 68 170 68zM1464 1202c0 41.333 -13.833 75.667 -41.5 103s-62.834 41 -105.501 41h-960c-42 0 -77 -13.5 -105 -40.5s-42 -61.5 -42 -103.5v-983c0 -42 14 -76.5 42 -103.5s63 -40.5 105 -40.5h960c42.667 0 77.834 13.5 105.501 40.5s41.5 61.5 41.5 103.5v983z
" />
    <glyph glyph-name="question.whitesquare" unicode="&#x3f;&#x20de;" 
d="M749 441c0 20 7.16699 36.333 21.5 49s32.166 19 53.499 19c22.667 0 41.167 -6.5 55.5 -19.5s21.5 -29.167 21.5 -48.5c0 -18.667 -7.33301 -34.5 -22 -47.5s-33 -19.5 -55 -19.5c-21.333 0 -39.166 6.33301 -53.499 19s-21.5 28.667 -21.5 48zM615 890
c-0.666992 63.333 20.665 111.667 63.998 145s96.666 50 159.999 50c62.667 0 114.834 -15.5 156.501 -46.5s62.5 -73.5 62.5 -127.5c0 -36.667 -8.83301 -67 -26.5 -91s-44.167 -48.667 -79.5 -74c-34 -23.333 -56.667 -42.5 -68 -57.5s-17 -35.5 -17 -61.5v-31h-93v36
c-1.33301 33.333 5.83398 62.166 21.501 86.499s39.834 47.833 72.501 70.5c32 22 54.667 41 68 57s20 36 20 60c0 32 -11.5 56.833 -34.5 74.5s-52.167 26.5 -87.5 26.5c-38 0 -68 -11.167 -90 -33.5s-33.333 -50.166 -34 -83.499h-95zM347.999 1439h978
c67.333 0 124 -22.667 170 -68s69 -101.333 69 -168v-986c0 -66.667 -23 -122.5 -69 -167.5s-102.667 -67.5 -170 -67.5h-978c-67.333 0 -124 22.5 -170 67.5s-69 100.833 -69 167.5v986c0 66.667 23 122.667 69 168s102.667 68 170 68zM1464 1202
c0 41.333 -13.833 75.667 -41.5 103s-62.834 41 -105.501 41h-960c-42 0 -77 -13.5 -105 -40.5s-42 -61.5 -42 -103.5v-983c0 -42 14 -76.5 42 -103.5s63 -40.5 105 -40.5h960c42.667 0 77.834 13.5 105.501 40.5s41.5 61.5 41.5 103.5v983z" />
    <glyph glyph-name="exclam.whitesquare" unicode="&#x21;&#x20de;" 
d="M761 441c0 20 7.16699 36.499 21.5 49.499s32.5 19.5 54.5 19.5s40.333 -6.66699 55 -20s22 -29.666 22 -48.999c0 -18.667 -7.33301 -34.5 -22 -47.5s-33 -19.5 -55 -19.5s-40.167 6.33301 -54.5 19s-21.5 28.667 -21.5 48zM783 1070h109l-11 -455h-88zM348 1439h978
c67.333 0 124 -22.667 170 -68s69 -101.333 69 -168v-986c0 -66.667 -23 -122.5 -69 -167.5s-102.667 -67.5 -170 -67.5h-978c-67.333 0 -124 22.5 -170 67.5s-69 100.833 -69 167.5v986c0 66.667 23 122.667 69 168s102.667 68 170 68zM1464 1202
c0 41.333 -13.833 75.667 -41.5 103s-62.834 41 -105.501 41h-960c-42 0 -77 -13.5 -105 -40.5s-42 -61.5 -42 -103.5v-983c0 -42 14 -76.5 42 -103.5s63 -40.5 105 -40.5h960c42.667 0 77.834 13.5 105.501 40.5s41.5 61.5 41.5 103.5v983z" />
    <glyph glyph-name="uni2717.whitesquare" unicode="&#x2717;&#x20de;" 
d="M840 782l266 266l66 -66l-265 -266l265 -266l-66 -67l-266 266l-266 -266l-67 67l265 266l-266 267l66 66zM348 1439h978c67.333 0 124 -22.667 170 -68s69 -101.333 69 -168v-986c0 -66.667 -23 -122.5 -69 -167.5s-102.667 -67.5 -170 -67.5h-978
c-67.333 0 -124 22.5 -170 67.5s-69 100.833 -69 167.5v986c0 66.667 23 122.667 69 168s102.667 68 170 68zM1464 1202c0 41.333 -13.833 75.667 -41.5 103s-62.834 41 -105.501 41h-960c-42 0 -77 -13.5 -105 -40.5s-42 -61.5 -42 -103.5v-983c0 -42 14 -76.5 42 -103.5
s63 -40.5 105 -40.5h960c42.667 0 77.834 13.5 105.501 40.5s41.5 61.5 41.5 103.5v983z" />
    <glyph glyph-name="uni2713.whitesquare" unicode="&#x2713;&#x20de;" 
d="M1255 952l-541 -540l-283 283l70 70l213 -214l470 472zM348 1439h978c67.333 0 124 -22.667 170 -68s69 -101.333 69 -168v-986c0 -66.667 -23 -122.5 -69 -167.5s-102.667 -67.5 -170 -67.5h-978c-67.333 0 -124 22.5 -170 67.5s-69 100.833 -69 167.5v986
c0 66.667 23 122.667 69 168s102.667 68 170 68zM1464 1202c0 41.333 -13.833 75.667 -41.5 103s-62.834 41 -105.501 41h-960c-42 0 -77 -13.5 -105 -40.5s-42 -61.5 -42 -103.5v-983c0 -42 14 -76.5 42 -103.5s63 -40.5 105 -40.5h960c42.667 0 77.834 13.5 105.501 40.5
s41.5 61.5 41.5 103.5v983z" />
    <glyph glyph-name="plus.uc.blackcircle" unicode="&#x2b;&#x20dd;&#x25cf;" 
d="M890 674h232v98h-232v231h-106v-231h-232v-98h232v-241h106v241zM837 -46c-102 0 -199.5 20 -292.5 60s-173.167 93.667 -240.5 161s-121 147.5 -161 240.5s-60 190.5 -60 292.5s20 199.5 60 292.5s93.667 173.167 161 240.5s147.5 121 240.5 161s190.5 60 292.5 60
s199.5 -20 292.5 -60s173.167 -93.667 240.5 -161s121 -147.5 161 -240.5s60 -190.5 60 -292.5s-20 -199.5 -60 -292.5s-93.667 -173.167 -161 -240.5s-147.5 -121 -240.5 -161s-190.5 -60 -292.5 -60z" />
    <glyph glyph-name="minus.uc.blackcircle" unicode="&#x2212;&#x20dd;&#x25cf;" 
d="M1108 669v101h-542v-101h542zM837 -46c-102 0 -199.5 20 -292.5 60s-173.167 93.667 -240.5 161s-121 147.5 -161 240.5s-60 190.5 -60 292.5s20 199.5 60 292.5s93.667 173.167 161 240.5s147.5 121 240.5 161s190.5 60 292.5 60s199.5 -20 292.5 -60
s173.167 -93.667 240.5 -161s121 -147.5 161 -240.5s60 -190.5 60 -292.5s-20 -199.5 -60 -292.5s-93.667 -173.167 -161 -240.5s-147.5 -121 -240.5 -161s-190.5 -60 -292.5 -60z" />
    <glyph glyph-name="multiply.uc.blackcircle" unicode="&#xd7;&#x20dd;&#x25cf;" 
d="M835 787l-174 169l-75 -72l174 -169l-174 -168l75 -72l174 168l174 -168l74 72l-174 168l174 169l-74 72zM837 -46c-102 0 -199.5 20 -292.5 60s-173.167 93.667 -240.5 161s-121 147.5 -161 240.5s-60 190.5 -60 292.5s20 199.5 60 292.5s93.667 173.167 161 240.5
s147.5 121 240.5 161s190.5 60 292.5 60s199.5 -20 292.5 -60s173.167 -93.667 240.5 -161s121 -147.5 161 -240.5s60 -190.5 60 -292.5s-20 -199.5 -60 -292.5s-93.667 -173.167 -161 -240.5s-147.5 -121 -240.5 -161s-190.5 -60 -292.5 -60z" />
    <glyph glyph-name="divide.uc.blackcircle" unicode="&#xf7;&#x20dd;&#x25cf;" 
d="M757 934c0 -21.333 7.66699 -39.001 23 -53.001s34 -21 56 -21c22.667 0 42 7 58 21s24 31.667 24 53c0 22.667 -7.83301 41.334 -23.5 56.001s-35.167 22 -58.5 22c-22 0 -40.667 -7.5 -56 -22.5s-23 -33.5 -23 -55.5zM1108 672.999v91h-542v-91h542zM757 505.999
c0 -21.333 7.66699 -38.999 23 -52.999s34.333 -21 57 -21s41.834 7.16699 57.501 21.5s23.5 32.166 23.5 53.499c0 22 -7.83301 40.167 -23.5 54.5s-34.834 21.5 -57.501 21.5s-41.667 -7.33301 -57 -22s-23 -33 -23 -55zM837 -46c-102 0 -199.5 20 -292.5 60
s-173.167 93.667 -240.5 161s-121 147.5 -161 240.5s-60 190.5 -60 292.5s20 199.5 60 292.5s93.667 173.167 161 240.5s147.5 121 240.5 161s190.5 60 292.5 60s199.5 -20 292.5 -60s173.167 -93.667 240.5 -161s121 -147.5 161 -240.5s60 -190.5 60 -292.5
s-20 -199.5 -60 -292.5s-93.667 -173.167 -161 -240.5s-147.5 -121 -240.5 -161s-190.5 -60 -292.5 -60z" />
    <glyph glyph-name="equal.uc.blackcircle" unicode="&#x3d;&#x20dd;&#x25cf;" 
d="M1096 787v95h-518v-95h518zM1096 557v94h-518v-94h518zM837 -46c-102 0 -199.5 20 -292.5 60s-173.167 93.667 -240.5 161s-121 147.5 -161 240.5s-60 190.5 -60 292.5s20 199.5 60 292.5s93.667 173.167 161 240.5s147.5 121 240.5 161s190.5 60 292.5 60
s199.5 -20 292.5 -60s173.167 -93.667 240.5 -161s121 -147.5 161 -240.5s60 -190.5 60 -292.5s-20 -199.5 -60 -292.5s-93.667 -173.167 -161 -240.5s-147.5 -121 -240.5 -161s-190.5 -60 -292.5 -60z" />
    <glyph glyph-name="greater.uc.blackcircle" unicode="&#x3e;&#x20dd;&#x25cf;" 
d="M1113 752l-508 288v-119l379 -209v-2l-379 -201v-119l508 277v85zM837 -46c-102 0 -199.5 20 -292.5 60s-173.167 93.667 -240.5 161s-121 147.5 -161 240.5s-60 190.5 -60 292.5s20 199.5 60 292.5s93.667 173.167 161 240.5s147.5 121 240.5 161s190.5 60 292.5 60
s199.5 -20 292.5 -60s173.167 -93.667 240.5 -161s121 -147.5 161 -240.5s60 -190.5 60 -292.5s-20 -199.5 -60 -292.5s-93.667 -173.167 -161 -240.5s-147.5 -121 -240.5 -161s-190.5 -60 -292.5 -60z" />
    <glyph glyph-name="less.uc.blackcircle" unicode="&#x3c;&#x20dd;&#x25cf;" 
d="M555 667l508 -277v119l-378 201v2l378 209v119l-508 -288v-85zM837 -46c-102 0 -199.5 20 -292.5 60s-173.167 93.667 -240.5 161s-121 147.5 -161 240.5s-60 190.5 -60 292.5s20 199.5 60 292.5s93.667 173.167 161 240.5s147.5 121 240.5 161s190.5 60 292.5 60
s199.5 -20 292.5 -60s173.167 -93.667 240.5 -161s121 -147.5 161 -240.5s60 -190.5 60 -292.5s-20 -199.5 -60 -292.5s-93.667 -173.167 -161 -240.5s-147.5 -121 -240.5 -161s-190.5 -60 -292.5 -60z" />
    <glyph glyph-name="numbersign.blackcircle" unicode="&#x23;&#x20dd;&#x25cf;" 
d="M773 809h156l-36 -169h-156zM1143 807l18 89h-122l43 203h-98l-42 -203h-146l43 203h-98l-42 -203h-117l-18 -89h115l-33 -158h-121l-18 -91h119l-44 -210h98l44 210h147l-45 -210h98l44 210h116l19 91h-116l33 158h123zM837 -46c-102 0 -199.5 20 -292.5 60
s-173.167 93.667 -240.5 161s-121 147.5 -161 240.5s-60 190.5 -60 292.5s20 199.5 60 292.5s93.667 173.167 161 240.5s147.5 121 240.5 161s190.5 60 292.5 60s199.5 -20 292.5 -60s173.167 -93.667 240.5 -161s121 -147.5 161 -240.5s60 -190.5 60 -292.5
s-20 -199.5 -60 -292.5s-93.667 -173.167 -161 -240.5s-147.5 -121 -240.5 -161s-190.5 -60 -292.5 -60z" />
    <glyph glyph-name="uni25BC.blackcircle" unicode="&#x25bc;&#x20dd;&#x25cf;" 
d="M1156 944h-637l318 -540zM837 -46c-102 0 -199.5 20 -292.5 60s-173.167 93.667 -240.5 161s-121 147.5 -161 240.5s-60 190.5 -60 292.5s20 199.5 60 292.5s93.667 173.167 161 240.5s147.5 121 240.5 161s190.5 60 292.5 60s199.5 -20 292.5 -60
s173.167 -93.667 240.5 -161s121 -147.5 161 -240.5s60 -190.5 60 -292.5s-20 -199.5 -60 -292.5s-93.667 -173.167 -161 -240.5s-147.5 -121 -240.5 -161s-190.5 -60 -292.5 -60z" />
    <glyph glyph-name="uni25B2.blackcircle" unicode="&#x25b2;&#x20dd;&#x25cf;" 
d="M1156 499l-319 540l-318 -540h637zM837 -46c-102 0 -199.5 20 -292.5 60s-173.167 93.667 -240.5 161s-121 147.5 -161 240.5s-60 190.5 -60 292.5s20 199.5 60 292.5s93.667 173.167 161 240.5s147.5 121 240.5 161s190.5 60 292.5 60s199.5 -20 292.5 -60
s173.167 -93.667 240.5 -161s121 -147.5 161 -240.5s60 -190.5 60 -292.5s-20 -199.5 -60 -292.5s-93.667 -173.167 -161 -240.5s-147.5 -121 -240.5 -161s-190.5 -60 -292.5 -60z" />
    <glyph glyph-name="uni25C0.blackcircle" unicode="&#x25c0;&#x20dd;&#x25cf;" 
d="M1054 404v636l-540 -318zM837 -46c-102 0 -199.5 20 -292.5 60s-173.167 93.667 -240.5 161s-121 147.5 -161 240.5s-60 190.5 -60 292.5s20 199.5 60 292.5s93.667 173.167 161 240.5s147.5 121 240.5 161s190.5 60 292.5 60s199.5 -20 292.5 -60
s173.167 -93.667 240.5 -161s121 -147.5 161 -240.5s60 -190.5 60 -292.5s-20 -199.5 -60 -292.5s-93.667 -173.167 -161 -240.5s-147.5 -121 -240.5 -161s-190.5 -60 -292.5 -60z" />
    <glyph glyph-name="uni25B6.blackcircle" unicode="&#x25b6;&#x20dd;&#x25cf;" 
d="M620 404l540 318l-540 318v-636zM837 -46c-102 0 -199.5 20 -292.5 60s-173.167 93.667 -240.5 161s-121 147.5 -161 240.5s-60 190.5 -60 292.5s20 199.5 60 292.5s93.667 173.167 161 240.5s147.5 121 240.5 161s190.5 60 292.5 60s199.5 -20 292.5 -60
s173.167 -93.667 240.5 -161s121 -147.5 161 -240.5s60 -190.5 60 -292.5s-20 -199.5 -60 -292.5s-93.667 -173.167 -161 -240.5s-147.5 -121 -240.5 -161s-190.5 -60 -292.5 -60z" />
    <glyph glyph-name="question.blackcircle" unicode="&#x3f;&#x20dd;&#x25cf;" 
d="M733 418c0 -22 8.33301 -40.5 25 -55.5s37.334 -22.5 62.001 -22.5c26 0 47.333 7.5 64 22.5s25 33.5 25 55.5c0 23.333 -8.33301 42.5 -25 57.5s-38 22.5 -64 22.5c-24.667 0 -45.334 -7.5 -62.001 -22.5s-25 -34.167 -25 -57.5zM761 582l109.997 0.00195312v37
c0 27.333 6 48.833 18 64.5s35.667 36.167 71 61.5c38.667 27.333 67.834 54.166 87.501 80.499s29.5 60.166 29.5 101.499c0 58.667 -23.167 105.334 -69.5 140.001s-103.5 52 -171.5 52c-69.333 0 -127.666 -18.333 -174.999 -55s-71 -90.334 -71 -161.001v-3h112
c1.33301 36.667 13.333 66.334 36 89.001s53.667 34 93 34c36 0 66 -9 90 -27s36 -43 36 -75c0 -24 -7.16699 -44.667 -21.5 -62s-38.166 -37.666 -71.499 -60.999c-36 -24.667 -62.667 -50.334 -80 -77.001s-25 -58.334 -23 -95.001v-44zM836.997 -45.998
c-102 0 -199.5 20 -292.5 60s-173.167 93.667 -240.5 161s-121 147.5 -161 240.5s-60 190.5 -60 292.5s20 199.5 60 292.5s93.667 173.167 161 240.5s147.5 121 240.5 161s190.5 60 292.5 60s199.5 -20 292.5 -60s173.167 -93.667 240.5 -161s121 -147.5 161 -240.5
s60 -190.5 60 -292.5s-20 -199.5 -60 -292.5s-93.667 -173.167 -161 -240.5s-147.5 -121 -240.5 -161s-190.5 -60 -292.5 -60z" />
    <glyph glyph-name="exclam.blackcircle" unicode="&#x21;&#x20dd;&#x25cf;" 
d="M772 1102l12 -499h106l12 499h-130zM749 419c0 -22 8.33301 -40.5 25 -55.5s37.667 -22.5 63 -22.5s46.333 7.5 63 22.5s25 33.5 25 55.5c0 22.667 -8.33301 41.5 -25 56.5s-37.667 22.5 -63 22.5s-46.333 -7.5 -63 -22.5s-25 -33.833 -25 -56.5zM837 -46
c-102 0 -199.5 20 -292.5 60s-173.167 93.667 -240.5 161s-121 147.5 -161 240.5s-60 190.5 -60 292.5s20 199.5 60 292.5s93.667 173.167 161 240.5s147.5 121 240.5 161s190.5 60 292.5 60s199.5 -20 292.5 -60s173.167 -93.667 240.5 -161s121 -147.5 161 -240.5
s60 -190.5 60 -292.5s-20 -199.5 -60 -292.5s-93.667 -173.167 -161 -240.5s-147.5 -121 -240.5 -161s-190.5 -60 -292.5 -60z" />
    <glyph glyph-name="uni2717.blackcircle" unicode="&#x2717;&#x20dd;&#x25cf;" 
d="M840 792l-289 289l-75 -74l288 -289l-287 -288l75 -75l288 287l288 -287l74 75l-288 288l288 287l-74 75zM837 -46c-102 0 -199.5 20 -292.5 60s-173.167 93.667 -240.5 161s-121 147.5 -161 240.5s-60 190.5 -60 292.5s20 199.5 60 292.5s93.667 173.167 161 240.5
s147.5 121 240.5 161s190.5 60 292.5 60s199.5 -20 292.5 -60s173.167 -93.667 240.5 -161s121 -147.5 161 -240.5s60 -190.5 60 -292.5s-20 -199.5 -60 -292.5s-93.667 -173.167 -161 -240.5s-147.5 -121 -240.5 -161s-190.5 -60 -292.5 -60z" />
    <glyph glyph-name="uni2713.blackcircle" unicode="&#x2713;&#x20dd;&#x25cf;" 
d="M703 386l588 588l-78 80l-511 -512l-228 230l-79 -78zM837 -46c-102 0 -199.5 20 -292.5 60s-173.167 93.667 -240.5 161s-121 147.5 -161 240.5s-60 190.5 -60 292.5s20 199.5 60 292.5s93.667 173.167 161 240.5s147.5 121 240.5 161s190.5 60 292.5 60
s199.5 -20 292.5 -60s173.167 -93.667 240.5 -161s121 -147.5 161 -240.5s60 -190.5 60 -292.5s-20 -199.5 -60 -292.5s-93.667 -173.167 -161 -240.5s-147.5 -121 -240.5 -161s-190.5 -60 -292.5 -60z" />
    <glyph glyph-name="zero.blacksquare" unicode="&#x30;&#x20de;&#x25a0;" 
d="M834 432c-51.333 0 -91.666 25.833 -120.999 77.5s-44 122.5 -44 212.5c0 90.667 14.667 161.667 44 213s69.666 77 120.999 77s91.666 -25.667 120.999 -77s44 -122.333 44 -213c0 -90 -14.667 -160.833 -44 -212.5s-69.666 -77.5 -120.999 -77.5zM834 332
c87.333 0 157 35.167 209 105.5s78 165.166 78 284.499s-26 214.333 -78 285s-121.667 106 -209 106c-86.667 0 -156.167 -35.333 -208.5 -106s-78.5 -165.667 -78.5 -285s26.167 -214.166 78.5 -284.499s121.833 -105.5 208.5 -105.5zM348 1439h978
c67.333 0 124 -22.667 170 -68s69 -101.333 69 -168v-986c0 -66.667 -23 -122.5 -69 -167.5s-102.667 -67.5 -170 -67.5h-978c-67.333 0 -124 22.5 -170 67.5s-69 100.833 -69 167.5v986c0 66.667 23 122.667 69 168s102.667 68 170 68z" />
    <glyph glyph-name="one.blacksquare" unicode="&#x31;&#x20de;&#x25a0;" 
d="M937 351v751h-118l-190 -130v-114l186 127h2v-634h120zM348 1439h978c67.333 0 124 -22.667 170 -68s69 -101.333 69 -168v-986c0 -66.667 -23 -122.5 -69 -167.5s-102.667 -67.5 -170 -67.5h-978c-67.333 0 -124 22.5 -170 67.5s-69 100.833 -69 167.5v986
c0 66.667 23 122.667 69 168s102.667 68 170 68z" />
    <glyph glyph-name="two.blacksquare" unicode="&#x32;&#x20de;&#x25a0;" 
d="M694 884l0.000976562 8c0.666992 36 13.667 66.167 39 90.5s58.333 36.5 99 36.5c38 0 69.667 -11 95 -33s38 -50.333 38 -85c0 -28.667 -7.16699 -55.167 -21.5 -79.5s-35.833 -51.833 -64.5 -82.5l-294 -313v-76h518v100h-354v1l216 230c42 46 72.667 85.167 92 117.5
s29 68.833 29 109.5c0 60.667 -23.5 110.5 -70.5 149.5s-107.5 58.5 -181.5 58.5c-79.333 0 -141.833 -22 -187.5 -66s-68.834 -96.667 -69.501 -158v-8h117zM348.001 1439h978c67.333 0 124 -22.667 170 -68s69 -101.333 69 -168v-986c0 -66.667 -23 -122.5 -69 -167.5
s-102.667 -67.5 -170 -67.5h-978c-67.333 0 -124 22.5 -170 67.5s-69 100.833 -69 167.5v986c0 66.667 23 122.667 69 168s102.667 68 170 68z" />
    <glyph glyph-name="three.blacksquare" unicode="&#x33;&#x20de;&#x25a0;" 
d="M747 691h92.998c44.667 0 81.334 -12 110.001 -36s43.334 -54.667 44.001 -92c0 -38.667 -14.833 -70.167 -44.5 -94.5s-68.834 -36.5 -117.501 -36.5c-42 0.666992 -77.667 11.334 -107 32.001s-46.333 46 -51 76h-112c3.33301 -58.667 29.333 -107.334 78 -146.001
s112.334 -58 191.001 -58c81.333 0 149.166 20.667 203.499 62s81.166 95.333 80.499 162c-1.33301 52.667 -18.666 95.334 -51.999 128.001s-71.666 51.334 -114.999 56.001v1c36.667 8 69.667 28 99 60s43.666 71.333 42.999 118c-1.33301 56 -25.666 102.5 -72.999 139.5
s-108.333 55.5 -183 55.5c-75.333 -0.666992 -135.833 -19.834 -181.5 -57.501s-70.167 -85.834 -73.5 -144.501h114c3.33301 30 17.666 55 42.999 75s57.333 30 96 30c40.667 0 73.834 -10.667 99.501 -32s38.5 -48.666 38.5 -81.999
c0 -34.667 -12.667 -63.334 -38 -86.001s-58 -34 -98 -34h-87v-96zM347.998 1439h978c67.333 0 124 -22.667 170 -68s69 -101.333 69 -168v-986c0 -66.667 -23 -122.5 -69 -167.5s-102.667 -67.5 -170 -67.5h-978c-67.333 0 -124 22.5 -170 67.5s-69 100.833 -69 167.5v986
c0 66.667 23 122.667 69 168s102.667 68 170 68z" />
    <glyph glyph-name="four.blacksquare" unicode="&#x34;&#x20de;&#x25a0;" 
d="M844 1102c-172.667 -263.333 -279 -430.333 -319 -501v-97h375v-153h116v153h104v98h-104v500h-172zM641 602v2c58.667 100 144.667 233.667 258 401h1v-403h-259zM348 1439h978c67.333 0 124 -22.667 170 -68s69 -101.333 69 -168v-986c0 -66.667 -23 -122.5 -69 -167.5
s-102.667 -67.5 -170 -67.5h-978c-67.333 0 -124 22.5 -170 67.5s-69 100.833 -69 167.5v986c0 66.667 23 122.667 69 168s102.667 68 170 68z" />
    <glyph glyph-name="five.blacksquare" unicode="&#x35;&#x20de;&#x25a0;" 
d="M569 539c3.33301 -58 29.668 -106.168 79.001 -144.501s110.666 -57.5 183.999 -57.5c84.667 0 153.334 24.167 206.001 72.5s79 111.833 79 190.5c0 73.333 -24.167 132.333 -72.5 177s-108.166 67 -179.499 67c-37.333 0 -70.333 -6.83301 -99 -20.5
s-50.334 -30.167 -65.001 -49.5h-1c6.66699 100 13 177 19 231h355v98h-455l-34 -434h106c34.667 53.333 84 80 148 80c45.333 0 83.166 -14.167 113.499 -42.5s45.5 -65.166 45.5 -110.499c0 -48 -15.667 -87 -47 -117s-69 -45 -113 -45c-38 0 -72 9.5 -102 28.5
s-48 44.5 -54 76.5h-113zM348.002 1439h978c67.333 0 124 -22.667 170 -68s69 -101.333 69 -168v-986c0 -66.667 -23 -122.5 -69 -167.5s-102.667 -67.5 -170 -67.5h-978c-67.333 0 -124 22.5 -170 67.5s-69 100.833 -69 167.5v986c0 66.667 23 122.667 69 168
s102.667 68 170 68z" />
    <glyph glyph-name="six.blacksquare" unicode="&#x36;&#x20de;&#x25a0;" 
d="M1120 597c0 73.333 -24.167 132.001 -72.5 176.001s-106.5 66 -174.5 66c-99.333 0 -168 -39.333 -206 -118l-2 -2v3c-0.666992 91.333 15.833 163.5 49.5 216.5s79.167 79.5 136.5 79.5c34.667 0 64 -8.16699 88 -24.5s39.667 -35.5 47 -57.5h117
c-5.33301 47.333 -30.833 89.166 -76.5 125.499s-103.167 54.5 -172.5 54.5c-94.667 0 -169 -35.167 -223 -105.5s-81 -172.5 -81 -306.5c0 -112 21.667 -198 65 -258c25.333 -36 58 -63.333 98 -82s83 -28 129 -28c82 0 148.833 23.5 200.5 70.5s77.5 110.5 77.5 190.5z
M683 592.001c0 44.667 15.001 81.334 45.001 110.001s68.667 43 116 43c44.667 0 82.167 -13.833 112.5 -41.5s45.5 -65.167 45.5 -112.5c0 -49.333 -14.833 -88 -44.5 -116s-67.834 -42 -114.501 -42c-45.333 0 -83.333 14.667 -114 44s-46 67.666 -46 114.999z
M348.001 1439h978c67.333 0 124 -22.667 170 -68s69 -101.333 69 -168v-986c0 -66.667 -23 -122.5 -69 -167.5s-102.667 -67.5 -170 -67.5h-978c-67.333 0 -124 22.5 -170 67.5s-69 100.833 -69 167.5v986c0 66.667 23 122.667 69 168s102.667 68 170 68z" />
    <glyph glyph-name="seven.blacksquare" unicode="&#x37;&#x20de;&#x25a0;" 
d="M582 1102v-100h395v-1l-328 -650h129l322 653v98h-518zM348 1439h978c67.333 0 124 -22.667 170 -68s69 -101.333 69 -168v-986c0 -66.667 -23 -122.5 -69 -167.5s-102.667 -67.5 -170 -67.5h-978c-67.333 0 -124 22.5 -170 67.5s-69 100.833 -69 167.5v986
c0 66.667 23 122.667 69 168s102.667 68 170 68z" />
    <glyph glyph-name="eight.blacksquare" unicode="&#x38;&#x20de;&#x25a0;" 
d="M835 788c-41.333 0 -75.166 11 -101.499 33s-39.5 50.667 -39.5 86c0 34.667 13.167 63 39.5 85s60.166 33 101.499 33s75.166 -11 101.499 -33s39.5 -50.333 39.5 -85s-13.167 -63.167 -39.5 -85.5s-60.166 -33.5 -101.499 -33.5zM835 428
c-49.333 0 -90 12.998 -122 38.998s-48 58.667 -48 98c0 38.667 16 70.834 48 96.501s72.667 38.5 122 38.5c48.667 0 89 -12.667 121 -38s48 -57.666 48 -96.999s-16 -72 -48 -98s-72.333 -39 -121 -39zM835 335.998c85.333 0 154.833 20.667 208.5 62s80.5 95 80.5 161
c0 45.333 -14.667 85.166 -44 119.499s-68.333 56.833 -117 67.5v1c40.667 12.667 72.5 34.334 95.5 65.001s34.5 65.667 34.5 105c0 59.333 -24 107.666 -72 144.999s-110 56 -186 56s-138 -18.667 -186 -56s-72 -85.666 -72 -144.999c0 -39.333 11.5 -74.333 34.5 -105
s54.833 -52.334 95.5 -65.001v-1c-48.667 -10.667 -87.667 -33.167 -117 -67.5s-44 -74.166 -44 -119.499c0 -66 26.833 -119.667 80.5 -161s123.167 -62 208.5 -62zM348 1439h978c67.333 0 124 -22.667 170 -68s69 -101.333 69 -168v-986c0 -66.667 -23 -122.5 -69 -167.5
s-102.667 -67.5 -170 -67.5h-978c-67.333 0 -124 22.5 -170 67.5s-69 100.833 -69 167.5v986c0 66.667 23 122.667 69 168s102.667 68 170 68z" />
    <glyph glyph-name="nine.blacksquare" unicode="&#x39;&#x20de;&#x25a0;" 
d="M545 860c0 -74.667 24.1631 -134.833 72.4961 -180.5s107.833 -68.5 178.5 -68.5c97.333 0 164.333 38.667 201 116h1c1.33301 -88.667 -14 -159.667 -46 -213s-78.667 -80 -140 -80c-32 0 -60.167 7.66699 -84.5 23s-40.166 33.333 -47.499 54h-116
c6.66699 -47.333 32 -88.166 76 -122.499s100.667 -51.5 170 -51.5c99.333 0 174.833 34.667 226.5 104s77.5 169.666 77.5 300.999c0 68 -7.66699 127 -23 177s-36.666 89 -63.999 117s-57.666 48.5 -90.999 61.5s-70.666 19.5 -111.999 19.5c-82 0 -149 -23.333 -201 -70
s-78 -109 -78 -187zM979.996 860.001c0 -47.333 -15.333 -84.833 -46 -112.5s-68.667 -41.5 -114 -41.5s-83 14.167 -113 42.5s-45 66.5 -45 114.5c0 47.333 15 85.333 45 114s67.667 43 113 43c46 0 84.167 -14.667 114.5 -44s45.5 -68 45.5 -116zM347.996 1439h978
c67.333 0 124 -22.667 170 -68s69 -101.333 69 -168v-986c0 -66.667 -23 -122.5 -69 -167.5s-102.667 -67.5 -170 -67.5h-978c-67.333 0 -124 22.5 -170 67.5s-69 100.833 -69 167.5v986c0 66.667 23 122.667 69 168s102.667 68 170 68z" />
    <glyph glyph-name="plus.uc.blacksquare" unicode="&#x2b;&#x20de;&#x25a0;" 
d="M890 674h232v98h-232v231h-106v-231h-232v-98h232v-241h106v241zM348 1439h978c67.333 0 124 -22.667 170 -68s69 -101.333 69 -168v-986c0 -66.667 -23 -122.5 -69 -167.5s-102.667 -67.5 -170 -67.5h-978c-67.333 0 -124 22.5 -170 67.5s-69 100.833 -69 167.5v986
c0 66.667 23 122.667 69 168s102.667 68 170 68z" />
    <glyph glyph-name="minus.uc.blacksquare" unicode="&#x2212;&#x20de;&#x25a0;" 
d="M1108 669v101h-542v-101h542zM348 1439h978c67.333 0 124 -22.667 170 -68s69 -101.333 69 -168v-986c0 -66.667 -23 -122.5 -69 -167.5s-102.667 -67.5 -170 -67.5h-978c-67.333 0 -124 22.5 -170 67.5s-69 100.833 -69 167.5v986c0 66.667 23 122.667 69 168
s102.667 68 170 68z" />
    <glyph glyph-name="multiply.uc.blacksquare" unicode="&#xd7;&#x20de;&#x25a0;" 
d="M835 787l-174 169l-75 -72l174 -169l-174 -168l75 -72l174 168l174 -168l74 72l-174 168l174 169l-74 72zM348 1439h978c67.333 0 124 -22.667 170 -68s69 -101.333 69 -168v-986c0 -66.667 -23 -122.5 -69 -167.5s-102.667 -67.5 -170 -67.5h-978
c-67.333 0 -124 22.5 -170 67.5s-69 100.833 -69 167.5v986c0 66.667 23 122.667 69 168s102.667 68 170 68z" />
    <glyph glyph-name="divide.uc.blacksquare" unicode="&#xf7;&#x20de;&#x25a0;" 
d="M757 934c0 -21.333 7.66699 -39.001 23 -53.001s34 -21 56 -21c22.667 0 42 7 58 21s24 31.667 24 53c0 22.667 -7.83301 41.334 -23.5 56.001s-35.167 22 -58.5 22c-22 0 -40.667 -7.5 -56 -22.5s-23 -33.5 -23 -55.5zM1108 672.999v91h-542v-91h542zM757 505.999
c0 -21.333 7.66699 -38.999 23 -52.999s34.333 -21 57 -21s41.834 7.16699 57.501 21.5s23.5 32.166 23.5 53.499c0 22 -7.83301 40.167 -23.5 54.5s-34.834 21.5 -57.501 21.5s-41.667 -7.33301 -57 -22s-23 -33 -23 -55zM348 1439h978c67.333 0 124 -22.667 170 -68
s69 -101.333 69 -168v-986c0 -66.667 -23 -122.5 -69 -167.5s-102.667 -67.5 -170 -67.5h-978c-67.333 0 -124 22.5 -170 67.5s-69 100.833 -69 167.5v986c0 66.667 23 122.667 69 168s102.667 68 170 68z" />
    <glyph glyph-name="equal.uc.blacksquare" unicode="&#x3d;&#x20de;&#x25a0;" 
d="M1096 787v95h-518v-95h518zM1096 557v94h-518v-94h518zM348 1439h978c67.333 0 124 -22.667 170 -68s69 -101.333 69 -168v-986c0 -66.667 -23 -122.5 -69 -167.5s-102.667 -67.5 -170 -67.5h-978c-67.333 0 -124 22.5 -170 67.5s-69 100.833 -69 167.5v986
c0 66.667 23 122.667 69 168s102.667 68 170 68z" />
    <glyph glyph-name="greater.uc.blacksquare" unicode="&#x3e;&#x20de;&#x25a0;" 
d="M1113 752l-508 288v-119l379 -209v-2l-379 -201v-119l508 277v85zM348 1439h978c67.333 0 124 -22.667 170 -68s69 -101.333 69 -168v-986c0 -66.667 -23 -122.5 -69 -167.5s-102.667 -67.5 -170 -67.5h-978c-67.333 0 -124 22.5 -170 67.5s-69 100.833 -69 167.5v986
c0 66.667 23 122.667 69 168s102.667 68 170 68z" />
    <glyph glyph-name="less.uc.blacksquare" unicode="&#x3c;&#x20de;&#x25a0;" 
d="M555 667l508 -277v119c-28 14 -91 47.5 -189 100.5s-161 86.5 -189 100.5v2l378 209v119l-508 -288v-85zM348 1439h978c67.333 0 124 -22.667 170 -68s69 -101.333 69 -168v-986c0 -66.667 -23 -122.5 -69 -167.5s-102.667 -67.5 -170 -67.5h-978
c-67.333 0 -124 22.5 -170 67.5s-69 100.833 -69 167.5v986c0 66.667 23 122.667 69 168s102.667 68 170 68z" />
    <glyph glyph-name="numbersign.blacksquare" unicode="&#x23;&#x20de;&#x25a0;" 
d="M773 809h156l-36 -169h-156zM1143 807l18 89h-122l43 203h-98l-42 -203h-146l43 203h-98l-42 -203h-117l-18 -89h115l-33 -158h-121l-18 -91h119l-44 -210h98l44 210h147l-45 -210h98l44 210h116l19 91h-116l33 158h123zM348 1439h978c67.333 0 124 -22.667 170 -68
s69 -101.333 69 -168v-986c0 -66.667 -23 -122.5 -69 -167.5s-102.667 -67.5 -170 -67.5h-978c-67.333 0 -124 22.5 -170 67.5s-69 100.833 -69 167.5v986c0 66.667 23 122.667 69 168s102.667 68 170 68z" />
    <glyph glyph-name="uni25BC.blacksquare" unicode="&#x25bc;&#x20de;&#x25a0;" 
d="M1156 940h-637l318 -540zM348 1439h978c67.333 0 124 -22.667 170 -68s69 -101.333 69 -168v-986c0 -66.667 -23 -122.5 -69 -167.5s-102.667 -67.5 -170 -67.5h-978c-67.333 0 -124 22.5 -170 67.5s-69 100.833 -69 167.5v986c0 66.667 23 122.667 69 168
s102.667 68 170 68z" />
    <glyph glyph-name="uni25B2.blacksquare" unicode="&#x25b2;&#x20de;&#x25a0;" 
d="M1156 499l-319 540l-318 -540h637zM348 1439h978c67.333 0 124 -22.667 170 -68s69 -101.333 69 -168v-986c0 -66.667 -23 -122.5 -69 -167.5s-102.667 -67.5 -170 -67.5h-978c-67.333 0 -124 22.5 -170 67.5s-69 100.833 -69 167.5v986c0 66.667 23 122.667 69 168
s102.667 68 170 68z" />
    <glyph glyph-name="uni25C0.blacksquare" unicode="&#x25c0;&#x20de;&#x25a0;" 
d="M1054 404v636l-540 -318zM348 1439h978c67.333 0 124 -22.667 170 -68s69 -101.333 69 -168v-986c0 -66.667 -23 -122.5 -69 -167.5s-102.667 -67.5 -170 -67.5h-978c-67.333 0 -124 22.5 -170 67.5s-69 100.833 -69 167.5v986c0 66.667 23 122.667 69 168
s102.667 68 170 68z" />
    <glyph glyph-name="uni25B6.blacksquare" unicode="&#x25b6;&#x20de;&#x25a0;" 
d="M620 404l540 318l-540 318v-636zM348 1439h978c67.333 0 124 -22.667 170 -68s69 -101.333 69 -168v-986c0 -66.667 -23 -122.5 -69 -167.5s-102.667 -67.5 -170 -67.5h-978c-67.333 0 -124 22.5 -170 67.5s-69 100.833 -69 167.5v986c0 66.667 23 122.667 69 168
s102.667 68 170 68z" />
    <glyph glyph-name="question.blacksquare" unicode="&#x3f;&#x20de;&#x25a0;" 
d="M733 418c0 -22 8.33301 -40.5 25 -55.5s37.334 -22.5 62.001 -22.5c26 0 47.333 7.5 64 22.5s25 33.5 25 55.5c0 23.333 -8.33301 42.5 -25 57.5s-38 22.5 -64 22.5c-24.667 0 -45.334 -7.5 -62.001 -22.5s-25 -34.167 -25 -57.5zM836 1119
c-69.333 0 -127.669 -18.3311 -175.002 -54.998s-71 -90.334 -71 -161.001v-3h112c1.33301 36.667 13.333 66.334 36 89.001s53.667 34 93 34c36 0 66 -9 90 -27s36 -43 36 -75c0 -24 -7.16699 -44.667 -21.5 -62s-38.166 -37.666 -71.499 -60.999
c-36 -24.667 -62.667 -50.334 -80 -77.001s-25 -58.334 -23 -95.001v-44h110v37c0 27.333 6 48.833 18 64.5s35.667 36.167 71 61.5c38.667 27.333 67.834 54.166 87.501 80.499s29.5 60.166 29.5 101.499c0 58.667 -23.167 105.334 -69.5 140.001s-103.5 52 -171.5 52z
M347.997 1439h978c67.333 0 124 -22.667 170 -68s69 -101.333 69 -168v-986c0 -66.667 -23 -122.5 -69 -167.5s-102.667 -67.5 -170 -67.5h-978c-67.333 0 -124 22.5 -170 67.5s-69 100.833 -69 167.5v986c0 66.667 23 122.667 69 168s102.667 68 170 68z" />
    <glyph glyph-name="exclam.blacksquare" unicode="&#x21;&#x20de;&#x25a0;" 
d="M772 1102l12 -499h106l12 499h-130zM749 419c0 -22 8.33301 -40.5 25 -55.5s37.667 -22.5 63 -22.5s46.333 7.5 63 22.5s25 33.5 25 55.5c0 22.667 -8.33301 41.5 -25 56.5s-37.667 22.5 -63 22.5s-46.333 -7.5 -63 -22.5s-25 -33.833 -25 -56.5zM348 1439h978
c67.333 0 124 -22.667 170 -68s69 -101.333 69 -168v-986c0 -66.667 -23 -122.5 -69 -167.5s-102.667 -67.5 -170 -67.5h-978c-67.333 0 -124 22.5 -170 67.5s-69 100.833 -69 167.5v986c0 66.667 23 122.667 69 168s102.667 68 170 68z" />
    <glyph glyph-name="uni2717.blacksquare" unicode="&#x2717;&#x20de;&#x25a0;" 
d="M476 1007l288 -289l-287 -288l75 -75l288 287l288 -287l74 75l-288 288l288 287l-74 75l-288 -288l-289 289zM348 1439h978c67.333 0 124 -22.667 170 -68s69 -101.333 69 -168v-986c0 -66.667 -23 -122.5 -69 -167.5s-102.667 -67.5 -170 -67.5h-978
c-67.333 0 -124 22.5 -170 67.5s-69 100.833 -69 167.5v986c0 66.667 23 122.667 69 168s102.667 68 170 68z" />
    <glyph glyph-name="uni2713.blacksquare" unicode="&#x2713;&#x20de;&#x25a0;" 
d="M703 386l588 588l-78 80l-511 -512l-228 230l-79 -78zM348 1439h978c67.333 0 124 -22.667 170 -68s69 -101.333 69 -168v-986c0 -66.667 -23 -122.5 -69 -167.5s-102.667 -67.5 -170 -67.5h-978c-67.333 0 -124 22.5 -170 67.5s-69 100.833 -69 167.5v986
c0 66.667 23 122.667 69 168s102.667 68 170 68z" />
    <glyph glyph-name=".notdef" horiz-adv-x="2048" 
d="M100 -494v308h1848v-308h-1848zM100 -67v308h1848v-308h-1848zM100 361v307h1848v-307h-1848zM100 788v307h1848v-307h-1848zM100 1215v308h1848v-308h-1848zM100 1642v308h1848v-308h-1848z" />
    <glyph glyph-name="space" unicode=" " horiz-adv-x="419" 
 />
    <glyph glyph-name="exclam" unicode="!" horiz-adv-x="531" 
d="M196 1443h138l-8 -987h-121zM265 -9c-26 0 -48 9 -66 27s-27 40 -27 66c0 26.667 9 49 27 67s40 27 66 27c26.667 0 49 -9 67 -27s27 -40.333 27 -67c0 -26 -9 -48 -27 -66s-40.333 -27 -67 -27z" />
    <glyph glyph-name="quotedbl" unicode="&#x22;" horiz-adv-x="703" 
d="M246 955h-123v488h123v-488zM580 955h-123v488h123v-488z" />
    <glyph glyph-name="numbersign" unicode="#" horiz-adv-x="1231" 
d="M637 0l86 419h-360l-86 -419h-111l86 419h-249l22 111h251l78 395h-259l22 110h260l85 410h111l-84 -410h360l85 410h111l-84 -410h267l-22 -110h-268l-81 -395h278l-22 -111h-278l-86 -419h-112zM385 528h362l80 398h-362z" />
    <glyph glyph-name="dollar" unicode="$" horiz-adv-x="1219" 
d="M662 -150l-104.002 0.00390625v141c-135.333 8.66699 -245.666 49.667 -330.999 123s-128.666 165.666 -129.999 276.999h130c5.33301 -76.667 38.166 -140.5 98.499 -191.5s137.833 -80.833 232.5 -89.5v579l-55 15c-126 32 -219.333 78.333 -280 139s-91 138 -91 232
c0 107.333 38.833 196.166 116.5 266.499s180.834 110.166 309.501 119.499v138h104v-137c124 -8.66699 225.833 -48.5 305.5 -119.5s121.167 -158.5 124.5 -262.5h-130c-2.66699 69.333 -32.167 128.666 -88.5 177.999s-126.833 77.666 -211.5 84.999v-544l58 -15
c140 -35.333 241.333 -83.5 304 -144.5s94 -142.5 94 -244.5c0 -114.667 -41 -208.167 -123 -280.5s-193 -113.166 -333 -122.499v-142zM985.998 385.004c0 74.667 -25.168 134.001 -75.501 178.001s-133.166 79 -248.499 105v-560c98 4.66699 176.5 32.167 235.5 82.5
s88.5 115.166 88.5 194.499zM262.997 1082c0 -67.333 23.667 -121.832 71 -163.499s122 -73.834 224 -96.501v521c-85.333 -4 -155.833 -30.5 -211.5 -79.5s-83.5 -109.5 -83.5 -181.5z" />
    <glyph glyph-name="percent" unicode="%" horiz-adv-x="1458" 
d="M613 1105c0 -108 -25.5 -193.833 -76.5 -257.5s-119.167 -95.5 -204.5 -95.5c-86 0 -154.5 31.833 -205.5 95.5s-76.5 149.5 -76.5 257.5c0 107.333 25.5 193 76.5 257s119.5 96 205.5 96c85.333 0 153.5 -32 204.5 -96s76.5 -149.667 76.5 -257zM332 847
c48.667 0 87.1689 23 115.502 69s42.5 109 42.5 189c0 79.333 -14.167 142.166 -42.5 188.499s-66.833 69.5 -115.5 69.5s-87.334 -23.167 -116.001 -69.5s-43 -109.166 -43 -188.499c0 -80 14.167 -143 42.5 -189s67.166 -69 116.499 -69zM265.002 0h-135l555 752l509 691
h134l-544 -739zM1409 340c0 -108 -25.498 -193.833 -76.498 -257.5s-119.5 -95.5 -205.5 -95.5s-154.5 31.833 -205.5 95.5s-76.5 149.5 -76.5 257.5c0 107.333 25.667 193 77 257s119.666 96 204.999 96s153.666 -32 204.999 -96s77 -149.667 77 -257zM1127 82
c49.333 0 88.166 23 116.499 69s42.5 109 42.5 189c0 79.333 -14.167 142 -42.5 188s-67.166 69 -116.499 69s-88.166 -23 -116.499 -69s-42.5 -108.667 -42.5 -188c0 -80 14.167 -143 42.5 -189s67.166 -69 116.499 -69z" />
    <glyph glyph-name="ampersand" unicode="&#x26;" horiz-adv-x="1372" 
d="M1184 0l-158.999 168.001c-61.333 -60 -133.833 -106.833 -217.5 -140.5s-169.5 -50.5 -257.5 -50.5c-138.667 0 -251.834 37.167 -339.501 111.5s-131.5 170.166 -131.5 287.499c0 161.333 93 291.666 279 390.999c6 2.66699 15 7.16699 27 13.5l32 17
c9.33301 5 15 7.83301 17 8.5c-72.667 74.667 -123.5 137.834 -152.5 189.501s-43.5 104.167 -43.5 157.5c0 88.667 34.167 162.834 102.5 222.501s152.833 89.5 253.5 89.5c101.333 0 185.333 -29.333 252 -88s100 -133.334 100 -224.001c0 -72 -25.333 -137.5 -76 -196.5
s-134 -118.5 -250 -178.5l397 -425c62 105.333 93 239 93 401v58h127v-59c0 -194 -43.667 -357.667 -131 -491l250 -262h-172zM437.001 684.001c-78 -44.667 -134.667 -91.1689 -170 -139.502s-53 -101.833 -53 -160.5c0 -85.333 32.167 -155.166 96.5 -209.499
s147.833 -81.5 250.5 -81.5c70.667 0 141 14.833 211 44.5s127 68.834 171 117.501l-434 468c-26.667 -12 -50.667 -25 -72 -39zM545.001 855.999c96.667 48 166.332 94.999 208.999 140.999s64 96.333 64 151c0 60 -21.167 109.667 -63.5 149s-95.833 59 -160.5 59
c-64 0 -117.667 -20.167 -161 -60.5s-65 -90.166 -65 -149.499c0 -42 12.833 -84 38.5 -126s71.834 -96.667 138.501 -164z" />
    <glyph glyph-name="quotesingle" unicode="'" horiz-adv-x="369" 
d="M246 955h-123v488h123v-488z" />
    <glyph glyph-name="parenleft" unicode="(" horiz-adv-x="626" 
d="M191 569c0 347.333 92.333 638.667 277 874h115c-75.333 -91.333 -137 -219.166 -185 -383.499s-72 -327.833 -72 -490.5s24 -325.834 72 -489.501s109.667 -291.5 185 -383.5h-115c-184.667 235.333 -277 526.333 -277 873z" />
    <glyph glyph-name="parenright" unicode=")" horiz-adv-x="626" 
d="M435 569c0 -346 -92.333 -637.001 -277 -873.001h-115c66.667 82.667 126.167 202 178.5 358s78.5 327.667 78.5 515c0 98 -8 194.167 -24 288.5s-37 178.333 -63 252s-53.333 138.334 -82 194.001s-58 102.167 -88 139.5h115c184.667 -236 277 -527.333 277 -874z" />
    <glyph glyph-name="asterisk" unicode="*" horiz-adv-x="973" 
d="M781 891l-249 153l7 -293h-102l7 293l-251 -154l-49 93l256 136l-255 135l49 91l250 -151l-7 290h102l-7 -291l249 152l51 -90l-257 -137l257 -135z" />
    <glyph glyph-name="plus" unicode="+" horiz-adv-x="1219" 
d="M671 510v-478h-124v478h-438v124h438v465h124v-465h438v-124h-438z" />
    <glyph glyph-name="comma" unicode="," horiz-adv-x="509" 
d="M213 -276h-111l96 482h141z" />
    <glyph glyph-name="hyphen" unicode="&#x2011;" horiz-adv-x="874" 
d="M765 521h-656v124h656v-124z" />
    <glyph glyph-name="hyphen" unicode="-" horiz-adv-x="874" 
d="M765 521h-656v124h656v-124z" />
    <glyph glyph-name="period" unicode="." horiz-adv-x="509" 
d="M255 -9c-26 0 -48.167 9 -66.5 27s-27.5 40 -27.5 66c0 26.667 9.16699 49 27.5 67s40.5 27 66.5 27s48 -9 66 -27s27 -40.333 27 -67c0 -26 -9 -48 -27 -66s-40 -27 -66 -27z" />
    <glyph glyph-name="slash" unicode="/" horiz-adv-x="626" 
d="M116 -304h-116l510 1747h116z" />
    <glyph glyph-name="zero" unicode="0" horiz-adv-x="1222" 
d="M611 -23c-163.333 0 -291.333 66.833 -384 200.5s-139 315.167 -139 544.5c0 228 46.667 409 140 543s221 201 383 201c162.667 0 290.334 -66.833 383.001 -200.5s139 -314.5 139 -542.5c0 -229.333 -46.333 -411 -139 -545s-220.334 -201 -383.001 -201zM611 97
c120.667 0 215 56 283 168s102 264.333 102 457c0 191.333 -34.167 343 -102.5 455s-162.5 168 -282.5 168c-119.333 0 -213.333 -56.333 -282 -169s-103 -263.667 -103 -453c0 -193.333 34 -346 102 -458s162.333 -168 283 -168z" />
    <glyph glyph-name="one" unicode="1" horiz-adv-x="863" 
d="M485 0v1296h-4c-9.33301 -6 -72.333 -49.5 -189 -130.5s-182.667 -126.167 -198 -135.5v146c12 7.33301 76 51.333 192 132s181.667 125.667 197 135h134v-1443h-132z" />
    <glyph glyph-name="two" unicode="2" horiz-adv-x="1152" 
d="M115 1039c0.666992 122.667 44.835 224.501 132.502 305.501s197.5 121.5 329.5 121.5c126 0 232.333 -38 319 -114s130 -169.333 130 -280c0 -78.667 -21.833 -154.834 -65.5 -228.501s-125.5 -172.834 -245.5 -297.501l-402 -420v-4h750v-122h-941v96l510 539
c103.333 108.667 172.166 191.667 206.499 249s51.5 117.333 51.5 180c0 78.667 -30.667 145.334 -92 200.001s-136.333 82 -225 82c-92.667 0 -169.834 -29.167 -231.501 -87.5s-93.167 -131.5 -94.5 -219.5v-1h-132v1z" />
    <glyph glyph-name="three" unicode="3" horiz-adv-x="1183" 
d="M399 687l-0.00195312 116.003h168c94 0 170.667 26 230 78s89 118.333 89 199c0 79.333 -28.167 143.5 -84.5 192.5s-132.5 73.5 -228.5 73.5c-89.333 0 -163.333 -24.667 -222 -74s-91.667 -114 -99 -194h-132c8.66699 116 54.834 209.667 138.501 281
s190.5 107 320.5 107c127.333 0 233.333 -34.833 318 -104.5s127 -157.834 127 -264.501c0 -90 -27 -165.667 -81 -227s-127.333 -100.333 -220 -117v-4c110.667 -6.66699 198.834 -41.834 264.501 -105.501s98.5 -146.5 98.5 -248.5c0 -80 -22 -152 -66 -216
s-104 -113.667 -180 -149s-160.333 -53 -253 -53c-144 0 -261.667 37 -353 111s-139.333 169.333 -144 286h132c5.33301 -81.333 41.5 -147.833 108.5 -199.5s152.167 -77.5 255.5 -77.5c104.667 0 191 27.667 259 83s102 125.666 102 210.999
c0 92 -33.333 164.333 -100 217s-158 79 -274 79h-174z" />
    <glyph glyph-name="four" unicode="4" horiz-adv-x="1214" 
d="M807 0v326h-732v125c148 248.667 369.667 580 665 994h200v-998h215v-121h-215v-326h-133zM213 451v-4h594v878h-2c-242.667 -336 -440 -627.333 -592 -874z" />
    <glyph glyph-name="five" unicode="5" horiz-adv-x="1186" 
d="M605 -23c-86.667 0 -165.834 17.001 -237.501 51.001s-129.167 81.333 -172.5 142s-68 129.334 -74 206.001h134c9.33301 -80.667 47 -147.167 113 -199.5s145.667 -78.5 239 -78.5c107.333 0 195.5 34.167 264.5 102.5s103.5 155.5 103.5 261.5
c0 105.333 -34.167 192.666 -102.5 261.999s-154.833 104 -259.5 104c-72.667 0 -139 -16.333 -199 -49s-106.667 -77.667 -140 -135h-131l82 799h800v-122h-687l-54 -533h4c35.333 49.333 83.833 88.166 145.5 116.499s128.834 42.5 201.501 42.5
c137.333 0 251.166 -45.667 341.499 -137s135.5 -206.333 135.5 -345c0 -142.667 -47.667 -259.667 -143 -351s-216.666 -137 -363.999 -137z" />
    <glyph glyph-name="six" unicode="6" horiz-adv-x="1206" 
d="M629 -23c-96.667 0 -183.165 23.6699 -259.498 71.0029s-136.833 114.666 -181.5 201.999c-64.667 112.667 -97 259.667 -97 441c0 242 48.5 431.667 145.5 569s231.167 206 402.5 206c120 0 222.333 -33.333 307 -100s137.334 -155.334 158.001 -266.001h-138
c-18 73.333 -57 132.5 -117 177.5s-130.333 67.5 -211 67.5c-132 0 -234.167 -58.833 -306.5 -176.5s-108.5 -283.5 -108.5 -497.5h3c29.333 81.333 83.166 147.333 161.499 198s166.166 76 263.499 76c137.333 0 251.5 -45.333 342.5 -136s136.5 -204.334 136.5 -341.001
c0 -141.333 -47.333 -258.5 -142 -351.5s-214.334 -139.5 -359.001 -139.5zM628.002 99.0029c101.333 0 187.168 35.333 257.501 106s105.5 157 105.5 259c0 103.333 -34.167 189.166 -102.5 257.499s-154.833 102.5 -259.5 102.5c-102.667 0 -189.5 -33.833 -260.5 -101.5
s-106.5 -150.5 -106.5 -248.5c0 -105.333 35.167 -194.166 105.5 -266.499s157.166 -108.5 260.499 -108.5z" />
    <glyph glyph-name="seven" unicode="7" horiz-adv-x="1105" 
d="M213 0l669 1317v4h-803v122h940v-128l-661 -1315h-145z" />
    <glyph glyph-name="eight" unicode="8" horiz-adv-x="1211" 
d="M605 -23c-150.667 0 -274.001 38.999 -370.001 116.999s-144 177.333 -144 298c0 90.667 29.667 170 89 238s137 112.333 233 133v3c-82 22.667 -147 62.834 -195 120.501s-72 125.167 -72 202.5c0 109.333 43.333 199.5 130 270.5s196.334 106.5 329.001 106.5
c133.333 0 243 -35.5 329 -106.5s129 -161.167 129 -270.5c0 -76 -24 -143 -72 -201s-112.667 -98.667 -194 -122v-3c96 -20.667 173.667 -65 233 -133s89 -147.333 89 -238c0 -121.333 -47.833 -220.833 -143.5 -298.5s-219.167 -116.5 -370.5 -116.5zM604.999 96.999
c110.667 0 200.833 28.5 270.5 85.5s104.5 129.5 104.5 217.5c0 86.667 -34.833 157.667 -104.5 213s-159.834 83 -270.501 83c-110 0 -200 -27.667 -270 -83s-105 -126.333 -105 -213c0 -88 34.833 -160.5 104.5 -217.5s159.834 -85.5 270.501 -85.5zM604.998 817.999
c94 0 171.167 24.333 231.5 73s90.5 111 90.5 187c0 78 -29.833 142.333 -89.5 193s-137.167 76 -232.5 76s-173 -25.333 -233 -76s-90 -115 -90 -193c0 -76 30.167 -138.333 90.5 -187s137.833 -73 232.5 -73z" />
    <glyph glyph-name="nine" unicode="9" horiz-adv-x="1206" 
d="M568 -23c-121.333 0 -224.332 33.4971 -308.999 100.497s-137 155.5 -157 265.5h139c18 -73.333 56.667 -132.666 116 -177.999s130 -68 212 -68c128.667 0 229 56.5 301 169.5s109.667 271.167 113 474.5c0 2.66699 -0.166992 7.83398 -0.5 15.501s-0.5 13.5 -0.5 17.5
h-1h-1c-27.333 -81.333 -80.333 -147.666 -159 -198.999s-167.334 -77 -266.001 -77c-137.333 0 -251.5 45.167 -342.5 135.5s-136.5 203.166 -136.5 338.499c0 142.667 47.333 260.667 142 354s214.334 140 359.001 140c97.333 0 184.166 -23.667 260.499 -71
s136.5 -114.666 180.5 -201.999c64.667 -112.667 97 -259.667 97 -441c0 -242 -48.333 -431.667 -145 -569s-230.667 -206 -402 -206zM577.001 618.997c103.333 0 190.499 33.999 261.499 101.999s106.5 150.667 106.5 248c0 104.667 -35.333 193.167 -106 265.5
s-157.667 108.5 -261 108.5c-102.667 0 -189 -35.333 -259 -106s-105 -157.667 -105 -261c0 -101.333 34.333 -186.166 103 -254.499s155.334 -102.5 260.001 -102.5z" />
    <glyph glyph-name="colon" unicode=":" horiz-adv-x="509" 
d="M255 -9c-26 0 -48.167 9 -66.5 27s-27.5 40 -27.5 66c0 26.667 9.16699 49 27.5 67s40.5 27 66.5 27s48 -9 66 -27s27 -40.333 27 -67c0 -26 -9 -48 -27 -66s-40 -27 -66 -27zM255 744c-26 0 -48.167 9 -66.5 27s-27.5 40 -27.5 66s9.16699 48.167 27.5 66.5
s40.5 27.5 66.5 27.5s48 -9.16699 66 -27.5s27 -40.5 27 -66.5s-9 -48 -27 -66s-40 -27 -66 -27z" />
    <glyph glyph-name="semicolon" unicode=";" horiz-adv-x="509" 
d="M255 744c-26 0 -48.167 9 -66.5 27s-27.5 40 -27.5 66s9.16699 48.167 27.5 66.5s40.5 27.5 66.5 27.5s48 -9.16699 66 -27.5s27 -40.5 27 -66.5s-9 -48 -27 -66s-40 -27 -66 -27zM213 -276h-111l96 482h141z" />
    <glyph glyph-name="less" unicode="&#x3c;" horiz-adv-x="1219" 
d="M1035 1008l-717 -443v-8l717 -428v-145l-851 518v109l851 543v-146z" />
    <glyph glyph-name="equal" unicode="=" horiz-adv-x="1219" 
d="M1096 323h-973v118h973v-118zM1096 703h-973v118h973v-118z" />
    <glyph glyph-name="greater" unicode="&#x3e;" horiz-adv-x="1219" 
d="M184 1009v146l851 -543v-109l-851 -519v146l717 428v8z" />
    <glyph glyph-name="question" unicode="?" horiz-adv-x="972" 
d="M58 1079c6 110 45.999 200.335 119.999 271.002s173.667 106 299 106c119.333 0 217.5 -34 294.5 -102s115.5 -153.333 115.5 -256c0 -72 -17.5 -135.5 -52.5 -190.5s-87.833 -105.167 -158.5 -150.5c-65.333 -42 -109.666 -80.5 -132.999 -115.5s-35 -80.5 -35 -136.5
v-75h-133v94c-0.666992 65.333 14.333 121.333 45 168s81.334 93 152.001 139c63.333 42 108.166 82.667 134.499 122s39.5 85.666 39.5 138.999c0 71.333 -25.667 130 -77 176s-117 69 -197 69s-145.667 -23.333 -197 -70s-80.333 -109.334 -87 -188.001h-130z
M442.999 -8.99805c-26 0 -48 9 -66 27s-27 40 -27 66c0 26.667 9 49 27 67s40 27 66 27c26.667 0 49 -9 67 -27s27 -40.333 27 -67c0 -26 -9 -48 -27 -66s-40.333 -27 -67 -27z" />
    <glyph glyph-name="at" unicode="@" horiz-adv-x="1770" 
d="M878 906c-72.667 0 -130.667 -28.3311 -174 -84.998s-65 -132.334 -65 -227.001c0 -94 21.5 -169.167 64.5 -225.5s100.833 -84.5 173.5 -84.5c74 0 133 28.667 177 86s66 133.666 66 228.999c0 94 -21.667 168.667 -65 224s-102.333 83 -177 83zM910 1434
c154 0 291.83 -31 413.497 -93s216.5 -149.667 284.5 -263s102 -242.666 102 -387.999c0 -160 -31.333 -287 -94 -381s-148.667 -141 -258 -141c-60 0 -111.167 16.833 -153.5 50.5s-67.166 78.167 -74.499 133.5h-7c-22.667 -57.333 -56.5 -101.166 -101.5 -131.499
s-98.5 -45.5 -160.5 -45.5c-103.333 0 -186.833 38.833 -250.5 116.5s-95.5 179.5 -95.5 305.5c0 122.667 32.167 222.667 96.5 300s147.5 116 249.5 116c58 0 110.167 -14.667 156.5 -44s78.833 -68.333 97.5 -117h7v141h116v-572c0 -46.667 12 -83.5 36 -110.5
s58.333 -40.5 103 -40.5c68 0 122.333 37.333 163 112s61 178 61 310c0 190.667 -65 345.5 -195 464.5s-298.333 178.5 -505 178.5c-134 0 -254.667 -31.333 -362 -94s-191.166 -150 -251.499 -262s-90.5 -238.333 -90.5 -379c0 -150 31.333 -280.833 94 -392.5
s148.334 -196.334 257.001 -254.001s233 -86.5 373 -86.5c147.333 0 258 14.667 332 44v-99c-84.667 -29.333 -195.667 -44 -333 -44c-162 0 -305.5 32.833 -430.5 98.5s-223.333 162.167 -295 289.5s-107.5 276.666 -107.5 447.999c0 121.333 20.333 233.5 61 336.5
s97 190.667 169 263s159 128.833 261 169.5s212.667 61 332 61z" />
    <glyph glyph-name="A" unicode="A" horiz-adv-x="1262" 
d="M1094 0l-160 442h-606l-160 -442h-145l540 1443h136l539 -1443h-144zM628 1274l-259 -714h524l-259 714h-6z" />
    <glyph glyph-name="B" unicode="B" horiz-adv-x="1205" 
d="M657 0l-521.998 -0.000976562v1443h519c124 0 224.333 -32.667 301 -98s115 -151.333 115 -258c0 -80 -24.833 -150.667 -74.5 -212s-112.834 -99 -189.501 -113v-7c101.333 -12 183.166 -50.167 245.499 -114.5s93.5 -145.833 93.5 -244.5
c0 -123.333 -43.333 -220.166 -130 -290.499s-206 -105.5 -358 -105.5zM271.002 1322v-519.999h314c109.333 0 194.5 23.667 255.5 71s91.5 113.666 91.5 198.999c0 78.667 -27.167 140 -81.5 184s-129.5 66 -225.5 66h-354zM271.002 121h367
c117.333 0 207.833 24.5 271.5 73.5s95.5 118.5 95.5 208.5s-33.167 159.333 -99.5 208s-161.5 73 -285.5 73h-349v-563z" />
    <glyph glyph-name="C" unicode="C" horiz-adv-x="1371" 
d="M720 -23c-196.667 0 -353 67.501 -469 202.501s-174 316.833 -174 545.5c0 226 58.167 406 174.5 540s272.5 201 468.5 201c100.667 0 193.167 -20.333 277.5 -61s153.5 -97.667 207.5 -171s87.333 -156.333 100 -249h-137c-20 104 -71.667 189 -155 255s-181 99 -293 99
c-153.333 0 -275.5 -55.5 -366.5 -166.5s-136.5 -260.167 -136.5 -447.5c0 -190 45.5 -341 136.5 -453s213.5 -168 367.5 -168c115.333 0 213.333 29 294 87s131.667 136.667 153 236h137c-25.333 -140.667 -90 -250.834 -194 -330.501s-234.333 -119.5 -391 -119.5z" />
    <glyph glyph-name="D" unicode="D" horiz-adv-x="1363" 
d="M135 1443h468.001c216 0 384 -63.167 504 -189.5s180 -303.5 180 -531.5c0 -228.667 -59.833 -406.167 -179.5 -532.5s-287.834 -189.5 -504.501 -189.5h-468v1443zM272.001 1319v-1195h323c177.333 0 313.833 51.667 409.5 155s143.5 250.666 143.5 441.999
c0 192 -47.833 339.667 -143.5 443s-232.167 155 -409.5 155h-323z" />
    <glyph glyph-name="E" unicode="E" horiz-adv-x="1104" 
d="M1006 124v-124h-871v1443h871v-124h-735v-519h698v-122h-698v-554h735z" />
    <glyph glyph-name="F" unicode="F" horiz-adv-x="1061" 
d="M271 0h-136v1443h856v-124h-720v-542h662v-122h-662v-655z" />
    <glyph glyph-name="G" unicode="G" horiz-adv-x="1409" 
d="M1324 586c0 -190.667 -53 -339.833 -159 -447.5s-252.667 -161.5 -440 -161.5c-195.333 0 -352.166 68.667 -470.499 206s-177.5 319.666 -177.5 546.999c0 223.333 58.833 401.833 176.5 535.5s274.834 200.5 471.501 200.5c151.333 0 280.666 -41.667 387.999 -125
s174.666 -194 201.999 -332h-142c-29.333 102.667 -83.833 183.334 -163.5 242.001s-174.5 88 -284.5 88c-156.667 0 -280.5 -54.5 -371.5 -163.5s-136.5 -257.5 -136.5 -445.5c0 -190.667 46 -342.667 138 -456s215.333 -170 370 -170c139.333 0 251.333 41 336 123
s127 191 127 327v51h-448v120h584v-139z" />
    <glyph glyph-name="H" unicode="H" horiz-adv-x="1387" 
d="M1252 0h-137v677h-844v-677h-136v1443h136v-642h844v642h137v-1443z" />
    <glyph glyph-name="I" unicode="I" horiz-adv-x="406" 
d="M271 0h-136v1443h136v-1443z" />
    <glyph glyph-name="J" unicode="J" horiz-adv-x="987" 
d="M42 331l135 -0.000976562c3.33301 -69.333 29.166 -125.666 77.499 -168.999s109.833 -65 184.5 -65c88 0 156.167 26 204.5 78s72.5 126 72.5 222v1046h136v-1048c0 -132.667 -36.5 -236.667 -109.5 -312s-174.167 -113 -303.5 -113
c-115.333 0 -210.166 33.667 -284.499 101s-111.833 154 -112.5 260z" />
    <glyph glyph-name="K" unicode="K" horiz-adv-x="1209" 
d="M271 0h-136v1443h136v-748h8l686 748h173l-593 -638l652 -805h-175l-573 708l-178 -193v-515z" />
    <glyph glyph-name="L" unicode="L" horiz-adv-x="1052" 
d="M994 124v-124h-859v1443h136v-1319h723z" />
    <glyph glyph-name="M" unicode="M" horiz-adv-x="1660" 
d="M1525 0h-128v1184h-6l-502 -1177h-119l-501 1177h-6v-1184h-128v1443h157l535 -1263h6l534 1263h158v-1443z" />
    <glyph glyph-name="N" unicode="N" horiz-adv-x="1393" 
d="M270 0h-135v1443h135l846 -1205h7v1205h135v-1443h-132l-849 1206h-7v-1206z" />
    <glyph glyph-name="O" unicode="O" horiz-adv-x="1465" 
d="M732 1466c201.333 0 361 -67 479 -201s177 -315.333 177 -544s-59 -409.834 -177 -543.501s-277.667 -200.5 -479 -200.5s-360.833 66.833 -478.5 200.5s-176.5 314.834 -176.5 543.501s59 410 177 544s277.333 201 478 201zM732 1339c-158 0 -283.333 -55.667 -376 -167
s-139 -261.666 -139 -450.999s46.333 -339.5 139 -450.5s218 -166.5 376 -166.5s283.5 55.667 376.5 167s139.5 261.333 139.5 450c0 189.333 -46.5 339.666 -139.5 450.999s-218.5 167 -376.5 167z" />
    <glyph glyph-name="P" unicode="P" horiz-adv-x="1150" 
d="M135 1443h491c138 0 249.667 -41.333 335 -124s128 -191 128 -325s-43 -242.5 -129 -325.5s-197.667 -124.5 -335 -124.5h-354v-544h-136v1443zM271 1321v-655.001h323c110.667 0 197.5 29 260.5 87s94.5 138.333 94.5 241s-31.333 182.834 -94 240.501
s-149.667 86.5 -261 86.5h-323z" />
    <glyph glyph-name="Q" unicode="Q" horiz-adv-x="1465" 
d="M732 -23c-201.333 0 -360.832 66.832 -478.499 200.499s-176.5 314.834 -176.5 543.501s59 410 177 544s277.333 201 478 201c201.333 0 361 -67 479 -201s177 -315.333 177 -544c0 -142 -23.833 -267.167 -71.5 -375.5s-115.834 -193.833 -204.501 -256.5l188 -258h-154
l-145 198c-81.333 -34.667 -171 -52 -269 -52zM732.001 103.999c68 0 131.333 11.333 190 34l-187 257h154l143 -196c69.333 51.333 122.5 121.833 159.5 211.5s55.5 193.167 55.5 310.5c0 189.333 -46.333 339.666 -139 450.999s-218 167 -376 167
s-283.333 -55.667 -376 -167s-139 -261.666 -139 -450.999c0 -188.667 46.5 -338.667 139.5 -450s218.167 -167 375.5 -167z" />
    <glyph glyph-name="R" unicode="R" horiz-adv-x="1193" 
d="M271 1321v-609h362c105.333 0 187 26.667 245 80s87 128.333 87 225c0 95.333 -29.833 169.833 -89.5 223.5s-142.167 80.5 -247.5 80.5h-357zM271 591v-590.999h-136v1443h509c140.667 0 252.834 -38.167 336.501 -114.5s125.5 -178.833 125.5 -307.5
c0 -102 -27.333 -189.333 -82 -262s-130.334 -121.334 -227.001 -146.001l350 -613h-160l-332 591h-22h-362z" />
    <glyph glyph-name="S" unicode="S" horiz-adv-x="1182" 
d="M65 392l136.999 0.00195312c7.33301 -86.667 48.333 -156.834 123 -210.501s168.334 -80.5 281.001 -80.5c108 0 196.833 26.333 266.5 79s104.5 119.667 104.5 201c0 67.333 -24.333 122.166 -73 164.499s-126.667 77.166 -234 104.499l-179 46
c-134 34 -231.833 80.667 -293.5 140s-92.5 136.333 -92.5 231c0 116 46.667 211.5 140 286.5s211.333 112.5 354 112.5c140 0 256.5 -37.167 349.5 -111.5s141.5 -168.833 145.5 -283.5h-137c-6.66699 81.333 -43 146.833 -109 196.5s-150.333 74.5 -253 74.5
c-100.667 0 -183.834 -25.167 -249.501 -75.5s-98.5 -115.166 -98.5 -194.499c0 -62 23.667 -112.5 71 -151.5s124.333 -72.167 231 -99.5l156 -40c145.333 -36.667 250.333 -85 315 -145s97 -140 97 -240c0 -126.667 -47.333 -228.167 -142 -304.5
s-221.667 -114.5 -381 -114.5c-150.667 0 -274.667 38.167 -372 114.5s-149.666 176.5 -156.999 300.5z" />
    <glyph glyph-name="T" unicode="T" horiz-adv-x="1165" 
d="M651 0h-137v1319h-476v124h1090v-124h-477v-1319z" />
    <glyph glyph-name="U" unicode="U" horiz-adv-x="1386" 
d="M271 1443l-0.000976562 -931c0 -122.667 37.667 -221.334 113 -296.001s178.333 -112 309 -112s233.667 37.333 309 112s113 173.334 113 296.001v931h137v-939c0 -157.333 -50.333 -284.5 -151 -381.5s-236.667 -145.5 -408 -145.5s-307.166 48.5 -407.499 145.5
s-150.5 224.167 -150.5 381.5v939h136z" />
    <glyph glyph-name="V" unicode="V" horiz-adv-x="1262" 
d="M699 0h-136l-540 1443h145l460 -1273h6l461 1273h144z" />
    <glyph glyph-name="W" unicode="W" horiz-adv-x="1854" 
d="M923 1209l-355 -1209h-127l-397 1443h142l318 -1233h6l349 1233h136l348 -1233h7l317 1233h143l-398 -1443h-126l-355 1209h-8z" />
    <glyph glyph-name="X" unicode="X" horiz-adv-x="1263" 
d="M44 0l502 722v5l-498 716h165l421 -613h5l424 613h157l-507 -722v-4l499 -717h-164l-419 610h-5l-425 -610h-155z" />
    <glyph glyph-name="Y" unicode="Y" horiz-adv-x="1219" 
d="M678 0h-137v624l-517 819h156l427 -685h5l427 685h156l-517 -819v-624z" />
    <glyph glyph-name="Z" unicode="Z" horiz-adv-x="1224" 
d="M87 0v99l866 1214v6h-838v124h1011v-100l-864 -1213v-6h876v-124h-1051z" />
    <glyph glyph-name="bracketleft" unicode="[" horiz-adv-x="626" 
d="M204 1443h399v-106h-271v-1536h271v-105h-399v1747z" />
    <glyph glyph-name="backslash" unicode="\" horiz-adv-x="626" 
d="M510 -304l-510 1747h116l510 -1747h-116z" />
    <glyph glyph-name="bracketright" unicode="]" horiz-adv-x="626" 
d="M422 1443v-1747h-399v105h270v1536h-270v106h399z" />
    <glyph glyph-name="asciicircum" unicode="^" horiz-adv-x="847" 
d="M418 1304l-231 -494h-130l296 617h141l296 -617h-130l-231 494h-11z" />
    <glyph glyph-name="underscore" unicode="_" horiz-adv-x="819" 
d="M877 -222h-935v100h935v-100z" />
    <glyph glyph-name="grave" unicode="`" horiz-adv-x="899" 
d="M639 1277h-119l-246 302h146z" />
    <glyph glyph-name="a" unicode="a" horiz-adv-x="1014" 
d="M449 97c91.333 0 168.333 28.3301 231 84.9971s94 126.334 94 209.001v115l-308 -21c-82 -5.33301 -145 -25.166 -189 -59.499s-66 -80.166 -66 -137.499c0 -56.667 22 -102.667 66 -138s101.333 -53 172 -53zM422 -17.0029c-102.667 0 -185.834 28.166 -249.501 84.499
s-95.5 129.833 -95.5 220.5c0 89.333 32.167 160 96.5 212s156.5 82 276.5 90l324 20v90c0 75.333 -22.667 134.166 -68 176.499s-108.333 63.5 -189 63.5c-76 0 -137.833 -17.667 -185.5 -53s-77.167 -84.666 -88.5 -147.999h-128
c7.33301 94.667 47.5 171.334 120.5 230.001s167.833 88 284.5 88c118.667 0 212.667 -31 282 -93s104 -146 104 -252v-712h-126v198h-3c-28.667 -64.667 -75.667 -116.667 -141 -156s-136.666 -59 -213.999 -59z" />
    <glyph glyph-name="b" unicode="b" horiz-adv-x="1117" 
d="M614 -17c-82 0 -154.833 21.166 -218.5 63.499s-111.167 100.166 -142.5 173.499h-3v-220h-127v1443h133v-620h3c30 72 76.667 129 140 171s135.333 63 216 63c130.667 0 236.5 -49.167 317.5 -147.5s121.5 -228.166 121.5 -389.499s-40.5 -291.166 -121.5 -389.499
s-187.167 -147.5 -318.5 -147.5zM589 939.999c-98 0 -178.167 -38.9971 -240.5 -116.997s-93.5 -179 -93.5 -303c0 -124.667 31.167 -225.834 93.5 -303.501s142.5 -116.5 240.5 -116.5c100 0 179.833 38.167 239.5 114.5s89.5 178.166 89.5 305.499
s-29.833 229.166 -89.5 305.499s-139.5 114.5 -239.5 114.5z" />
    <glyph glyph-name="c" unicode="c" horiz-adv-x="1012" 
d="M960 711l-129.997 0.000976562c-14.667 67.333 -48.167 122.333 -100.5 165s-117.833 64 -196.5 64c-102 0 -183.5 -38 -244.5 -114s-91.5 -178 -91.5 -306c0 -129.333 30.667 -231.666 92 -306.999s143 -113 245 -113c77.333 0 142.166 20 194.499 60
s86.166 94 101.499 162h131c-14.667 -100 -61.167 -181.5 -139.5 -244.5s-174.5 -94.5 -288.5 -94.5c-142.667 0 -256.834 48.167 -342.501 144.5s-128.5 227.166 -128.5 392.499c0 163.333 42.833 293.666 128.5 390.999s199.5 146 341.5 146
c118 0 215.5 -33.333 292.5 -100s122.167 -148.667 135.5 -246z" />
    <glyph glyph-name="d" unicode="d" horiz-adv-x="1119" 
d="M507 -17c-132 0 -239.167 49.3311 -321.5 147.998s-123.5 228.334 -123.5 389.001c0 161.333 40.833 291.166 122.5 389.499s188.167 147.5 319.5 147.5c82 0 154.833 -21.167 218.5 -63.5s109.5 -98.166 137.5 -167.499h3v617h133v-1443h-126v220h-3
c-30 -71.333 -77 -128.666 -141 -171.999s-137 -65 -219 -65zM530 939.998c-100 0 -180.333 -38.3291 -241 -114.996s-91 -178.334 -91 -305.001s30.333 -228.334 91 -305.001s141 -115 241 -115c99.333 0 179.833 38.667 241.5 116s92.5 178.666 92.5 303.999
s-30.833 226.666 -92.5 303.999s-142.167 116 -241.5 116z" />
    <glyph glyph-name="e" unicode="e" horiz-adv-x="1040" 
d="M525 941c-92.667 0 -168.833 -32.167 -228.5 -96.5s-92.167 -148.166 -97.5 -251.499h642c-1.33301 103.333 -31 187.166 -89 251.499s-133.667 96.5 -227 96.5zM833.001 295l130.997 -0.00390625c-16 -91.333 -63.167 -166.166 -141.5 -224.499
s-174.166 -87.5 -287.499 -87.5c-146 0 -261.333 47.833 -346 143.5s-127 225.834 -127 390.501c0 162 42.333 292.5 127 391.5s197.334 148.5 338.001 148.5c137.333 0 246.666 -46.667 327.999 -140s122 -217.666 122 -372.999v-56h-779v-8
c0 -117.333 30.667 -210.166 92 -278.499s144 -102.5 248 -102.5c76.667 0 141.334 18 194.001 54s86.334 83.333 101.001 142z" />
    <glyph glyph-name="f" unicode="f" horiz-adv-x="581" 
d="M167 0l0.000976562 930h-145v110h145v132c0 182.667 88.667 274 266 274c34.667 0 66.667 -2.66699 96 -8v-109c-24.667 4.66699 -50.334 7 -77.001 7c-102 0 -153 -55.667 -153 -167v-129h224v-110h-223v-930h-133z" />
    <glyph glyph-name="g" unicode="g" horiz-adv-x="1107" 
d="M525 107c100 0 180.833 38.166 242.5 114.499s92.5 176.833 92.5 301.5s-30.833 225.334 -92.5 302.001s-142.5 115 -242.5 115c-98 0 -177 -38.167 -237 -114.5s-90 -177.5 -90 -303.5c0 -125.333 30 -225.833 90 -301.5s139 -113.5 237 -113.5zM538 -385.001
c-112 0 -207.499 27.334 -286.499 82.001s-125.833 123.667 -140.5 207h137c17.333 -52 52.5 -94.167 105.5 -126.5s116.5 -48.5 190.5 -48.5c96.667 0 173.5 25.833 230.5 77.5s85.5 120.167 85.5 205.5v209h-3c-28.667 -68.667 -74.834 -124.334 -138.501 -167.001
s-136.167 -64 -217.5 -64c-132 0 -238.167 48.667 -318.5 146s-120.5 226.333 -120.5 387c0 161.333 40.333 290.666 121 387.999s187.667 146 321 146c81.333 0 153.833 -21.5 217.5 -64.5s111.167 -100.5 142.5 -172.5h3v220h126v-1023
c0 -121.333 -41.167 -218.666 -123.5 -291.999s-192.833 -110 -331.5 -110z" />
    <glyph glyph-name="h" unicode="h" horiz-adv-x="1082" 
d="M123 0l0.000976562 1443h133v-595h3c26.667 64.667 70 115.667 130 153s131 56 213 56c113.333 0 203.666 -35 270.999 -105s101 -163.333 101 -280v-672h-133v650c0 90.667 -24.333 161.5 -73 212.5s-116.667 76.5 -204 76.5c-93.333 0 -168 -30 -224 -90
s-84 -139 -84 -237v-612h-133z" />
    <glyph glyph-name="i" unicode="i" horiz-adv-x="378" 
d="M123 0v1040h132v-1040h-132zM189 1250c-24 0 -44.667 8.5 -62 25.5s-26 37.833 -26 62.5c0 24 8.66699 44.5 26 61.5s38 25.5 62 25.5c24.667 0 45.667 -8.5 63 -25.5s26 -37.5 26 -61.5c0 -24.667 -8.66699 -45.5 -26 -62.5s-38.333 -25.5 -63 -25.5z" />
    <glyph glyph-name="j" unicode="j" horiz-adv-x="378" 
d="M255 1040l0.000976562 -1106c0 -100 -24.333 -173.167 -73 -219.5s-124 -69.5 -226 -69.5c-20.667 0 -31.334 0.333008 -32.001 1v112h27c62 0 106.167 13.333 132.5 40s39.5 71.334 39.5 134.001v1108h132zM189.001 1250c-24 0 -44.667 8.5 -62 25.5
s-26 37.833 -26 62.5c0 24 8.66699 44.5 26 61.5s38 25.5 62 25.5c24.667 0 45.667 -8.5 63 -25.5s26 -37.5 26 -61.5c0 -24.667 -8.66699 -45.5 -26 -62.5s-38.333 -25.5 -63 -25.5z" />
    <glyph glyph-name="k" unicode="k" horiz-adv-x="957" 
d="M256 548l514 492h164l-467 -449l476 -591h-155l-416 510l-116 -107v-403h-133v1443h133v-895z" />
    <glyph glyph-name="l" unicode="l" horiz-adv-x="378" 
d="M123 0v1443h132v-1443h-132z" />
    <glyph glyph-name="m" unicode="m" horiz-adv-x="1621" 
d="M114 0l0.00195312 1040h125v-192h3c23.333 63.333 61.333 114 114 152s115.667 57 189 57c74.667 0 138.5 -19.833 191.5 -59.5s89.5 -92.834 109.5 -159.501h3c25.333 65.333 67.166 118.166 125.499 158.499s125.833 60.5 202.5 60.5
c101.333 0 182.666 -31.5 243.999 -94.5s92 -146.833 92 -251.5v-711h-132v681c0 80.667 -21.333 143.834 -64 189.501s-101.667 68.5 -177 68.5c-76.667 0 -139.167 -26.5 -187.5 -79.5s-72.5 -121.167 -72.5 -204.5v-655h-133v693c0 74 -21.833 133.5 -65.5 178.5
s-101.167 67.5 -172.5 67.5c-76.667 0 -139.667 -28 -189 -84s-74 -128 -74 -216v-639h-132z" />
    <glyph glyph-name="n" unicode="n" horiz-adv-x="1062" 
d="M114 0v1040h125v-192h3c27.333 64.667 70.833 115.667 130.5 153s130.5 56 212.5 56c114 0 203.833 -34.333 269.5 -103s98.5 -162 98.5 -280v-674h-132v653c0 90.667 -23.833 161 -71.5 211s-115.167 75 -202.5 75c-90 0 -162.667 -29.667 -218 -89
s-83 -137.333 -83 -234v-616h-132z" />
    <glyph glyph-name="o" unicode="o" horiz-adv-x="1072" 
d="M536 -17c-142.667 0 -257.333 48.5 -344 145.5s-130 227.5 -130 391.5s43.5 294.5 130.5 391.5s201.5 145.5 343.5 145.5c142.667 0 257.334 -48.5 344.001 -145.5s130 -227.5 130 -391.5s-43.333 -294.5 -130 -391.5s-201.334 -145.5 -344.001 -145.5zM536.001 100
c103.333 0 185.833 37.333 247.5 112s92.5 177.334 92.5 308.001s-30.833 233.334 -92.5 308.001s-144.167 112 -247.5 112s-185.666 -37.333 -246.999 -112s-92 -177.334 -92 -308.001s30.667 -233.334 92 -308.001s143.666 -112 246.999 -112z" />
    <glyph glyph-name="p" unicode="p" horiz-adv-x="1107" 
d="M601 1057c132 0 238.834 -49.1689 320.501 -147.502s122.5 -228.166 122.5 -389.499s-40.5 -291.166 -121.5 -389.499s-187.167 -147.5 -318.5 -147.5c-82 0 -154.5 21.167 -217.5 63.5s-108.5 98.166 -136.5 167.499h-4v-558h-132v1384h125v-220h4
c29.333 70.667 75.666 127.834 138.999 171.501s136.333 65.5 219 65.5zM578.001 99.998c100.667 0 181 38.167 241 114.5s90 178.166 90 305.499c0 126.667 -30.167 228.334 -90.5 305.001s-140.5 115 -240.5 115c-98.667 0 -178.667 -38.833 -240 -116.5
s-92 -178.834 -92 -303.501c0 -125.333 30.667 -226.666 92 -303.999s141.333 -116 240 -116z" />
    <glyph glyph-name="q" unicode="q" horiz-adv-x="1110" 
d="M505 1057c83.333 0 156.833 -21.4971 220.5 -64.4971s110.5 -100.5 140.5 -172.5h4v220h126v-1384h-133v561h-3c-29.333 -70.667 -75.833 -127.334 -139.5 -170.001s-136.167 -64 -217.5 -64c-132 0 -238.5 49.167 -319.5 147.5s-121.5 228.166 -121.5 389.499
s40.667 291.166 122 389.499s188.333 147.5 321 147.5zM527 100.003c98.667 0 179.334 38.8291 242.001 116.496s94 178.834 94 303.501s-31.333 225.834 -94 303.501s-143.334 116.5 -242.001 116.5c-99.333 0 -179 -38.167 -239 -114.5s-90 -178.166 -90 -305.499
s30 -229.166 90 -305.499s139.667 -114.5 239 -114.5z" />
    <glyph glyph-name="r" unicode="r" horiz-adv-x="615" 
d="M114 0l0.000976562 1040h125v-185h3c19.333 63.333 52 112.833 98 148.5s101 53.5 165 53.5c25.333 0 52.666 -3.66699 81.999 -11v-130c-21.333 10 -54.333 15 -99 15c-73.333 0 -132 -26 -176 -78s-66 -120.333 -66 -205v-648h-132z" />
    </font>
</defs>
</svg>
